<svg width="141" height="61" viewBox="0 0 141 61" fill="none" xmlns="http://www.w3.org/2000/svg">
<g opacity="0.27">
<path fill-rule="evenodd" clip-rule="evenodd" d="M18.5505 7.05391C16.4048 7.83839 14.4947 9.22241 13.4382 10.7582C11.6665 13.3333 11.649 13.5677 11.649 34.842V54.1917H13.8718H16.0945V47.4959V40.8004L17.5852 42.1406C19.5993 43.9514 21.454 44.5636 24.8723 44.5456C27.3072 44.5328 27.7683 44.4362 29.5323 43.5676C31.691 42.5051 33.2953 41.9699 34.6503 39.3406C35.4229 37.8413 35.7699 36.9518 35.7699 33.9529C35.7699 30.9913 35.1375 30.1968 34.4182 28.8338C33.1189 26.3719 30.7169 24.5554 27.8152 23.8403L26.9403 23.6246L28.1874 23.0662C30.1467 22.189 31.3401 21.1289 32.2639 19.444C32.9918 18.1169 33.1174 17.5589 33.1151 15.6642C33.1127 13.8256 32.9698 13.1599 32.2882 11.8115C31.2388 9.73513 29.9674 8.40504 28.0973 7.42733C26.8034 6.75103 26.2023 6.1792 23.3555 6.10778C20.7395 6.04198 19.7902 6.60047 18.5505 7.05391ZM24.522 10.3557C26.0183 10.7327 27.7642 12.0761 28.4295 13.3626C28.6995 13.8845 28.8975 15.0012 28.8975 16.0006C28.8975 19.49 26.8721 21.395 22.4999 22.0174L20.0954 22.3597L20.0059 23.902L19.9161 25.4442H21.0628C22.8084 25.4442 25.58 26.026 26.7998 26.6481C29.1636 27.854 30.6164 30.6348 30.6164 33.9529C30.6164 38.3501 28.0398 41.1516 23.9962 41.1516C19.9428 41.1516 17.181 38.73 16.4137 34.5029C16.0379 32.4334 16.0029 16.716 16.3698 14.8172C16.7699 12.7462 18.1255 11.289 20.409 10.4754C21.841 9.9654 22.8543 9.93576 24.522 10.3557Z" fill="#E01444"/>
</g>
<path d="M22.7629 17.6951V20.266V20.4433L22.6743 20.266L21.8764 18.7589C22.1194 18.619 22.2175 18.4935 22.1424 17.9611C22.012 17.4619 21.6807 17.3522 21.0786 17.1632C21.6505 17.1724 21.9308 17.0846 22.7629 17.6951Z" fill="#562C36" stroke="#562C36" stroke-width="0.0531904"/>
<path d="M21.3445 16.3653C22.3059 16.989 22.5561 17.2647 22.7629 17.6951C22.4237 17.4287 22.2063 17.3177 21.7877 17.1632C21.5184 17.1524 21.3576 17.1599 21.0785 17.1632L21.6991 17.4291C21.9714 17.5755 22.0651 17.6935 22.1423 17.961C22.1858 18.3941 22.1588 18.5945 21.8764 18.7589C21.4711 18.1335 21.1851 18.0138 20.6353 17.961C20.7443 17.688 20.7627 17.4839 20.6995 17.2797C20.6419 17.1262 20.5359 16.9479 20.3693 16.7199C20.8355 16.6203 21.0469 16.5431 21.3445 16.3653Z" fill="#F9C4E0"/>
<path d="M21.3445 16.3653C22.3059 16.989 22.5561 17.2647 22.7629 17.6951C22.4237 17.4287 22.2063 17.3177 21.7877 17.1632C21.5184 17.1524 21.3576 17.1599 21.0785 17.1632L21.6991 17.4291C21.9714 17.5755 22.0651 17.6935 22.1423 17.961C22.1858 18.3941 22.1588 18.5945 21.8764 18.7589C21.4711 18.1335 21.1851 18.0138 20.6353 17.961M21.3445 16.3653C21.0198 16.5603 20.801 16.632 20.3693 16.7199M21.3445 16.3653C21.0469 16.5431 20.8355 16.6203 20.3693 16.7199M20.3693 16.7199C20.8159 17.3311 20.8276 17.5858 20.6353 17.961M20.3693 16.7199C20.729 17.1878 20.8365 17.4571 20.6353 17.961" stroke="#F9C4E0" stroke-width="0.0531904"/>
<path fill-rule="evenodd" clip-rule="evenodd" d="M19.1835 15.9563C18.2034 16.4015 17.3672 17.0646 17.0321 18.2174C16.7793 19.0869 16.7961 19.6239 17.0321 20.5415C17.4383 22.1198 17.8724 22.9925 19.3386 25.1792C20.8196 27.3874 20.9799 27.9777 20.3246 28.8106C19.8213 29.4507 18.9009 29.4629 18.5644 28.8344C18.0626 27.8965 15.969 27.1578 13.7989 27.1529C11.9852 27.1486 8.98477 28.389 6.68535 30.0936C6.0515 30.5634 5.12599 31.2304 4.62883 31.5757C3.81608 32.1398 2.24112 33.7104 2.48792 33.7104C2.54253 33.7104 2.86327 33.5474 3.20085 33.3483C3.53843 33.149 4.0526 32.9178 4.34355 32.8345C4.86854 32.684 4.87067 32.6863 4.63309 33.1441C4.50153 33.398 4.31412 33.7887 4.34355 33.818C4.37281 33.8472 4.76128 33.621 5.08024 33.5097C6.09618 33.1556 8.02788 33.4253 10.0716 34.2066C11.086 34.5944 12.0663 34.9621 12.2501 35.0238C12.5638 35.1291 12.5661 35.1564 12.2881 35.4637C12.125 35.644 11.4161 36.0548 10.7126 36.377C8.58779 37.3496 8.07327 37.7308 8.13727 38.2849C8.18887 38.7326 8.34507 38.8129 10.5587 39.5313L12.9249 40.2992L12.7888 40.9497C12.7138 41.3075 12.6719 41.7997 12.6957 42.0435C12.7194 42.2873 12.7269 45.0513 12.7124 48.1856C12.6936 52.2034 12.7437 53.9204 12.8827 54.0064C13.2311 54.2216 15.7277 54.3445 15.7277 54.1463C15.7277 54.0461 15.5481 53.9036 15.3288 53.8298C14.944 53.7002 14.9472 53.6928 15.4174 53.6199C15.6857 53.5786 15.905 53.4692 15.905 53.377C15.905 53.2796 15.596 53.2587 15.1687 53.327C14.5868 53.4201 14.4623 53.3961 14.5756 53.2128C14.6859 53.0346 14.5997 53.0048 14.2038 53.0848C13.9205 53.1419 13.5691 53.2351 13.4228 53.2919C13.1904 53.3821 13.1716 53.0435 13.2742 50.6004C13.3386 49.0634 13.4178 46.1902 13.4501 44.2155C13.4824 42.2409 13.568 40.6251 13.6405 40.6251C13.7129 40.6251 14.8832 41.0322 16.241 41.5297C18.8496 42.4854 18.911 42.535 18.9167 43.6891C18.9181 43.9621 19.0379 44.2279 19.1851 44.2843C19.3479 44.3468 19.451 44.6156 19.451 44.9775C19.451 45.7555 19.7326 45.9106 19.8727 45.2099C20.079 44.1786 19.9863 43.2038 19.626 42.6127C19.2342 41.9701 18.8058 41.7568 15.8164 40.7157C14.7437 40.3423 13.8141 39.9895 13.7508 39.9319C13.6267 39.8193 14.0309 36.8741 14.3159 35.8142C14.5584 34.9123 14.8386 34.7447 16.3497 34.5967C17.566 34.4777 17.7383 34.4091 18.4325 33.7694C18.8486 33.3857 19.6792 32.7389 20.2783 32.3322C22.7721 30.6386 23.2972 28.959 22.0833 26.5582C21.8781 26.1525 21.1505 25.0625 20.4666 24.1361C19.0188 22.1751 18.3605 20.8528 18.2477 19.6789C18.1759 18.9325 18.2227 18.7883 18.6716 18.3722C19.0438 18.0273 19.2938 17.9314 19.6239 18.0073C20.7571 18.2678 21.2301 18.3208 21.4992 18.2174C21.7615 18.1169 21.754 18.0453 21.4242 17.4864C21.2232 17.1456 21.1358 16.8568 21.2301 16.8446C21.3242 16.8323 21.4744 16.8125 21.5639 16.8002C21.9733 16.7444 21.8654 16.5472 21.1824 16.1045C20.3145 15.5418 19.9262 15.7448 19.1835 15.9563ZM13.2483 37.7629L13.0255 39.6985L11.0523 39.0381C9.89894 38.6521 9.05924 38.2736 9.03158 38.1273C9.00091 37.9647 9.74735 37.5032 11.1592 36.8115C12.3554 36.2257 13.365 35.7646 13.4028 35.7869C13.4405 35.8093 13.371 36.6984 13.2483 37.7629Z" fill="url(#paint0_angular_2108_440)"/>
<circle cx="20.1696" cy="16.851" r="0.222274" fill="white"/>
<path d="M19.0222 16.049C19.0373 16.0447 19.0523 16.0403 19.0671 16.0361C18.3313 16.4714 17.7341 17.083 17.4635 18.0137C17.2107 18.8832 17.2275 19.4203 17.4635 20.3378C17.8697 21.9161 18.3038 22.7888 19.77 24.9755C21.251 27.1837 21.4113 27.774 20.756 28.6069C20.5512 28.8674 20.2773 29.0239 20.0018 29.0756C20.0591 29.0244 20.1132 28.9669 20.1633 28.9033C20.8186 28.0703 20.6583 27.4801 19.1773 25.2718C17.711 23.0852 17.277 22.2125 16.8708 20.6342C16.6348 19.7166 16.618 19.1796 16.8708 18.3101C17.2059 17.1573 18.0421 16.4942 19.0222 16.049Z" fill="url(#paint1_angular_2108_440)"/>
<path d="M19.4626 18.1C19.372 18.0792 19.2875 18.0713 19.2048 18.0779C19.5228 17.8072 19.7562 17.7349 20.0553 17.8036C20.7583 17.9652 21.2072 18.0469 21.511 18.061C21.5521 18.2026 21.4909 18.2514 21.3379 18.3101C21.0688 18.4134 20.5957 18.3604 19.4626 18.1Z" fill="url(#paint2_angular_2108_440)"/>
<path d="M21.6351 16.7918C21.6259 16.7526 21.622 16.7198 21.624 16.6949C21.6437 16.7327 21.6473 16.7648 21.6351 16.7918Z" fill="url(#paint3_angular_2108_440)"/>
<path d="M15.9006 31.2039C15.8912 29.4016 16.3001 28.9513 17.4284 27.903C16.094 27.3855 15.5809 27.1172 14.476 27.0139C12.9736 26.9685 12.4631 27.012 10.5374 27.7681C9.14798 28.2833 8.28149 28.7635 6.59879 29.9469C5.95978 30.4421 5.73735 30.7903 5.4256 31.4553C6.30402 30.5014 6.73989 30.1697 7.52059 29.9469C7.19255 30.6178 7.16226 30.8866 7.35299 31.1201C7.93411 29.9437 8.27007 29.903 8.86139 29.6955L8.19099 30.3659C7.8692 30.761 8.04122 31.6033 8.44239 32.2933C8.4447 31.6013 8.41789 31.1964 8.60999 30.6173C8.87025 30.182 9.22525 30.0713 9.72289 29.9469L9.57471 30.8667C9.65646 31.1272 9.55726 32.6698 9.87107 32.4967C10.1433 30.8361 10.2909 30.3022 11.124 29.6117C10.6869 31.5454 10.6403 32.4999 11.2916 33.7179C11.3733 32.4019 11.5522 31.8117 12.0458 30.9525C11.8916 32.0509 11.9502 32.6414 12.381 33.6341C12.4918 32.2003 12.8263 31.597 13.5542 30.6173C13.3369 32.1186 13.5083 32.7998 14.057 33.8855C14.0852 32.5928 14.1565 31.8579 14.8112 30.4497C14.6667 31.2399 14.6998 31.6803 14.9788 32.4609C15.0804 31.4227 15.125 30.819 15.5654 30.3659C15.4625 30.7767 15.5859 30.9421 15.9006 31.2039Z" fill="#FF9EB5"/>
<path d="M13.8712 27.1505C15.75 27.0511 15.748 27.3901 16.9739 27.6916C16.0019 28.2856 15.4448 28.6502 14.2633 29.7651L14.9882 28.5165C14.1508 28.8162 13.7377 29.0585 13.2355 29.7995C13.3955 29.3606 13.4866 29.1158 13.6105 28.645C12.7117 29.0337 12.3881 29.3566 11.9201 29.996C12.1132 29.3577 12.1309 29.144 12.0863 28.8857C11.4256 29.322 11.0756 29.6713 10.5501 30.8127C10.3626 30.2124 10.3908 29.8647 10.8278 29.2122C10.2427 29.5421 9.99343 29.8601 9.6174 30.543C9.63684 29.8914 9.68484 29.5332 10.1663 28.9664C9.63278 29.0684 9.36957 29.2579 8.93731 29.733C9.09126 29.3107 9.21332 29.1156 9.55618 28.9126C8.91431 29.0336 8.29154 29.2364 7.43328 29.6134C7.43328 29.6134 9.05438 28.5002 9.72259 28.187C10.3758 27.8808 11.2297 27.5946 11.1969 27.6116C11.2896 27.5739 12.1679 27.2407 13.8712 27.1505Z" fill="#FFAFC2"/>
<path d="M16.9739 27.6916C15.748 27.3901 15.75 27.0511 13.8712 27.1505C11.9924 27.25 11.1174 27.6452 11.1932 27.6133C11.269 27.5814 10.3908 27.8737 9.72259 28.187C9.05438 28.5002 7.43328 29.6134 7.43328 29.6134C8.29154 29.2364 8.91431 29.0336 9.55618 28.9126C9.21332 29.1156 9.09126 29.3107 8.93731 29.733C9.36957 29.2579 9.63278 29.0684 10.1663 28.9664C9.68484 29.5332 9.63684 29.8914 9.6174 30.543C9.99343 29.8601 10.2427 29.5421 10.8278 29.2122C10.3908 29.8647 10.3626 30.2124 10.5501 30.8127C11.0756 29.6713 11.4256 29.322 12.0863 28.8857C12.1309 29.144 12.1132 29.3577 11.9201 29.996C12.3881 29.3566 12.7117 29.0337 13.6105 28.645C13.4866 29.1158 13.3955 29.3606 13.2355 29.7995C13.7377 29.0585 14.1508 28.8162 14.9882 28.5165L14.2633 29.7651C15.4448 28.6502 16.0019 28.2856 16.9739 27.6916Z" stroke="#FFAFC2" stroke-width="0.0290506"/>
<path d="M42.8912 36.6743V23.8584H44.251V36.6743H42.8912ZM43.7853 30.8811V29.633H50.659V30.8811H43.7853ZM43.7853 25.1064V23.8584H50.9757V25.1064H43.7853ZM53.4603 36.6743V23.8584H54.8201V36.6743H53.4603ZM54.3544 36.6743V35.4262H61.4143V36.6743H54.3544ZM62.3153 36.6743L67.5683 23.8584H68.5929L73.79 36.6743H72.3184L67.7919 25.3486H68.3321L63.7683 36.6743H62.3153ZM64.7183 33.3399V32.1291H71.4243V33.3399H64.7183ZM75.981 36.6743V23.8584H76.9496L82.4821 32.9301H81.7928L87.3253 23.8584H88.2939V36.6743H86.9155V26.2427L87.2322 26.3173L82.6125 33.8988H81.6438L77.0241 26.3173L77.3408 26.2427V36.6743H75.981ZM91.5526 36.6743V23.8584H92.9125V36.6743H91.5526ZM96.1914 36.6743V23.8584H97.16L97.5512 25.479V36.6743H96.1914ZM105.058 36.6743L96.9551 25.6839L97.16 23.8584L105.244 34.8488L105.058 36.6743ZM105.058 36.6743L104.648 35.1282V23.8584H106.027V36.6743H105.058ZM115.082 36.842C114.176 36.842 113.331 36.6743 112.549 36.339C111.767 36.0037 111.084 35.538 110.5 34.9419C109.916 34.3458 109.463 33.6504 109.14 32.8556C108.817 32.0484 108.656 31.1791 108.656 30.2477C108.656 29.3163 108.817 28.4532 109.14 27.6585C109.475 26.8637 109.935 26.1682 110.518 25.5721C111.102 24.9636 111.791 24.4917 112.586 24.1564C113.381 23.8211 114.244 23.6535 115.175 23.6535C116.206 23.6535 117.15 23.8584 118.007 24.2682C118.876 24.678 119.59 25.2555 120.149 26.0006L119.199 26.9506C118.752 26.3173 118.181 25.8329 117.485 25.4976C116.79 25.1499 116.02 24.9761 115.175 24.9761C114.17 24.9761 113.282 25.2058 112.512 25.6653C111.742 26.1124 111.139 26.7333 110.705 27.5281C110.283 28.3228 110.071 29.2356 110.071 30.2663C110.071 31.2847 110.283 32.1912 110.705 32.986C111.139 33.7808 111.729 34.4079 112.474 34.8674C113.232 35.3145 114.089 35.538 115.045 35.538C116.001 35.538 116.827 35.3455 117.523 34.9605C118.23 34.5756 118.771 34.0167 119.143 33.284C119.528 32.5514 119.727 31.6696 119.739 30.6389L120.522 31.2164H114.915V29.9683H121.155V30.1732C121.155 31.6138 120.894 32.8308 120.373 33.8243C119.863 34.8177 119.156 35.5691 118.249 36.0782C117.342 36.5874 116.287 36.842 115.082 36.842ZM129.544 36.8606C128.637 36.8606 127.793 36.6929 127.01 36.3576C126.241 36.0099 125.564 35.538 124.98 34.9419C124.396 34.3334 123.937 33.6318 123.602 32.837C123.279 32.0298 123.117 31.1667 123.117 30.2477C123.117 29.3163 123.279 28.4532 123.602 27.6585C123.924 26.8637 124.378 26.1682 124.961 25.5721C125.545 24.9761 126.222 24.5104 126.992 24.1751C127.762 23.8398 128.6 23.6721 129.507 23.6721C130.413 23.6721 131.251 23.8398 132.021 24.1751C132.804 24.5104 133.487 24.9761 134.07 25.5721C134.654 26.1682 135.107 26.8699 135.43 27.6771C135.753 28.4719 135.915 29.335 135.915 30.2663C135.915 31.1853 135.753 32.0484 135.43 32.8556C135.107 33.6504 134.654 34.3458 134.07 34.9419C133.499 35.538 132.829 36.0099 132.059 36.3576C131.289 36.6929 130.45 36.8606 129.544 36.8606ZM129.507 35.538C130.475 35.538 131.332 35.3083 132.077 34.8488C132.835 34.3893 133.425 33.7622 133.847 32.9674C134.282 32.1726 134.499 31.266 134.499 30.2477C134.499 29.4902 134.375 28.7948 134.126 28.1614C133.878 27.5156 133.53 26.9568 133.083 26.4849C132.636 26.0006 132.108 25.628 131.5 25.3672C130.904 25.1064 130.239 24.9761 129.507 24.9761C128.55 24.9761 127.693 25.2058 126.936 25.6653C126.191 26.1124 125.601 26.7333 125.166 27.5281C124.744 28.3228 124.533 29.2294 124.533 30.2477C124.533 31.0052 124.657 31.7069 124.906 32.3527C125.154 32.9984 125.502 33.5635 125.949 34.0478C126.396 34.5197 126.924 34.886 127.532 35.1468C128.141 35.4076 128.799 35.538 129.507 35.538Z" fill="url(#paint4_angular_2108_440)"/>
<defs>
<radialGradient id="paint0_angular_2108_440" cx="0" cy="0" r="1" gradientUnits="userSpaceOnUse" gradientTransform="translate(12.5857 34.993) rotate(90) scale(19.2533 10.1237)">
<stop offset="0.0729167" stop-color="#BC1B41"/>
<stop offset="1" stop-color="#F11045"/>
</radialGradient>
<radialGradient id="paint1_angular_2108_440" cx="0" cy="0" r="1" gradientUnits="userSpaceOnUse" gradientTransform="translate(12.4245 35.0856) rotate(90) scale(19.2533 10.1238)">
<stop offset="0.0575237" stop-color="#FAECEF"/>
<stop offset="1" stop-color="#F11045"/>
</radialGradient>
<radialGradient id="paint2_angular_2108_440" cx="0" cy="0" r="1" gradientUnits="userSpaceOnUse" gradientTransform="translate(12.4245 35.0856) rotate(90) scale(19.2533 10.1238)">
<stop offset="0.0575237" stop-color="#FAECEF"/>
<stop offset="1" stop-color="#F11045"/>
</radialGradient>
<radialGradient id="paint3_angular_2108_440" cx="0" cy="0" r="1" gradientUnits="userSpaceOnUse" gradientTransform="translate(12.4245 35.0856) rotate(90) scale(19.2533 10.1238)">
<stop offset="0.0575237" stop-color="#FAECEF"/>
<stop offset="1" stop-color="#F11045"/>
</radialGradient>
<radialGradient id="paint4_angular_2108_440" cx="0" cy="0" r="1" gradientUnits="userSpaceOnUse" gradientTransform="translate(89.252 30.1743) rotate(90) scale(13.5 48)">
<stop stop-color="#A6106A"/>
<stop offset="1" stop-color="#FF005E"/>
</radialGradient>
</defs>
</svg>
