<svg width="179" height="53" viewBox="0 0 179 53" fill="none" xmlns="http://www.w3.org/2000/svg">
<path fill-rule="evenodd" clip-rule="evenodd" d="M38.4549 30.7491C39.0058 29.0971 39.3041 27.3296 39.3041 25.4925C39.3041 21.5135 37.9047 17.8614 35.5711 15.0015C35.4082 13.1808 34.825 11.4534 33.8658 9.80818C33.8571 9.79321 33.8493 9.77721 33.8413 9.76087C33.8054 9.68728 33.7662 9.60699 33.6255 9.58439C33.4913 10.5249 33.1413 11.384 32.668 12.2112C29.8915 10.1237 26.4393 8.88654 22.6982 8.88654C19.2915 8.88654 16.1244 9.91237 13.489 11.672C12.3375 11.1506 11.1979 10.6034 10.0784 10.0129C9.47187 9.69302 8.89868 9.3199 8.27983 8.88655C8.18201 9.25997 8.20157 9.59675 8.24061 9.92265C8.45059 11.6754 9.34116 12.8977 11.0415 13.5156C11.0788 13.5291 11.1159 13.5428 11.1529 13.5566C10.9854 13.7187 10.8213 13.8842 10.6607 14.0532C10.1396 13.9144 9.61224 13.7969 9.0786 13.7014C8.96096 13.8503 8.98473 13.9803 9.00758 14.1054C9.00954 14.1161 9.0115 14.1268 9.01336 14.1375C9.10402 14.658 9.19507 15.1783 9.28633 15.6987C7.27789 18.4444 6.09222 21.83 6.09222 25.4925C6.09222 34.6637 13.527 42.0984 22.6982 42.0984C24.4214 42.0984 26.0833 41.8359 27.6462 41.3488C27.7805 41.6262 27.8768 41.9201 27.8809 42.2555C28.0121 41.9138 28.0498 41.5752 27.9998 41.2341C28.0797 41.2073 28.1592 41.1798 28.2385 41.1517C28.2448 41.1557 28.2511 41.1595 28.2575 41.1628C28.7958 41.4455 29.3546 41.5416 29.9528 41.3886C30.2354 41.3163 30.5234 41.2625 30.8111 41.2127C31.2375 41.139 31.5883 41.26 31.8392 41.6406C31.8299 41.6591 31.8205 41.6776 31.8112 41.6962C31.552 42.2099 31.2903 42.7285 31.5603 43.3223C31.6549 43.5305 31.8236 43.6753 32.0642 43.7265C32.1014 43.6218 32.0724 43.5427 32.0453 43.4685C32.0275 43.4198 32.0104 43.3732 32.0133 43.3229C32.0146 43.3003 32.0132 43.276 32.0118 43.2517C32.007 43.17 32.0021 43.0873 32.0998 43.0605C32.4925 42.9528 32.574 42.6423 32.6551 42.3332C32.6695 42.2782 32.6839 42.2232 32.7001 42.1695C32.7123 42.1289 32.7205 42.0871 32.7287 42.0452C32.747 41.9516 32.7654 41.8577 32.8289 41.7766C32.958 41.7641 33.0739 41.8061 33.1892 41.848C33.2403 41.8665 33.2912 41.885 33.3432 41.8987C33.595 41.965 33.8921 42.0411 34.0878 41.9119C34.4476 41.6743 34.7046 41.6594 34.9579 42.0694C34.9705 41.4516 34.5769 41.196 34.1109 40.9994C34.6175 40.4834 34.8327 40.2642 35.0848 40.2065C35.2711 40.1639 35.4775 40.2094 35.8364 40.2884C35.6409 39.6388 34.661 39.4227 34.069 39.8988C33.2911 40.5243 31.9454 40.4453 31.224 39.7456C31.4986 39.581 31.7681 39.4086 32.0322 39.2288C32.0183 39.278 32.0073 39.3284 31.9994 39.3803C31.9557 39.6705 32.0418 39.9203 32.3598 40.109C32.347 39.7703 32.5256 39.6605 32.7924 39.5765C33.0648 39.4909 33.1715 39.2121 33.2588 38.9596C33.346 38.7073 33.4809 38.6432 33.7154 38.7762L33.7191 38.7783C34.0158 38.9465 34.3002 39.1077 34.6818 39.0038C34.811 38.9685 34.8924 39.0642 34.9882 39.1768C35.0506 39.2501 35.1192 39.3307 35.2111 39.3869C35.2594 38.9168 35.0056 38.631 34.7568 38.3509L34.7531 38.3468C34.7983 38.3132 34.8432 38.2789 34.8878 38.2447C35.3135 37.9188 35.7238 37.6047 36.2937 38.039C36.2766 37.4152 35.4451 37.1042 34.9551 37.3391C34.7143 37.4546 34.4464 37.5026 34.1761 37.4931C35.5326 36.1953 36.6695 34.6698 37.5253 32.9779C37.6217 33.1219 37.6883 33.2869 37.7137 33.4786C37.762 33.8434 37.9552 33.9039 38.2723 33.8183C38.6628 33.713 38.9225 33.4703 39.0414 33.0958C39.2436 32.4586 39.1427 31.8674 38.7035 31.3509C38.5485 31.1687 38.4648 30.9877 38.4549 30.7491ZM38.2358 31.3651C38.3128 31.1616 38.3858 30.9563 38.4549 30.7491C38.4534 30.712 38.4536 30.6735 38.4556 30.6334C38.4818 30.1163 38.225 29.6765 37.8667 29.3152C36.9255 28.3664 35.7709 27.7971 34.4696 27.5457C33.533 27.3648 32.9303 26.8031 32.5029 26.0112C32.1892 25.43 32.263 24.8363 32.5293 24.2545C32.8156 23.6289 33.1715 23.0421 33.5924 22.5004C34.765 20.991 35.345 19.2645 35.5464 17.3878C35.6337 16.5747 35.6408 15.7796 35.5711 15.0015C34.7201 13.9585 33.7449 13.0209 32.668 12.2112C32.581 12.3632 32.4899 12.5141 32.3952 12.6642C31.5519 13.9963 30.4526 15.0692 29.3524 16.143C29.3065 16.1878 29.2606 16.2326 29.2148 16.2774C28.1133 17.3533 27.0806 18.4885 26.3599 19.8683C26.1103 20.3464 25.9545 20.8491 25.8985 21.3841C25.8768 21.5912 25.9117 21.7936 25.9982 21.976C26.8221 23.7131 27.934 25.216 29.5633 26.2954C30.6725 27.0302 31.8838 27.4736 33.2067 27.6566C34.5 27.8356 35.7469 28.1859 36.846 28.9275C37.4422 29.3297 37.8975 29.8492 38.0616 30.5695C38.0666 30.5914 38.0726 30.6145 38.0788 30.6381C38.1179 30.7884 38.1636 30.9637 38.0037 31.0594C37.8571 31.1472 37.7223 31.0494 37.597 30.9584C37.5729 30.9409 37.5492 30.9237 37.5257 30.9081C37.3254 30.7745 37.2568 30.5611 37.188 30.3468L37.1833 30.3322C37.0479 29.9115 36.7815 29.6274 36.3056 29.545C36.5868 29.799 36.7668 30.0668 36.6708 30.467C36.6381 30.6033 36.8125 30.7167 36.9502 30.7981C37.0923 30.8821 37.2302 30.9734 37.3794 31.0723C37.446 31.1164 37.5148 31.162 37.5873 31.2092C37.3237 31.3898 37.0792 31.3496 36.8421 31.2794C36.329 31.1275 36.2931 31.1469 36.2794 31.7033C35.6071 31.7071 35.0046 31.465 34.3755 31.1797C34.3233 31.4668 34.1225 31.4765 33.8959 31.4875C33.8898 31.4878 33.8837 31.4881 33.8776 31.4884C33.4085 31.5116 32.9434 31.5792 32.5014 31.7416C32.5144 32.1741 31.5637 32.7006 30.9204 32.5916C30.9829 32.5468 31.0429 32.5046 31.1008 32.4638C31.2273 32.3749 31.3442 32.2927 31.4564 32.2047C31.6137 32.0812 31.7585 31.9429 31.8848 31.6534L31.8754 31.6576C31.1765 31.9699 30.5516 32.2491 29.8423 32.0996C29.8607 31.9367 29.9554 31.9027 30.0406 31.8721C30.0612 31.8647 30.0812 31.8576 30.0995 31.8488C30.4001 31.7046 30.6882 31.5375 30.9205 31.3013C30.9695 31.2515 31.0177 31.2005 31.0658 31.1496C31.3745 30.8228 31.6814 30.4978 32.2105 30.4792C31.8812 30.1945 31.5343 30.249 31.196 30.3022C30.9534 30.3404 30.7337 30.4467 30.5138 30.5532C30.4697 30.5745 30.4256 30.5959 30.3813 30.6167C29.9334 30.827 29.469 30.9629 28.9573 30.769C29.4633 30.5973 29.8792 30.2915 30.2941 29.9864C30.4876 29.8441 30.6808 29.702 30.8829 29.5737C31.4131 29.2371 32.0372 29.2094 32.655 29.2234C32.6789 29.2239 32.7035 29.2276 32.7285 29.2313C32.8141 29.244 32.9051 29.2576 32.9922 29.1509C32.8019 29.0214 32.588 28.9828 32.3781 28.9448C32.3107 28.9326 32.2437 28.9205 32.178 28.9055C31.9882 28.8621 31.7959 28.8291 31.6036 28.7961C31.3699 28.7561 31.1363 28.716 30.9074 28.6572C30.5668 28.5698 30.253 28.4093 30.0652 27.9561C30.5628 28.1259 30.9897 28.2087 31.4347 28.1882C31.737 28.1743 32.0402 28.1776 32.3457 28.1809C32.4804 28.1824 32.6156 28.1839 32.7514 28.1839C32.7335 28.0256 32.6595 28.0087 32.5903 27.9929C32.5863 27.992 32.5824 27.991 32.5785 27.9901C29.3563 27.2288 27.2588 25.1775 25.8997 22.2558C25.7123 21.8529 25.6018 21.4291 25.4915 21.0063C25.4012 20.6599 25.311 20.3142 25.1789 19.981C24.5428 18.3773 23.4172 17.1512 22.0945 16.0854C20.5876 14.8712 18.8936 13.9796 17.1135 13.2366C15.8987 12.7296 14.6874 12.2147 13.489 11.672C12.6538 12.2296 11.872 12.8609 11.1529 13.5566C12.4434 14.039 13.6307 14.7174 14.6996 15.6042C13.3977 14.9454 12.0515 14.4235 10.6607 14.0532C10.1684 14.5711 9.70913 15.1207 9.28633 15.6987C9.37909 16.2276 9.47205 16.7565 9.56501 17.2853L9.58964 17.4254C9.80359 18.6425 10.563 19.3688 11.8163 19.5113C13.1382 19.6617 14.43 19.9086 15.619 20.5389C15.641 20.5505 15.6631 20.5621 15.6852 20.5737C15.9429 20.7091 16.2022 20.8453 16.3877 21.1116C15.3355 20.7555 14.2486 20.5632 13.1652 20.3715C12.1575 20.1932 11.1528 20.0154 10.1819 19.7069C10.0733 19.8005 10.1067 19.8815 10.1362 19.9529C10.1394 19.9607 10.1426 19.9684 10.1455 19.976C10.4802 20.8395 10.8755 21.674 11.31 22.4934C11.8586 23.5278 12.7597 24.0099 13.8577 24.2288C14.2591 24.3088 14.6665 24.345 15.0739 24.3812C15.6026 24.4282 16.1311 24.4752 16.6459 24.6179C16.6778 24.6267 16.7107 24.6335 16.7439 24.6402C16.8692 24.6657 16.9981 24.6919 17.088 24.8367C16.4321 24.6753 15.7609 24.6969 15.0872 24.7186C14.2465 24.7456 13.4017 24.7728 12.5772 24.4449C12.6493 24.5262 12.721 24.6079 12.7927 24.6896C12.9503 24.8692 13.108 25.0489 13.27 25.2246C13.4175 25.3846 13.5641 25.5455 13.7107 25.7063C14.1287 26.1649 14.5466 26.6235 14.9848 27.0621C15.6772 27.7551 16.5651 27.9493 17.5104 27.9028C18.6089 27.8487 19.6965 27.8762 20.7598 28.1899C20.9272 28.2393 21.0871 28.3143 21.2448 28.4162C20.3038 28.1343 19.3602 28.2084 18.4162 28.2826C17.8762 28.325 17.336 28.3675 16.7961 28.3433C16.7901 28.4818 16.8807 28.5453 16.9693 28.6074C16.9929 28.624 17.0164 28.6405 17.0379 28.6583C17.9025 29.3738 18.8979 29.7776 20.0099 29.9325C20.7667 30.0379 21.5093 30.2179 22.1891 30.587C22.356 30.6776 22.522 30.7765 22.6692 30.8952C23.3511 31.445 23.3841 32.1166 22.7341 32.7034C21.898 33.4582 20.877 33.6674 19.7883 33.5829C19.0753 33.5276 18.3863 33.346 17.7405 33.0252C17.7361 33.023 17.7318 33.0208 17.7273 33.0185C17.6661 32.9874 17.5972 32.9523 17.4956 33.0427C18.128 33.6702 18.8676 34.1103 19.7045 34.4106C19.1802 34.742 17.7258 34.7285 16.7413 34.4599C15.7314 34.1843 14.9037 33.6326 14.2127 32.8368C14.1943 33.2601 14.3666 33.6159 14.5653 34.0265C14.5852 34.0676 14.6054 34.1093 14.6257 34.1516C13.3572 33.791 12.2059 33.3682 11.2219 32.5485C11.6248 33.8765 12.4666 34.8593 13.722 35.6495C12.9535 35.4779 12.3125 35.2608 11.6868 34.9642C12.2312 35.9645 12.9991 36.7094 14.1139 37.1492C13.8361 37.2135 13.5928 37.1701 13.3554 37.1277C13.2167 37.1029 13.08 37.0785 12.9395 37.0762C14.0159 38.8685 15.7511 39.1263 17.63 39.0646C16.6498 39.3332 15.6722 39.4699 14.6725 39.0281C14.825 39.3966 15.6889 39.8607 16.7267 40.1594C17.4871 40.3783 18.2617 40.497 19.0561 40.5117C19.8569 40.5266 20.6532 40.4674 21.4559 40.3963C21.4794 40.5074 21.4415 40.6008 21.4012 40.7003C21.3529 40.8195 21.3011 40.9474 21.3467 41.1248C21.8779 40.4528 22.5935 40.2036 23.3195 39.9508C23.5435 39.8728 23.7686 39.7945 23.9895 39.7032C23.9852 39.8468 23.9125 39.9492 23.8427 40.0474C23.7974 40.1113 23.7532 40.1734 23.7302 40.2439C23.8112 40.3335 23.8722 40.2887 23.928 40.2477C23.9404 40.2386 23.9526 40.2297 23.9646 40.2225C24.4601 39.9258 24.8148 39.5085 25.0502 38.9823C25.2254 38.5908 25.4756 38.2722 25.9943 38.1785C26.0031 38.3323 26.0062 38.4868 26.0093 38.6409C26.0235 39.346 26.0375 40.0429 26.5869 40.6241C26.6714 40.4814 26.676 40.3292 26.6807 40.1746C26.686 40.0004 26.6914 39.8233 26.8115 39.6538C26.8998 40.0741 27.1161 40.4325 27.3312 40.789C27.4425 40.9733 27.5534 41.1571 27.6462 41.3488C27.7646 41.3118 27.8825 41.2736 27.9998 41.2341C27.9923 41.1832 27.9829 41.1321 27.9715 41.081C28.0763 41.0348 28.1406 41.0816 28.2005 41.1252C28.2133 41.1345 28.2258 41.1436 28.2385 41.1517C29.2859 40.7811 30.2851 40.3084 31.224 39.7456C31.207 39.7291 31.1903 39.7123 31.174 39.6951C31.1715 39.6924 31.169 39.6896 31.1665 39.6868C31.1605 39.6801 31.1545 39.6733 31.1474 39.6679C30.7026 39.3269 30.365 38.9233 30.3504 38.3278C30.3495 38.2916 30.3326 38.2533 30.3145 38.2207C30.307 38.2072 30.291 38.1983 30.2751 38.1894C30.2683 38.1857 30.2616 38.1819 30.2555 38.1778C30.1719 38.1693 30.1617 38.2188 30.1509 38.2711C30.1461 38.2944 30.1411 38.3181 30.1297 38.3376C30.1123 38.2625 30.0963 38.1875 30.0804 38.1129C30.0443 37.9441 30.0087 37.7773 29.959 37.6147C29.9506 37.5873 29.9424 37.5596 29.9342 37.5319C29.873 37.3246 29.8105 37.113 29.6429 36.9525C29.5564 37.0152 29.5707 37.0814 29.5854 37.1487C29.5962 37.1986 29.6072 37.2491 29.5773 37.2994C29.5106 37.1846 29.4706 37.058 29.4297 36.9282C29.3642 36.7203 29.296 36.5041 29.1107 36.3146C29.0895 36.454 29.0797 36.5887 29.07 36.7212C29.0489 37.011 29.0285 37.2909 28.8913 37.5888C28.8913 37.3668 28.8488 37.154 28.8076 36.9478C28.7288 36.5539 28.6549 36.1841 28.8916 35.82C29.0452 35.8073 29.0975 35.8836 29.142 35.9594C29.7902 37.0645 30.8047 37.5904 32.0354 37.7654C32.2266 37.7926 32.3727 37.8679 32.4896 38.0108C32.633 38.1862 32.685 38.347 32.4817 38.5355C32.2743 38.7278 32.1089 38.958 32.0322 39.2288C32.7947 38.7097 33.5117 38.1287 34.1761 37.4931C33.5042 37.4697 32.8172 37.0917 32.4924 36.5147C32.4732 36.4806 32.4538 36.4467 32.4345 36.4129C32.2146 36.0279 32.0041 35.6594 32.1578 35.1797C32.1971 35.057 32.1677 34.9015 32.0453 34.7712C31.9837 34.8262 31.9714 34.9033 31.9593 34.9788C31.9463 35.0604 31.9336 35.1402 31.8593 35.1884C31.8595 35.0821 31.8404 34.9758 31.8216 34.8711C31.7807 34.6435 31.741 34.4228 31.9031 34.2228C31.8247 34.1573 31.781 34.1756 31.7404 34.1926C31.7148 34.2033 31.6905 34.2135 31.6596 34.2018C31.6652 34.1876 31.671 34.1734 31.6768 34.1593C31.6892 34.1289 31.7016 34.0986 31.7118 34.0677C31.9064 33.4755 32.3333 33.0922 32.8654 32.8097C33.6458 32.3953 34.4538 32.0504 35.3591 32.0706C35.9202 32.0831 36.476 32.174 36.9683 32.4747C37.1921 32.6114 37.3887 32.7736 37.5253 32.9779C37.5728 32.8841 37.6193 32.7898 37.6651 32.695C37.8068 32.8505 37.9372 33.0136 38.0564 33.1878C38.0151 32.9077 37.9095 32.6808 37.7659 32.4818C37.7995 32.4096 37.8326 32.337 37.8652 32.2642C37.8923 32.2964 37.9185 32.3295 37.9435 32.3637C38.164 32.6648 38.3424 32.9753 38.3188 33.3667C38.7121 33.1916 38.8721 32.8625 38.8144 32.3595C38.7919 32.2992 38.7724 32.2437 38.7541 32.1918C38.7125 32.0737 38.6776 31.9746 38.6297 31.8823C38.4621 31.5595 38.3756 31.4061 38.2358 31.3651ZM38.2358 31.3651C38.1208 31.6692 37.9972 31.969 37.8652 32.2642C37.7327 32.1072 37.578 31.9727 37.4228 31.8378C37.3286 31.756 37.2342 31.6739 37.1445 31.5865C37.2027 31.5747 37.2594 31.5649 37.3145 31.5554C37.4298 31.5355 37.5386 31.5168 37.6421 31.4822C37.9451 31.381 38.1115 31.3286 38.2358 31.3651ZM37.7659 32.4818C37.5842 32.23 37.3416 32.0231 37.092 31.8101C36.9177 31.6615 36.74 31.5099 36.5771 31.3381C36.5058 31.6301 36.6341 31.7546 36.7556 31.8726C36.7732 31.8897 36.7907 31.9067 36.8075 31.9241C37.1293 32.17 37.4149 32.4206 37.6651 32.695C37.6992 32.6242 37.7328 32.5532 37.7659 32.4818Z" fill="url(#paint0_linear_2108_408)"/>
<path d="M44.0882 19.428H49.2919V25.0369H53.1362V19.428H58.349L58.34 32.8065H53.1362V27.0986H49.2919V32.8065H44.0882V19.428ZM66.3001 22.8042L64.7516 19.428H70.2344L76.7886 32.8155H70.9096L69.9193 30.6728H64.6435L63.6622 32.8155H61.3844L66.3001 22.8042ZM68.974 28.6111L67.2814 24.9379L65.5978 28.6111H68.974ZM78.1135 19.428H83.8124L86.0991 28.0259L87.5666 22.9572L86.4773 19.428H92.1762L94.2829 28.0259L96.4976 19.428L98.8474 19.419L94.8411 32.8065L90.6006 32.7975L88.62 26.3784L86.6573 32.8065L82.4169 32.7975L78.1135 19.428ZM101.514 19.428H106.717V27.1796L112.506 19.428H115.108L110.841 25.1719L116.432 32.8155H110.571L107.582 28.6111L106.717 29.7995V32.8065H101.514V19.428ZM125.627 29.8355C126.263 30.1596 126.929 30.4027 127.625 30.5648C128.322 30.7268 128.97 30.8078 129.57 30.8078C130.26 30.8078 130.764 30.7088 131.083 30.5107C131.407 30.3127 131.569 30.0426 131.569 29.7005C131.569 29.5924 131.548 29.4814 131.506 29.3674C131.47 29.2533 131.395 29.1423 131.281 29.0342C131.173 28.9202 131.019 28.8092 130.821 28.7011C130.629 28.5871 130.377 28.4761 130.065 28.368L128.454 27.8188C127.301 27.4227 126.434 26.8885 125.852 26.2163C125.27 25.5381 124.978 24.7338 124.978 23.8035C124.978 23.2033 125.105 22.6271 125.357 22.0749C125.609 21.5167 125.99 21.0276 126.5 20.6074C127.01 20.1813 127.652 19.8422 128.427 19.5901C129.207 19.338 130.119 19.212 131.164 19.212C131.68 19.212 132.175 19.242 132.649 19.302C133.123 19.362 133.567 19.44 133.981 19.5361C134.402 19.6321 134.786 19.7431 135.134 19.8692C135.482 19.9892 135.788 20.1093 136.052 20.2293L135.08 21.9849C134.888 21.8648 134.684 21.7598 134.468 21.6698C134.258 21.5797 134.045 21.5047 133.828 21.4447C133.618 21.3847 133.411 21.3397 133.207 21.3097C133.003 21.2796 132.817 21.2646 132.649 21.2646C132.361 21.2646 132.109 21.3037 131.893 21.3817C131.677 21.4537 131.494 21.5527 131.344 21.6788C131.2 21.7988 131.089 21.9369 131.01 22.0929C130.938 22.243 130.902 22.393 130.902 22.5431C130.902 22.6751 130.932 22.8042 130.992 22.9302C131.059 23.0502 131.167 23.1703 131.317 23.2903C131.473 23.4044 131.674 23.5214 131.92 23.6414C132.172 23.7555 132.484 23.8755 132.856 24.0016L133.936 24.3617C135.107 24.7518 136.001 25.289 136.619 25.9732C137.238 26.6574 137.547 27.4857 137.547 28.458C137.547 29.1183 137.397 29.7275 137.097 30.2857C136.802 30.8438 136.361 31.327 135.773 31.7351C135.185 32.1373 134.453 32.4524 133.576 32.6805C132.706 32.9025 131.695 33.0136 130.542 33.0136C129.99 33.0136 129.456 32.9836 128.94 32.9235C128.43 32.8695 127.928 32.7855 127.436 32.6715C126.95 32.5574 126.47 32.4134 125.996 32.2393C125.522 32.0653 125.047 31.8612 124.573 31.6271L125.627 29.8355ZM140.096 26.0903C140.096 25.0759 140.258 24.1486 140.582 23.3083C140.906 22.462 141.389 21.7358 142.032 21.1296C142.674 20.5234 143.475 20.0522 144.435 19.7161C145.396 19.38 146.512 19.212 147.785 19.212C149.057 19.212 150.173 19.38 151.134 19.7161C152.094 20.0522 152.895 20.5234 153.537 21.1296C154.18 21.7358 154.663 22.462 154.987 23.3083C155.311 24.1486 155.473 25.0759 155.473 26.0903C155.473 27.1166 155.311 28.0559 154.987 28.9082C154.663 29.7605 154.18 30.4897 153.537 31.0959C152.895 31.7021 152.094 32.1733 151.134 32.5094C150.173 32.8455 149.057 33.0136 147.785 33.0136C146.512 33.0136 145.396 32.8455 144.435 32.5094C143.475 32.1733 142.674 31.7021 142.032 31.0959C141.389 30.4897 140.906 29.7605 140.582 28.9082C140.258 28.0559 140.096 27.1166 140.096 26.0903ZM147.785 31.1499C148.145 31.1499 148.463 31.0869 148.739 30.9609C149.015 30.8348 149.246 30.5888 149.432 30.2226C149.618 29.8565 149.759 29.3433 149.855 28.6831C149.951 28.0229 149.999 27.1586 149.999 26.0903C149.999 25.0339 149.951 24.1786 149.855 23.5244C149.759 22.8702 149.618 22.363 149.432 22.0029C149.246 21.6428 149.015 21.3997 148.739 21.2736C148.463 21.1476 148.145 21.0846 147.785 21.0846C147.424 21.0846 147.103 21.1476 146.821 21.2736C146.545 21.3997 146.314 21.6428 146.128 22.0029C145.942 22.363 145.801 22.8702 145.705 23.5244C145.609 24.1786 145.561 25.0339 145.561 26.0903C145.561 27.1586 145.609 28.0229 145.705 28.6831C145.801 29.3433 145.942 29.8565 146.128 30.2226C146.314 30.5888 146.545 30.8348 146.821 30.9609C147.103 31.0869 147.424 31.1499 147.785 31.1499ZM158.157 26.1263C158.157 25.4901 158.238 24.8778 158.401 24.2897C158.569 23.6955 158.812 23.1433 159.13 22.6331C159.448 22.1229 159.838 21.6578 160.3 21.2376C160.762 20.8175 161.288 20.4574 161.876 20.1573C162.47 19.8572 163.124 19.6261 163.838 19.464C164.553 19.296 165.321 19.212 166.143 19.212C166.671 19.212 167.175 19.245 167.656 19.311C168.142 19.377 168.598 19.47 169.024 19.5901C169.45 19.7041 169.843 19.8392 170.203 19.9952C170.57 20.1453 170.9 20.3043 171.194 20.4724L170.42 21.9849C170.083 21.8228 169.699 21.6878 169.267 21.5797C168.841 21.4657 168.397 21.4087 167.935 21.4087C167.317 21.4087 166.743 21.5197 166.215 21.7418C165.687 21.9639 165.231 22.279 164.847 22.6871C164.463 23.0953 164.159 23.5904 163.937 24.1726C163.721 24.7488 163.613 25.397 163.613 26.1173C163.613 26.8315 163.721 27.4797 163.937 28.0619C164.153 28.6381 164.451 29.1333 164.829 29.5474C165.213 29.9555 165.666 30.2737 166.188 30.5017C166.716 30.7238 167.287 30.8348 167.899 30.8348C168.331 30.8348 168.763 30.7838 169.195 30.6818C169.627 30.5738 170.023 30.4327 170.384 30.2587L171.158 31.7712C170.864 31.9452 170.537 32.1073 170.176 32.2573C169.816 32.4074 169.426 32.5424 169.006 32.6625C168.586 32.7765 168.136 32.8665 167.656 32.9325C167.175 32.9986 166.671 33.0316 166.143 33.0316C164.913 33.0316 163.802 32.8515 162.812 32.4914C161.828 32.1253 160.99 31.6301 160.3 31.0059C159.61 30.3757 159.079 29.6434 158.707 28.8092C158.341 27.9689 158.157 27.0746 158.157 26.1263Z" fill="url(#paint1_linear_2108_408)"/>
<defs>
<linearGradient id="paint0_linear_2108_408" x1="22.6982" y1="8.88654" x2="22.6982" y2="43.7265" gradientUnits="userSpaceOnUse">
<stop stop-color="#061736"/>
<stop offset="1" stop-color="#22476C"/>
</linearGradient>
<linearGradient id="paint1_linear_2108_408" x1="105.897" y1="17.8615" x2="105.897" y2="35.0405" gradientUnits="userSpaceOnUse">
<stop stop-color="#E17E58"/>
<stop offset="0.833333" stop-color="#FCB66B"/>
</linearGradient>
</defs>
</svg>
