<svg xmlns="http://www.w3.org/2000/svg" width="167" height="44" viewBox="0 0 167 44" fill="none">
  <path fill-rule="evenodd" clip-rule="evenodd" d="M116.748 8.49084C117.835 8.49084 118.567 9.03364 118.946 10.1187L123.803 24.1317L128.66 10.1187C129.038 9.03364 129.771 8.49084 130.858 8.49084C131.52 8.49084 132.099 8.71501 132.595 9.16334C133.092 9.61113 133.34 10.1657 133.34 10.8264C133.34 11.0623 133.281 11.3452 133.163 11.6756L126.072 32.1994C125.599 33.5439 124.843 34.2164 123.803 34.2164C122.763 34.2164 122.007 33.5439 121.534 32.1994L114.408 11.6756C114.313 11.3927 114.266 11.1093 114.266 10.8264C114.266 10.1657 114.514 9.61113 115.011 9.16334C115.507 8.71501 116.086 8.49084 116.748 8.49084Z" fill="url(#paint0_linear_2064_2377)"/>
  <path fill-rule="evenodd" clip-rule="evenodd" d="M146.459 15.8029C147.168 15.8029 147.741 16.0206 148.178 16.4567C148.616 16.8922 148.834 17.4638 148.834 18.1705V26.1566C148.834 28.3006 148.102 30.1083 146.636 31.5808C145.171 33.0534 143.363 33.7894 141.212 33.7894C139.037 33.7894 137.217 33.0592 135.752 31.5984C134.286 30.1382 133.554 28.324 133.554 26.1566V18.2409C133.554 17.5343 133.772 16.9573 134.21 16.5095C134.647 16.0622 135.22 15.8381 135.929 15.8381C136.638 15.8381 137.217 16.0622 137.666 16.5095C138.115 16.9573 138.34 17.5343 138.34 18.2409V26.1566C138.34 26.9577 138.618 27.635 139.173 28.1885C139.728 28.7419 140.408 29.019 141.212 29.019C142.015 29.019 142.689 28.7419 143.233 28.1885C143.776 27.635 144.048 26.9577 144.048 26.1566V18.1705C144.048 17.4638 144.272 16.8922 144.722 16.4567C145.171 16.0206 145.75 15.8029 146.459 15.8029Z" fill="url(#paint1_linear_2064_2377)"/>
  <path fill-rule="evenodd" clip-rule="evenodd" d="M92.289 15.8029C94.8333 15.8029 96.9774 16.668 98.7208 18.3978C100.464 20.1276 101.336 22.2631 101.336 24.8052V31.4068C101.336 32.113 101.112 32.6835 100.665 33.119C100.217 33.5545 99.6398 33.7723 98.9329 33.7723C98.226 33.7723 97.6549 33.5545 97.2189 33.119C96.7829 32.6835 96.5649 32.113 96.5649 31.4068V24.8052C96.5649 23.6283 96.1471 22.6281 95.3104 21.8046C94.4743 20.9805 93.4671 20.569 92.289 20.569C91.1109 20.569 90.1097 20.9805 89.2853 21.8046C88.4603 22.6281 88.0484 23.6283 88.0484 24.8052C88.0484 25.9821 88.4603 26.9881 89.2853 27.8234C90.1097 28.6592 91.1109 29.0766 92.289 29.0766C92.9959 29.0766 93.5729 29.2943 94.0207 29.7299C94.4684 30.1654 94.6923 30.7359 94.6923 31.4421C94.6923 32.1482 94.4684 32.7246 94.0207 33.1719C93.5729 33.6191 92.9959 33.8428 92.289 33.8428C89.7448 33.8428 87.6066 32.9717 85.8749 31.2302C84.1433 29.4886 83.2772 27.3468 83.2772 24.8052C83.2772 22.2631 84.1433 20.1276 85.8749 18.3978C87.6066 16.668 89.7448 15.8029 92.289 15.8029Z" fill="url(#paint2_linear_2064_2377)"/>
  <path fill-rule="evenodd" clip-rule="evenodd" d="M49.9446 8.54395H61.1507C61.8597 8.54395 62.4389 8.76224 62.8882 9.19829C63.3376 9.63435 63.562 10.206 63.562 10.9132C63.562 11.6198 63.3376 12.1973 62.8882 12.6456C62.4389 13.0934 61.8597 13.317 61.1507 13.317H57.8526V31.4199C57.8526 32.1271 57.6341 32.6987 57.1965 33.1348C56.7594 33.5714 56.1861 33.7891 55.4766 33.7891C54.7676 33.7891 54.1884 33.5714 53.7391 33.1348C53.2898 32.6987 53.0654 32.1271 53.0654 31.4199V13.317H49.9446C49.2356 13.317 48.6564 13.0934 48.2071 12.6456C47.7578 12.1973 47.5334 11.6198 47.5334 10.9132C47.5334 10.206 47.7578 9.63435 48.2071 9.19829C48.6564 8.76224 49.2356 8.54395 49.9446 8.54395Z" fill="url(#paint3_linear_2064_2377)"/>
  <path fill-rule="evenodd" clip-rule="evenodd" d="M49.9393 8.54395H56.2422L55.7373 8.81668C54.4022 9.71334 53.433 11.1085 53.0985 12.7332L53.0419 13.2941H49.9393C49.2319 13.2941 48.6538 13.071 48.2055 12.6253C47.7572 12.1797 47.5334 11.6054 47.5334 10.9014C47.5334 10.198 47.7572 9.62901 48.2055 9.19509C48.6538 8.76117 49.2319 8.54395 49.9393 8.54395Z" fill="url(#paint4_linear_2064_2377)"/>
  <path fill-rule="evenodd" clip-rule="evenodd" d="M93.3218 15.8562L94.1451 15.9293C95.8976 16.2549 97.4256 17.0683 98.7293 18.3695C100.467 20.1041 101.336 22.2465 101.336 24.7956V31.417C101.336 32.1252 101.113 32.6974 100.667 33.1345C100.22 33.5711 99.6451 33.7894 98.9403 33.7894C98.2361 33.7894 97.6666 33.5711 97.2317 33.1345C96.7973 32.6974 96.5804 32.1252 96.5804 31.417V24.7956L96.5109 24.0403L96.5125 24.0345C96.6199 23.5077 96.676 22.9622 96.676 22.4039C96.676 20.1698 95.7752 18.1469 94.3188 16.6829L93.3218 15.8562Z" fill="url(#paint5_linear_2064_2377)"/>
  <path fill-rule="evenodd" clip-rule="evenodd" d="M73.9849 15.8029C76.5591 15.8029 78.7432 16.7209 80.5384 18.5563C81.0107 19.0506 81.2469 19.5923 81.2469 20.1805C81.2469 20.957 80.9044 21.6044 80.2195 22.1222L75.685 26.535C75.1656 27.0292 74.6105 27.2763 74.0201 27.2763C73.3587 27.2763 72.7859 27.0292 72.3019 26.535C71.8178 26.0408 71.5758 25.4643 71.5758 24.8052C71.5758 24.217 71.8354 23.6636 72.3553 23.1458L74.9054 20.6395C74.5988 20.5925 74.2915 20.569 73.9849 20.569C72.8036 20.569 71.8002 20.9805 70.9736 21.8046C70.1471 22.6281 69.7335 23.6283 69.7335 24.8052C69.7335 25.9821 70.1471 26.9881 70.9736 27.8234C71.8002 28.6592 72.8036 29.0766 73.9849 29.0766H77.1377C77.8462 29.0766 78.4189 29.2943 78.8554 29.7299C79.2925 30.1654 79.511 30.7359 79.511 31.4421C79.511 32.1482 79.2925 32.7246 78.8554 33.1719C78.4189 33.6191 77.8462 33.8428 77.1377 33.8428H73.9849C71.4342 33.8428 69.2906 32.9717 67.5547 31.2302C65.8188 29.4886 64.9511 27.3468 64.9511 24.8052C64.9511 22.2631 65.8188 20.1276 67.5547 18.3978C69.2906 16.668 71.4342 15.8029 73.9849 15.8029Z" fill="url(#paint6_linear_2064_2377)"/>
  <path fill-rule="evenodd" clip-rule="evenodd" d="M74.9669 15.8562L75.8426 15.9379C77.6272 16.2832 79.1926 17.1468 80.5385 18.528C81.0108 19.0239 81.247 19.5672 81.247 20.1575C81.247 20.9367 80.9045 21.5863 80.2195 22.1061L75.6856 26.5339C75.1657 27.0297 74.6111 27.2779 74.0207 27.2779C73.3593 27.2779 72.7865 27.0297 72.3024 26.5339C71.8184 26.0381 71.5764 25.4595 71.5764 24.7982C71.5764 24.2079 71.836 23.6529 72.3559 23.133L73.8465 21.6626L74.4449 21.1689L74.8718 20.6523L74.906 20.6181L74.9002 20.6176L74.9589 20.5466C75.4125 19.8751 75.6775 19.0655 75.6775 18.1939C75.6775 17.6132 75.5595 17.0598 75.3468 16.5564L74.9669 15.8562Z" fill="url(#paint7_linear_2064_2377)"/>
  <path fill-rule="evenodd" clip-rule="evenodd" d="M116.753 8.49084C117.842 8.49084 118.577 9.03364 118.955 10.1187L123.822 24.1317L123.866 24.0057L123.942 24.3798C124.371 25.3902 125.375 26.099 126.546 26.099C126.937 26.099 127.308 26.0205 127.646 25.878L128.478 25.3192L126.096 32.1994C125.622 33.5439 124.865 34.2164 123.822 34.2164C122.78 34.2164 122.023 33.5439 121.549 32.1994L114.408 11.6756C114.313 11.3927 114.266 11.1093 114.266 10.8264C114.266 10.1657 114.514 9.61113 115.012 9.16334C115.509 8.71501 116.089 8.49084 116.753 8.49084Z" fill="url(#paint8_linear_2064_2377)"/>
  <path fill-rule="evenodd" clip-rule="evenodd" d="M135.929 15.8029C136.638 15.8029 137.216 16.027 137.665 16.4753C138.114 16.9242 138.339 17.5022 138.339 18.2105V25.9324L138.262 26.1785C138.19 26.5323 138.152 26.899 138.152 27.2747C138.152 30.2791 140.59 32.7145 143.597 32.7145C144.349 32.7145 145.065 32.5624 145.717 32.287L145.896 32.1898L145.47 32.5447C144.243 33.3747 142.822 33.7894 141.209 33.7894C139.036 33.7894 137.216 33.0577 135.751 31.5942C134.286 30.1307 133.554 28.3134 133.554 26.1416V18.2105C133.554 17.5022 133.772 16.9242 134.209 16.4753C134.646 16.027 135.22 15.8029 135.929 15.8029Z" fill="url(#paint9_linear_2064_2377)"/>
  <path fill-rule="evenodd" clip-rule="evenodd" d="M159.738 15.8029C162.312 15.8029 164.496 16.7209 166.292 18.5563C166.764 19.0506 167 19.5923 167 20.1805C167 20.957 166.658 21.6044 165.973 22.1222L161.438 26.535C160.919 27.0292 160.364 27.2763 159.773 27.2763C159.112 27.2763 158.539 27.0292 158.055 26.535C157.571 26.0408 157.329 25.4643 157.329 24.8052C157.329 24.217 157.589 23.6636 158.108 23.1458L160.659 20.6395C160.352 20.5925 160.045 20.569 159.738 20.569C158.557 20.569 157.553 20.9805 156.727 21.8046C155.9 22.6281 155.487 23.6283 155.487 24.8052C155.487 25.9821 155.9 26.9881 156.727 27.8234C157.553 28.6592 158.557 29.0766 159.738 29.0766H162.891C163.599 29.0766 164.172 29.2943 164.609 29.7299C165.046 30.1654 165.264 30.7359 165.264 31.4421C165.264 32.1482 165.046 32.7246 164.609 33.1719C164.172 33.6191 163.599 33.8428 162.891 33.8428H159.738C157.187 33.8428 155.044 32.9717 153.308 31.2302C151.572 29.4886 150.704 27.3468 150.704 24.8052C150.704 22.2631 151.572 20.1276 153.308 18.3978C155.044 16.668 157.187 15.8029 159.738 15.8029Z" fill="url(#paint10_linear_2064_2377)"/>
  <path fill-rule="evenodd" clip-rule="evenodd" d="M160.72 15.8562L161.596 15.9379C163.38 16.2832 164.946 17.1468 166.292 18.528C166.764 19.0239 167 19.5672 167 20.1575C167 20.9367 166.658 21.5863 165.973 22.1061L161.439 26.5339C160.919 27.0297 160.364 27.2779 159.774 27.2779C159.112 27.2779 158.54 27.0297 158.056 26.5339C157.571 26.0381 157.329 25.4595 157.329 24.7982C157.329 24.2079 157.589 23.6529 158.109 23.133L159.6 21.6626L160.198 21.1689L160.625 20.6523L160.659 20.6181L160.653 20.6176L160.712 20.5466C161.166 19.8751 161.431 19.0655 161.431 18.1939C161.431 17.6132 161.313 17.0598 161.1 16.5564L160.72 15.8562Z" fill="url(#paint11_linear_2064_2377)"/>
  <path fill-rule="evenodd" clip-rule="evenodd" d="M106.963 8.97119C108.359 8.97119 109.491 10.1027 109.491 11.4989V14.0688V14.3004V21.2196V21.6941V25.9036C109.616 28.2958 111.797 29.4225 113.61 29.4417C116.377 29.9071 116.331 33.6987 113.029 34.2164C111.626 34.1555 110.446 33.8785 109.453 33.4521L108.825 33.1318L108.522 32.9776C105.619 31.2457 104.684 28.0908 104.457 25.9607C104.449 25.87 104.442 25.7793 104.435 25.6885V24.8223V21.6941V21.2196V14.3004V14.0688V11.4989C104.435 10.1027 105.567 8.97119 106.963 8.97119Z" fill="url(#paint12_linear_2064_2377)"/>
  <path fill-rule="evenodd" clip-rule="evenodd" d="M0.011577 19.5584L4.02414 21.8544C4.47738 22.1138 4.75668 22.5957 4.75568 23.1167L4.74995 29.0792C4.74987 29.4292 4.84333 29.7665 5.01275 30.0588C5.1826 30.3519 5.42842 30.6 5.73234 30.7743L17.5056 37.5109L17.9046 37.9085C18.0145 38.0981 18.076 38.3157 18.0769 38.5421L18.0896 43.2978L18.0146 43.2676L1.30246 33.7045C0.899163 33.4738 0.573522 33.1436 0.348944 32.7561C0.123931 32.3678 -0.000539692 31.9214 2.49015e-05 31.4572L0.011577 19.5584ZM25.8683 19.1773C26.002 19.1773 26.1356 19.2119 26.2554 19.2812L31.2168 22.1538C31.4543 22.2916 31.6012 22.5459 31.6012 22.8208V28.5721C31.6012 28.847 31.4543 29.1013 31.2168 29.2391L26.2561 32.1123C26.0165 32.2508 25.7214 32.2508 25.4818 32.1123L20.5211 29.2391C20.2829 29.1013 20.1367 28.847 20.1367 28.5721V22.8208C20.1367 22.5459 20.2836 22.2916 20.5211 22.1538L25.4811 19.2812C25.6009 19.2119 25.7346 19.1773 25.8683 19.1773ZM12.4169 19.1244C12.5506 19.1244 12.6843 19.159 12.8041 19.2283L17.7655 22.1008C18.003 22.2386 18.1499 22.4929 18.1499 22.7678V28.5191C18.1499 28.794 18.003 29.0484 17.7655 29.1862L12.8047 32.0594C12.5652 32.1979 12.27 32.1979 12.0305 32.0594L7.06974 29.1862C6.83157 29.0484 6.68534 28.794 6.68534 28.5191V22.7678C6.68534 22.4929 6.83226 22.2386 7.06974 22.1008L12.0298 19.2283C12.1496 19.159 12.2832 19.1244 12.4169 19.1244ZM38.3388 11.9548L38.35 12.0349L38.3924 31.2718C38.3935 31.736 38.2695 32.1825 38.0454 32.5703C37.8208 32.9588 37.4955 33.2893 37.0925 33.5205L26.7626 39.4484L26.7525 34.8296C26.7513 34.3079 27.0301 33.8256 27.4826 33.5666L32.6589 30.5961C32.9626 30.4215 33.2086 30.1723 33.3777 29.8797C33.5472 29.5865 33.6399 29.2499 33.6394 28.8998L33.6093 15.3482L33.7551 14.8044C33.8648 14.6147 34.0229 14.4529 34.2188 14.3391L38.3388 11.9548ZM19.1588 7.57243C19.2925 7.57243 19.4261 7.60705 19.5459 7.67629L24.5073 10.5489C24.7448 10.6867 24.8917 10.941 24.8917 11.2159V16.9672C24.8917 17.2421 24.7448 17.4964 24.5073 17.6342L19.5466 20.5075C19.307 20.646 19.0119 20.646 18.7723 20.5075L13.8116 17.6342C13.5734 17.4964 13.4272 17.2421 13.4272 16.9672L13.4272 11.2159C13.4272 10.941 13.5741 10.6867 13.8116 10.5489L18.7716 7.67629C18.8914 7.60705 19.0251 7.57243 19.1588 7.57243ZM19.121 0C19.5701 0 20.0193 0.116082 20.4213 0.349124L30.7263 6.32005L26.7265 8.63826C26.2746 8.90008 25.7171 8.90008 25.2662 8.63826L20.1024 5.64624C19.7991 5.47079 19.46 5.38264 19.1219 5.38264C18.7828 5.38264 18.4446 5.47079 18.1413 5.64624L6.40582 12.4481L5.86142 12.5938C5.64205 12.5938 5.42268 12.538 5.22608 12.4254L1.09868 10.054L1.16248 10.0042L17.8215 0.349124C18.2235 0.116082 18.6727 0 19.121 0Z" fill="#69C2C0"/>
  <path fill-rule="evenodd" clip-rule="evenodd" d="M19.2331 30.8399C19.366 30.8412 19.4989 30.8768 19.6175 30.9467L24.5811 33.8612C24.8187 34.0005 24.9637 34.256 24.9624 34.5302L24.9281 40.257C24.9272 40.3949 24.889 40.5277 24.8213 40.6427C24.7535 40.7581 24.6562 40.8557 24.5355 40.9234L20.0179 43.4713L20.0544 37.3632C20.0561 36.9958 19.862 36.6535 19.5436 36.4665L14.4002 33.4465L18.847 30.9393C18.9664 30.872 19.0998 30.8386 19.2331 30.8399ZM38.3789 25.5474L38.3924 31.266C38.3928 31.7306 38.269 32.1775 38.0445 32.5658C37.82 32.9545 37.4947 33.2851 37.0912 33.5168L26.7539 39.4479L26.7439 34.8569C26.7426 34.335 27.0215 33.853 27.4744 33.5931L36.6087 28.3514C37.1707 28.0286 37.6245 27.5687 37.9377 27.0264C38.094 26.7561 38.216 26.4646 38.2977 26.1609L38.3789 25.5474ZM0.0130312 19.5556L4.00123 21.8376C4.45421 22.0971 4.73347 22.5791 4.73303 23.1006L4.72217 33.6226C4.72174 34.2703 4.8946 34.8925 5.2086 35.4344C5.36538 35.7046 5.55734 35.9558 5.7797 36.178L6.27176 36.5545L1.30378 33.7124C0.899876 33.4807 0.574584 33.1506 0.349181 32.7623C0.124212 32.374 0 31.9276 0 31.4625L0.0130312 19.5556ZM0.0968487 11.7488L5.39839 14.7928C5.7176 14.9759 6.11151 14.9759 6.43116 14.7915L11.5985 11.8117L11.5889 16.9117C11.5885 17.1868 11.4408 17.4406 11.2024 17.5777L6.21575 20.4537C5.97732 20.5912 5.68329 20.5912 5.44529 20.4545L0.474695 17.6007C0.354828 17.5317 0.257977 17.4332 0.191094 17.3178C0.124212 17.202 0.0872957 17.0692 0.08773 16.9308L0.0968487 11.7488ZM32.6248 7.57269C32.7586 7.57265 32.8924 7.60736 33.0118 7.67655L37.5003 10.2754L32.2101 13.3395C31.8917 13.5243 31.695 13.8648 31.695 14.2336V20.1933L27.2777 17.635C27.0397 17.497 26.8933 17.2423 26.8933 16.9677V11.2163C26.8933 10.9413 27.0406 10.6869 27.2777 10.5491L32.2379 7.67655C32.3573 7.60731 32.4911 7.57273 32.6248 7.57269ZM19.1115 0C19.5606 0 20.0101 0.116139 20.4127 0.349158L30.7234 6.32547L26.7483 8.6298C26.2962 8.89167 25.739 8.89167 25.2873 8.62984L16.1752 3.34907C15.6145 3.02443 14.9887 2.86204 14.362 2.86204C14.0493 2.86212 13.7357 2.90221 13.4312 2.98343L12.8588 3.21992L17.8103 0.349158C18.2134 0.116139 18.6624 0 19.1115 0Z" fill="#0C5454"/>
  <defs>
    <linearGradient id="paint0_linear_2064_2377" x1="111.486" y1="30.467" x2="136.101" y2="12.2155" gradientUnits="userSpaceOnUse">
      <stop stop-color="#015553"/>
      <stop offset="0.4" stop-color="#015553"/>
      <stop offset="0.7" stop-color="#66B2B2"/>
      <stop offset="0.9" stop-color="#99D5D5"/>
      <stop offset="1" stop-color="#99D5D5"/>
    </linearGradient>
    <linearGradient id="paint1_linear_2064_2377" x1="132.311" y1="17.2653" x2="150.061" y2="32.3454" gradientUnits="userSpaceOnUse">
      <stop stop-color="#015553"/>
      <stop offset="0.2" stop-color="#015553"/>
      <stop offset="0.67" stop-color="#66B2B2"/>
      <stop offset="0.9" stop-color="#99D5D5"/>
      <stop offset="1" stop-color="#99D5D5"/>
    </linearGradient>
    <linearGradient id="paint2_linear_2064_2377" x1="92.3067" y1="33.8428" x2="92.3067" y2="15.8029" gradientUnits="userSpaceOnUse">
      <stop stop-color="#015553"/>
      <stop offset="0.58" stop-color="#66B2B2"/>
      <stop offset="0.9" stop-color="#99D5D5"/>
      <stop offset="1" stop-color="#99D5D5"/>
    </linearGradient>
    <linearGradient id="paint3_linear_2064_2377" x1="44.1171" y1="13.9244" x2="66.9644" y2="28.4304" gradientUnits="userSpaceOnUse">
      <stop stop-color="#015553"/>
      <stop offset="0.26" stop-color="#015553"/>
      <stop offset="0.68" stop-color="#66B2B2"/>
      <stop offset="1" stop-color="#99D5D5"/>
    </linearGradient>
    <linearGradient id="paint4_linear_2064_2377" x1="49.888" y1="7.2598" x2="53.8811" y2="14.5818" gradientUnits="userSpaceOnUse">
      <stop stop-color="#015553"/>
      <stop offset="0.14" stop-color="#015553"/>
      <stop offset="0.58" stop-color="#66B2B2"/>
      <stop offset="0.94944" stop-color="#99D5D5"/>
      <stop offset="1" stop-color="#99D5D5"/>
    </linearGradient>
    <linearGradient id="paint5_linear_2064_2377" x1="90.6466" y1="21.8425" x2="104.007" y2="27.8136" gradientUnits="userSpaceOnUse">
      <stop stop-color="#015553"/>
      <stop offset="0.67" stop-color="#66B2B2"/>
      <stop offset="0.9" stop-color="#99D5D5"/>
      <stop offset="1" stop-color="#99D5D5"/>
    </linearGradient>
    <linearGradient id="paint6_linear_2064_2377" x1="73.099" y1="33.8428" x2="73.099" y2="15.8029" gradientUnits="userSpaceOnUse">
      <stop offset="0.01" stop-color="#015553"/>
      <stop offset="0.138542" stop-color="#015553"/>
      <stop offset="0.680208" stop-color="#418F8F"/>
      <stop offset="0.9" stop-color="#99D5D5"/>
      <stop offset="1" stop-color="#99D5D5"/>
    </linearGradient>
    <linearGradient id="paint7_linear_2064_2377" x1="71.5988" y1="15.8375" x2="83.0487" y2="29.2522" gradientUnits="userSpaceOnUse">
      <stop offset="0.215379" stop-color="#015553"/>
      <stop offset="0.492123" stop-color="#66B2B2"/>
      <stop offset="0.88656" stop-color="#99D5D5"/>
      <stop offset="1" stop-color="#99D5D5"/>
    </linearGradient>
    <linearGradient id="paint8_linear_2064_2377" x1="110.478" y1="15.3476" x2="132.255" y2="27.379" gradientUnits="userSpaceOnUse">
      <stop stop-color="#015553"/>
      <stop offset="0.67" stop-color="#66B2B2"/>
      <stop offset="0.9" stop-color="#99D5D5"/>
      <stop offset="1" stop-color="#99D5D5"/>
    </linearGradient>
    <linearGradient id="paint9_linear_2064_2377" x1="139.725" y1="33.7894" x2="139.725" y2="15.8029" gradientUnits="userSpaceOnUse">
      <stop stop-color="#015553"/>
      <stop offset="0.58" stop-color="#66B2B2"/>
      <stop offset="0.9" stop-color="#99D5D5"/>
      <stop offset="1" stop-color="#99D5D5"/>
    </linearGradient>
    <linearGradient id="paint10_linear_2064_2377" x1="158.852" y1="33.8428" x2="158.852" y2="15.8029" gradientUnits="userSpaceOnUse">
      <stop offset="0.01" stop-color="#015553"/>
      <stop offset="0.138542" stop-color="#015553"/>
      <stop offset="0.680208" stop-color="#418F8F"/>
      <stop offset="0.9" stop-color="#99D5D5"/>
      <stop offset="1" stop-color="#99D5D5"/>
    </linearGradient>
    <linearGradient id="paint11_linear_2064_2377" x1="157.352" y1="15.8375" x2="166.966" y2="27.3066" gradientUnits="userSpaceOnUse">
      <stop stop-color="#015553"/>
      <stop offset="0.62" stop-color="#66B2B2"/>
      <stop offset="0.99" stop-color="#99D5D5"/>
      <stop offset="1" stop-color="#99D5D5"/>
    </linearGradient>
    <linearGradient id="paint12_linear_2064_2377" x1="110.018" y1="34.2164" x2="110.018" y2="8.97119" gradientUnits="userSpaceOnUse">
      <stop stop-color="#015553"/>
      <stop offset="0.08" stop-color="#015553"/>
      <stop offset="0.58" stop-color="#66B2B2"/>
      <stop offset="0.9" stop-color="#99D5D5"/>
      <stop offset="1" stop-color="#99D5D5"/>
    </linearGradient>
  </defs>
</svg>