<svg width="141" height="61" viewBox="0 0 141 61" fill="none" xmlns="http://www.w3.org/2000/svg">
<g clip-path="url(#clip0_2108_457)">
<path fill-rule="evenodd" clip-rule="evenodd" d="M14.7028 51.8621L14.8892 52.0012L14.7464 51.9351L14.7028 51.8621ZM32.3255 51.6766L32.7745 51.7162C35.5563 52.0141 37.0642 52.3833 37.2768 52.8805C37.2718 54.0953 25.9139 56.2847 12.132 52.9547C13.9522 53.3251 16.2077 53.6185 18.5979 53.8192L19.0754 53.8491L19.1992 53.8837C20.1794 54.0965 21.2155 54.203 22.3076 54.203L24.1887 54.0899L25.8721 54.126C30.5902 54.1235 34.6446 53.6858 35.6306 52.6852C35.6306 52.3443 34.6628 52.0275 33.0053 51.7648L32.3255 51.6766ZM31.0457 51.6121L31.7021 51.694C32.6096 51.898 33.1396 52.1438 33.1396 52.4084C33.1396 52.9376 31.02 53.3917 27.9994 53.5856L26.7825 53.6429L27.9594 53.2294L28.7271 53.1742C30.9656 52.9734 32.4376 52.6334 32.4376 52.2479L30.9386 51.6937L31.0457 51.6121ZM26.6033 51.5692L27.0698 51.6651C27.3304 51.7504 27.4746 51.8441 27.4746 51.9426C27.4746 52.3364 25.1687 52.6556 22.3245 52.6556C21.6135 52.6556 20.9361 52.6357 20.3199 52.5996L19.0147 52.4778L19.6521 52.6087C20.584 52.7377 21.8715 52.8175 23.2936 52.8175C26.1379 52.8175 28.4436 52.4982 28.4436 52.1044C28.4436 51.9076 27.8671 51.7293 26.9352 51.6003L26.6033 51.5692ZM14.0244 51.3557L14.2043 51.4901L14.1969 51.4917C12.7614 51.8408 12.6359 52.1743 14.7143 52.445C10.7807 52.4091 11.7561 51.7641 13.791 51.3902L14.0244 51.3557ZM22.889 51.2769L23.0361 51.2863L23.183 51.2769C23.5181 51.2769 23.8374 51.2875 24.1278 51.3065L24.5778 51.3538L24.211 51.5333C23.7288 51.685 23.2301 51.761 22.7145 51.761C22.1209 51.761 21.5645 51.6749 21.0452 51.5028L20.9152 51.4469L21.1723 51.3876C21.6116 51.3193 22.2185 51.2769 22.889 51.2769ZM24.7237 51.1308L25.0151 51.1397L25.0064 51.1441L24.3961 51.1359L24.7237 51.1308ZM22.9897 50.8493C23.7008 50.8493 24.3782 50.8692 24.9944 50.9053L25.4277 50.9379L25.2069 51.0459L23.9588 51.0111C22.8923 51.0111 21.9015 51.056 21.0794 51.1329L20.3723 51.2136L20.2939 51.18L19.9928 50.9844L20.1103 50.971C20.9322 50.8941 21.9231 50.8493 22.9897 50.8493ZM22.408 50.5123L25.8316 50.6527L25.8076 50.6738L23.4626 50.6084C22.5933 50.6084 21.7446 50.6206 20.9249 50.6438L19.5694 50.7018L19.4192 50.5655L19.8703 50.5467C20.6899 50.5242 21.5387 50.5123 22.408 50.5123ZM42.0233 22.2932L39.2797 34.626C38.4657 38.2078 37.9093 40.4054 37.6108 41.2194C38.6965 46.2123 40.2699 48.7083 42.3322 48.7083C44.7742 48.7083 46.036 47.0262 46.1172 43.6615H47.5825C47.5011 46.809 46.9232 49.3526 45.8528 51.2928C44.781 53.2329 43.3771 54.203 41.6402 54.203C40.2022 54.203 39.1304 53.6196 38.4249 52.4527C37.7196 51.286 36.9597 48.8985 36.1457 45.2894C35.0876 47.5179 33.7776 49.3284 32.2155 50.7212L31.0457 51.6121L30.5504 51.5501L30.5157 51.5373L30.3276 51.5223L27.9994 51.2312L25.8752 51.1662L25.7178 51.1535L25.2679 51.1476L25.0151 51.1397L25.2069 51.0459L25.9634 51.0672L27.2685 51.1889L26.6314 51.0581C26.3983 51.0259 26.1431 50.9966 25.8691 50.971L25.4277 50.9379L25.6068 50.8503L25.8076 50.6738L27.4894 50.7207L28.7016 50.7703L30.1577 50.8796L29.4484 50.801L28.7016 50.7703L28.3641 50.7451L27.4894 50.7207L25.8316 50.6527L26.9023 49.7119C28.9775 47.4353 30.6341 43.2614 31.8723 37.1901L32.971 31.7364C32.6523 30.6443 32.3241 29.6118 31.9868 28.6393L31.0587 26.1964L32.8783 23.9503L32.994 24.217C33.3655 25.1803 33.7241 26.2215 34.0701 27.3408L34.8491 23.7136L42.0233 22.2932ZM43.4717 15.7817L42.6735 19.3703L35.476 20.7953L36.5527 15.7817H43.4717ZM22.4296 14.6828C24.5258 14.6828 26.3396 15.24 27.8708 16.354L28.4713 16.8972L24.6485 18.0557L24.6301 18.047C24.1196 17.8936 23.5897 17.8169 23.0403 17.8169C18.0746 17.8169 15.592 23.6234 15.592 35.2365C15.592 40.9168 16.2232 45.1327 17.4856 47.884L18.0023 48.8312L17.9697 48.7019C17.9474 48.6105 17.9219 48.5016 17.9092 48.431C17.8981 48.3689 17.9009 48.3147 17.9017 48.26C17.9031 48.1737 17.9237 48.1008 17.9158 48.0083C17.8794 47.58 17.8395 47.5437 17.7342 47.1213C17.7269 47.0922 17.7495 47.1806 17.7631 47.2113C17.8297 47.3609 17.9061 47.5102 17.9739 47.6598C18.4704 48.7561 17.7224 47.1527 18.3072 48.3977C18.4165 48.6302 18.4857 48.86 18.5769 49.0915C18.5833 49.108 18.5924 49.1248 18.6002 49.1413C18.6102 49.0653 18.6365 48.8415 18.6611 48.8131C19.0104 48.4116 19.0913 48.4685 19.6005 48.3613C19.6005 48.3613 19.5787 48.4047 19.5686 48.4273C19.5077 48.5638 19.4319 48.6851 19.3878 48.8385C19.3578 48.9431 19.3334 49.0578 19.3475 49.1966C19.3634 49.3519 19.4216 49.5297 19.4758 49.7021C19.7162 50.4674 19.6731 50.0786 19.6977 50.4071C19.6615 50.4229 19.5851 50.4498 19.5018 50.4831L19.3883 50.5374L19.4192 50.5655L19.3214 50.5695L19.264 50.5971C19.2398 50.6126 19.2398 50.6579 19.2276 50.6882C19.214 50.7064 19.1634 50.6997 19.0845 50.6738L18.8776 50.588L18.6084 50.5993L18.6086 50.5999C18.6152 50.664 18.5957 50.7065 18.5558 50.7318L18.39 50.758L18.5612 50.7451L19.5694 50.7018L19.5984 50.7281L19.9928 50.9844L19.348 51.0581C18.4161 51.1871 17.8397 51.3655 17.8397 51.5623C17.8397 51.7592 18.4161 51.9374 19.348 52.0666L19.6799 52.0974L19.2136 52.0017C18.953 51.9163 18.8089 51.8225 18.8089 51.7242C18.8089 51.5272 19.3853 51.3489 20.3172 51.2199L20.3723 51.2136L20.9152 51.4469L20.6519 51.5075C20.5292 51.5528 20.4612 51.6025 20.4612 51.6547C20.4612 51.8633 21.5481 52.0324 22.889 52.0324L23.0357 52.023L23.183 52.0324C24.5237 52.0324 25.6106 51.8633 25.6106 51.6547C25.6106 51.5504 25.3388 51.4559 24.8996 51.3876L24.5778 51.3538L25.0064 51.1441L25.2679 51.1476L25.8752 51.1662L30.3276 51.5223L30.5504 51.5501L30.9386 51.6937L30.5698 51.9745C29.9931 52.346 29.3886 52.6709 28.756 52.9495L27.9594 53.2294L27.2975 53.277C26.2906 53.3337 25.1837 53.3649 24.0217 53.3649C21.6977 53.3649 19.5937 53.2399 18.0708 53.0377L16.6787 52.7637L16.9691 52.9057C18.2467 53.3644 21.2377 53.686 24.7237 53.686C25.3047 53.686 25.8719 53.6771 26.4198 53.6602L26.7825 53.6429L26.7745 53.6459C26.086 53.8315 25.3693 53.9708 24.625 54.0636L24.1887 54.0899L22.2468 54.0482L19.0754 53.8491L17.7708 53.4846C16.8466 53.1655 15.9783 52.7398 15.166 52.2076L14.8892 52.0012L14.9453 52.0272C15.3082 52.1419 16.074 52.2215 17.3852 52.2334C14.6141 51.8725 15.7608 51.4 18.7071 50.9276C16.7795 51.0071 14.6962 51.4788 14.6854 51.8328L14.7028 51.8621L14.2043 51.4901L15.0199 51.316C15.3277 51.2572 15.668 51.1981 16.0362 51.139C15.6508 51.1551 15.2589 51.1866 14.8787 51.2298L14.0244 51.3557L13.9895 51.3297L13.8853 51.2307L14.5587 51.1179C15.1283 51.0391 15.7524 50.968 16.4223 50.9054L18.3787 50.7588L17.9029 50.6286L17.5065 50.6452C16.7533 50.6879 16.0376 50.7404 15.3677 50.801L13.9991 50.9527L13.9993 50.9553L13.9918 50.9534L13.6348 50.9929L13.4955 50.8606L13.438 50.8575C13.3967 50.8605 13.3745 50.8768 13.2926 50.915C13.2603 50.9206 13.2159 50.9112 13.1957 50.9318L13.0846 51.0757L13.504 51.0074L13.6348 50.9929L13.8853 51.2307L13.0212 51.3754C11.6634 51.6531 10.8706 51.9878 10.8706 52.3481C10.8706 52.5883 11.2229 52.8172 11.86 53.0253L13.0083 53.3175L11.9664 53.148C10.6088 52.8782 9.81598 52.5529 9.81598 52.2029C9.81598 51.8527 10.6088 51.5274 11.9665 51.2577L12.6105 51.1528L12.2763 50.9527C12.1189 50.8638 11.9571 50.7696 11.8084 50.7219C11.6758 50.6792 11.5586 50.6792 11.4499 50.6868C11.2907 50.698 11.1563 50.747 11.0101 50.778C10.9858 50.7832 10.9388 50.7954 10.9388 50.7954C11.1497 50.3197 11.111 50.2289 11.5762 49.9707C11.6092 49.9526 11.8337 49.9735 11.9101 49.9796C11.8954 49.9685 11.881 49.9561 11.8661 49.9463C11.6587 49.8088 11.4485 49.6934 11.2436 49.5381C10.1475 48.7071 11.5602 49.7722 10.5914 49.0585C10.4592 48.9613 10.3288 48.8553 10.1963 48.7592C10.1693 48.7395 10.0874 48.6989 10.1144 48.712C10.5058 48.903 10.5328 48.9496 10.944 49.0742C11.0331 49.1012 11.1086 49.0962 11.1934 49.1129C11.247 49.1234 11.3006 49.1319 11.359 49.1558C11.4919 49.2102 11.7638 49.3463 11.7638 49.3463C11.6932 49.2801 11.6212 49.2161 11.552 49.148C11.1204 48.7235 10.7249 48.2718 10.337 47.8059C10.1221 47.5477 9.86967 47.1253 9.69989 46.8642C9.64027 46.7725 9.57943 46.6807 9.51616 46.5897C9.28118 46.2515 9.35317 46.4096 9.27786 46.2173C9.73615 46.6383 9.11488 46.0627 10.3266 47.3431C10.6299 47.6638 10.8929 47.9452 11.1335 48.2023L11.7373 48.8426L10.1967 46.2651C8.74689 43.1591 8.02173 39.2251 8.02173 34.4632C8.02173 28.2226 9.43283 23.3655 12.2545 19.8925C15.0764 16.4196 18.4683 14.6828 22.4296 14.6828Z" fill="#009999" fill-opacity="0.76"/>
<path fill-rule="evenodd" clip-rule="evenodd" d="M22.6925 29.3223L23.4456 29.5716L20.3405 39.5671C19.6976 41.1963 21.8479 46.3586 23.3139 50.8625L23.5663 51.635H22.9433L22.5958 50.4647C21.1505 46.0525 18.3754 41.0593 19.1765 39.4012L22.6925 29.3223Z" fill="#E64A6B"/>
<path fill-rule="evenodd" clip-rule="evenodd" d="M22.6897 29.325L21.2981 33.8572L21.4574 33.7774C21.7474 33.6945 21.9814 33.8752 22.1205 33.2026C22.1631 32.2711 22.3939 31.7285 22.707 31.3559L22.9467 31.1252L23.3899 29.5765L22.6897 29.325Z" fill="black" fill-opacity="0.121569"/>
<path fill-rule="evenodd" clip-rule="evenodd" d="M20.7749 26.8842L20.9553 27.5217C21.8462 27.9157 22.9666 27.7654 22.5703 29.8075C22.5758 30.0822 22.8764 29.7583 23.0048 30.0408C23.1305 29.9656 23.1251 29.8283 23.1114 29.722C23.2699 29.8334 23.2808 30.0382 23.3655 30.1963L23.7099 29.03L24.087 27.7394L23.7591 27.615H22.6605L22.4965 27.5995L20.7749 26.8842Z" fill="#D0CECE"/>
<path fill-rule="evenodd" clip-rule="evenodd" d="M5.918 26.1812C8.56955 26.0304 12.0706 25.2401 15.8961 25.0426L10.6599 22.9681L10.2892 22.8745L7.01466 24.5902C5.49066 25.4325 3.88943 25.4169 2.47357 25.3233C3.2819 26.0824 4.7853 26.2176 5.918 26.1812Z" fill="#262626"/>
<path fill-rule="evenodd" clip-rule="evenodd" d="M34.2801 8.23315C34.183 8.22449 33.5312 8.22565 33.3726 8.37248C33.2141 8.51932 33.3672 8.92827 33.3288 9.11416C33.644 11.5249 33.5363 10.3001 32.9136 10.422C33.1545 10.9774 33.0366 10.8761 32.5446 10.5777C32.5446 11.5564 33.6532 13.6933 33.5886 15.7368L33.4866 16.5699L33.2211 16.7154L33.3357 17.0504L33.3038 17.1129C33.1678 17.2397 33.1039 16.4476 32.6061 16.8057C32.2499 17.034 31.5836 18.3289 31.0839 18.4094C30.3612 18.4509 30.0998 17.8073 29.5617 18.0668C29.8641 18.2329 29.6436 18.399 29.6847 18.5651C29.2952 18.4198 29.2132 18.1032 28.5161 18.1291C29.0696 18.4457 29.3618 18.7934 29.5463 19.2813C29.3362 19.2242 29.2952 19.0114 28.9159 19.11C30.2331 19.9664 31.5964 21.2742 30.9763 23.127C29.5815 25.6338 26.3268 25.8517 24.4568 25.6898L23.8454 25.6145L22.1505 25.1854L22.8627 25.5841L22.5981 25.5784L21.6299 25.4715L21.4604 25.4197C21.1959 25.3405 20.9948 25.2848 20.9204 25.2757C20.8797 25.2857 20.8642 25.3112 20.8676 25.3481L20.8743 25.3634L19.934 25.2057C17.6146 24.7677 15.2153 24.0989 14.0011 23.8588L12.8787 24.2637L11.4181 24.1702L9.61965 24.6082L10.9978 24.8286C13.4468 25.2482 15.6279 25.794 18.4757 27.0817C20.7102 27.8187 23.0987 27.5282 25.4102 27.7513C26.9477 27.7928 28.3623 27.3361 30.0076 26.4746C31.8424 25.1719 32.5395 23.5734 33.298 20.6826C33.5799 20.0909 33.9271 19.5148 34.2552 18.931L34.3242 18.8002L34.4018 18.6533L34.4872 18.4746C34.8259 17.7296 34.9139 17.2352 34.7568 16.7105C34.9524 16.7583 34.9917 16.9248 35.0857 17.1388C35.066 16.4201 34.9681 16.0812 34.6749 15.8689C34.9155 15.8636 35.0506 15.973 35.1378 16.1506L35.1874 16.3019C35.1918 16.1097 35.1962 15.9175 35.2006 15.7253L35.1676 15.0455C35.1666 15.0257 35.1656 15.0059 35.1647 14.9861C35.0716 13.7416 34.8382 12.4461 34.851 11.2783C35.1604 9.92054 35.7968 9.98233 36.7128 9.99056L37.6849 9.92051L37.512 9.54481C37.4507 9.49588 37.5382 9.44322 37.4996 9.46735L37.2415 9.47102L37.1137 9.10711C36.2125 8.50873 34.9595 8.29368 34.2801 8.23315Z" fill="white"/>
<path fill-rule="evenodd" clip-rule="evenodd" d="M34.5442 18.6906L34.3699 18.8539L34.3757 18.8649L34.5442 18.6906Z" fill="#4472C4"/>
<path fill-rule="evenodd" clip-rule="evenodd" d="M32.9775 21.8284L32.7152 22.3045C31.7797 23.1152 30.0816 27.0704 26.6709 26.84C22.4193 26.6518 21.6392 27.2617 18.8099 27.1156L18.3348 27.08L18.3446 27.0842C20.5992 27.82 23.0089 27.5298 25.341 27.7527C26.8923 27.7941 28.3195 27.3381 29.9794 26.478C31.3678 25.5025 32.1105 24.3609 32.7179 22.6335L32.9775 21.8284Z" fill="#D0CECE"/>
<path fill-rule="evenodd" clip-rule="evenodd" d="M34.7909 5.6153C33.2545 5.60193 31.7511 6.56045 31.2861 8.07601C31.5341 7.89111 31.6116 7.83085 31.8441 8.1134C31.406 8.08638 31.1539 8.49566 31.0257 8.98285C31.2603 8.75017 31.4329 8.5019 31.6829 8.54969C30.6899 9.51262 31.9133 12.4077 31.6953 14.5392C31.4556 15.7213 30.9028 17.6373 26.6178 18.2289C23.3434 18.5634 20.6485 19.452 16.6674 21.2829C13.4457 22.0074 9.12188 22.73 7.20996 22.5293C7.45278 22.7985 7.44755 22.6934 7.84534 22.9159C6.44017 23.2774 4.33737 23.9193 -1.36109 23.5485C0.97826 24.6725 4.55753 25.3445 9.3457 24.6765L9.05407 24.8076L11.2583 24.2745L12.7306 24.3679L13.8619 23.963C15.0858 24.203 17.5045 24.8724 19.8424 25.3108L20.7902 25.4684L20.7834 25.4531C20.7799 25.4163 20.7956 25.3908 20.8366 25.3807C20.9115 25.39 21.1143 25.4458 21.3811 25.5249L21.5518 25.5767L22.5277 25.6837L22.7946 25.6895L22.0766 25.2904L23.7851 25.7198L24.4014 25.7951C26.2863 25.9574 29.5671 25.7393 30.973 23.2305C31.5982 21.3764 30.2239 20.0675 28.8962 19.2105C29.2785 19.1119 29.3198 19.3248 29.5316 19.3819C29.3456 18.8937 29.0512 18.5457 28.4932 18.2289C29.1958 18.2029 29.2785 18.5198 29.6711 18.6652C29.6298 18.499 29.8519 18.3328 29.5471 18.1666C30.0896 17.9069 30.3531 18.5509 31.0815 18.5094C31.5852 18.4289 32.2569 17.133 32.6159 16.9045C32.9942 16.6778 33.2481 16.919 33.3514 17.1494C33.3523 16.9241 33.3925 16.6276 33.1887 16.5449C33.396 16.4357 33.4379 16.564 33.5035 16.6685L33.6064 15.8349C33.6714 13.7898 32.554 11.6513 32.554 10.6719C33.0499 10.9705 33.1688 11.0718 32.9259 10.5161C33.5536 10.394 33.6621 11.6197 33.3444 9.20721C33.4869 8.22531 35.9373 8.7259 37.2219 10.039L37.7824 10.0501C38.7831 9.71833 38.551 9.20503 38.4932 8.98599C37.8965 6.61395 36.3272 5.62868 34.7909 5.6153Z" fill="#0D0D0D"/>
<path fill-rule="evenodd" clip-rule="evenodd" d="M29.5925 19.5621L29.6041 20.3942C29.5392 22.5636 28.7311 24.0806 25.7159 23.4302C25.1166 23.3195 24.5637 23.1139 24.0419 22.8767C24.0213 23.2773 24.4811 23.6622 24.9254 23.9205C24.4553 24.0259 24.0316 23.9416 23.7475 23.7465C23.5356 23.8625 23.6958 24.0259 24.0884 24.2684C22.2285 24.4688 20.7716 24.1314 19.2062 23.6991C19.3108 24.1182 20.0954 24.8931 20.7755 25.37L20.8919 25.4449L20.9421 25.3755C21.017 25.3847 21.2198 25.4414 21.4865 25.5218L21.6573 25.5743L22.6332 25.6831L22.9 25.6887L22.182 25.2838L23.8906 25.7196L24.5068 25.7961C26.3919 25.9606 29.6727 25.7392 31.0786 23.193C31.5475 21.7815 30.8916 20.6813 29.9743 19.8525L29.5925 19.5621Z" fill="#262626"/>
<path fill-rule="evenodd" clip-rule="evenodd" d="M34.7932 5.61529C33.2324 5.60218 31.7052 6.54285 31.2329 8.0302L31.2924 7.98974L31.3532 7.89589C34.3145 7.09993 35.3767 4.57488 38.4787 9.06033L37.9566 9.62448L38.5542 8.92321C37.948 6.59535 36.3538 5.62842 34.7932 5.61529Z" fill="#262626"/>
<path fill-rule="evenodd" clip-rule="evenodd" d="M27.4212 17.993L27.3689 18.0048C27.1296 18.0511 26.8765 18.0928 26.6089 18.1294C23.3366 18.4605 20.6436 19.3401 16.6649 21.1521C15.86 21.3314 14.9863 21.5106 14.0986 21.6754L13.4543 21.7886L14.284 21.8227C16.3252 21.8645 18.3444 21.6806 20.2755 20.5938C20.158 20.9031 20.3931 21.1372 19.9229 21.5217C21.1235 21.2877 21.5937 20.1257 22.6935 20.0672L22.1898 20.9199C24.2972 20.1508 27.815 20.8614 28.0585 19.4402C28.1782 18.948 28.0074 18.5758 27.7095 18.256L27.4212 17.993Z" fill="#262626"/>
<path fill-rule="evenodd" clip-rule="evenodd" d="M23.7371 28.2765L25.3268 28.2923L24.7916 30.2331L22.4235 38.3887C22.2386 39.2263 22.3177 39.3439 22.4895 39.5845C24.1259 41.4099 31.1156 44.8833 32.5316 47.1445L32.5446 47.1682L32.413 47.1576L32.5446 47.1682L32.5593 47.1951C32.6842 47.4417 33.0019 48.518 32.6309 49.0012C32.6076 48.246 32.4748 47.5268 32.2803 47.5137C32.3967 48.3365 32.4734 49.654 31.9668 49.892C32.3017 48.6956 31.908 47.4953 31.7154 47.6199C31.4733 47.6324 31.5336 47.9738 31.4108 47.9945C31.3123 47.8812 31.4059 47.6499 31.2935 46.879C29.0372 44.251 21.6587 40.8218 21.2739 39.5666C21.0404 39.2562 21.1296 38.7092 21.2267 38.3831C21.872 36.0794 22.9895 32.6552 23.5561 30.3515C23.7161 29.5231 23.5771 29.1049 23.7371 28.2765Z" fill="#E64A6B"/>
<path fill-rule="evenodd" clip-rule="evenodd" d="M23.6828 28.2789C23.5193 29.1089 23.6613 29.5278 23.4979 30.3577C23.4255 30.6462 23.3443 30.9523 23.2564 31.2715L23.2152 31.4166L23.2588 31.3902C23.4757 31.1656 23.6158 30.4984 23.8463 30.5801C24.2573 29.8862 24.3743 30.3991 24.456 31.0161L24.4843 31.2397L24.7602 30.2392L25.307 28.2947L23.6828 28.2789Z" fill="#C04A5E"/>
<path fill-rule="evenodd" clip-rule="evenodd" d="M26.5554 26.3612L26.7015 26.7446C25.802 26.8453 25.2433 27.6828 24.9279 29.1443C24.8798 28.7834 24.9128 28.4376 24.4428 28.3323C24.5515 28.5073 24.5304 28.607 24.5417 28.8345C24.4336 28.6366 24.3254 28.4912 24.0793 28.4211C23.8554 28.416 23.7856 28.3584 23.4562 29.1503C23.4881 28.3484 23.5119 27.4337 23.0408 26.7446L26.5554 26.3612Z" fill="white"/>
<path fill-rule="evenodd" clip-rule="evenodd" d="M36.2118 8.10323C35.9568 7.31564 35.211 7.57276 34.7277 7.10882C34.6786 7.97021 35.0397 8.45387 35.5096 8.63718C35.7878 8.7173 36.3308 8.59691 36.2118 8.10323Z" fill="white"/>
<path fill-rule="evenodd" clip-rule="evenodd" d="M35.6576 7.82361C35.5623 7.75254 35.1948 7.59733 35.2989 7.7933C35.2584 7.84828 35.195 7.82169 35.1232 7.77579L35.122 7.87272C35.1349 8.03146 35.2068 8.17604 35.3348 8.26883C35.4628 8.36161 35.6226 8.38504 35.7774 8.34789L35.8692 8.31664L35.8704 8.21971C35.8575 8.06098 35.7528 7.89469 35.6576 7.82361Z" fill="black"/>
<path fill-rule="evenodd" clip-rule="evenodd" d="M35.6977 8.03884C35.6826 7.96136 35.6075 7.9108 35.5301 7.92591C35.4526 7.94103 35.402 8.0161 35.4171 8.09358C35.4322 8.17106 35.5073 8.22162 35.5848 8.2065C35.6623 8.19139 35.7128 8.11632 35.6977 8.03884Z" fill="#843C0C"/>
<path fill-rule="evenodd" clip-rule="evenodd" d="M35.2977 7.70547C35.2764 7.71735 35.2729 7.7444 35.299 7.79339C35.2585 7.8484 35.1951 7.82179 35.1233 7.7759L35.1221 7.87283L35.1261 7.89535L35.1378 7.89114C35.1709 7.88114 35.2048 7.87271 35.2394 7.86595C35.3779 7.83893 35.5153 7.84126 35.6452 7.86862L35.7309 7.89556L35.7293 7.89326C35.7059 7.86518 35.6815 7.84147 35.6577 7.82371C35.5862 7.7704 35.3616 7.66977 35.2977 7.70547Z" fill="#843C0C"/>
<path fill-rule="evenodd" clip-rule="evenodd" d="M35.7614 7.9403L35.8012 8.02921C35.8144 8.06823 35.8233 8.10838 35.8265 8.14806L35.8253 8.24499L35.7336 8.27626C35.5787 8.31339 35.4189 8.28998 35.291 8.19719C35.259 8.17399 35.2305 8.14756 35.2055 8.11847L35.1782 8.07813L35.1851 8.0956C35.2207 8.16319 35.2707 8.22253 35.3347 8.26892C35.4627 8.3617 35.6225 8.38514 35.7773 8.34799L35.8691 8.31673L35.8703 8.2198C35.8638 8.14043 35.8344 8.05917 35.7948 7.98888L35.7614 7.9403Z" fill="#843C0C"/>
<path fill-rule="evenodd" clip-rule="evenodd" d="M36.9803 9.94834C37.3696 10.051 44.2386 12.8178 47.2651 13.457C43.818 11.6687 38.7887 10.084 38.4495 8.92474C38.2466 9.43846 37.6164 9.16321 36.9927 9.13428C37.3527 9.51045 37.223 9.72016 36.9803 9.94834Z" fill="#0D0D0D"/>
<path fill-rule="evenodd" clip-rule="evenodd" d="M38.4472 8.92474C38.6606 9.61783 40.7191 10.4697 43.0803 11.4288L43.7787 11.7138L43.5955 11.6598C39.251 10.366 39.3427 10.0784 37.2162 9.28767L37.0806 9.23817L36.9803 9.12521C37.6084 9.15275 38.2428 9.41615 38.4472 8.92474Z" fill="#262626"/>
<path fill-rule="evenodd" clip-rule="evenodd" d="M38.3042 9.45363C38.6372 9.59587 38.4055 9.48536 38.8969 9.79529C38.9048 9.80017 38.8818 9.78431 38.8748 9.77786C38.8602 9.76427 38.8472 9.74858 38.8324 9.73533C38.7665 9.67624 38.7845 9.68826 38.7303 9.66194C38.7193 9.63231 38.702 9.60476 38.6973 9.57321C38.6959 9.56345 38.7088 9.55752 38.7136 9.54881C38.7252 9.52632 38.7353 9.50296 38.7461 9.47995C38.7441 9.46618 38.7475 9.44962 38.7402 9.43812C38.7132 9.3968 38.6813 9.35932 38.6459 9.32655C38.6179 9.30041 38.5459 9.30163 38.5188 9.30372C38.4855 9.30633 38.4519 9.30982 38.42 9.3201C38.3954 9.3283 38.3724 9.33753 38.3466 9.33875C38.3356 9.33928 38.325 9.33579 38.3142 9.33492C38.2635 9.33161 38.2931 9.3405 38.254 9.32446C38.2441 9.31383 38.2345 9.30267 38.2241 9.29291C38.2171 9.28629 38.197 9.26694 38.2019 9.2753L38.3042 9.45363Z" fill="#0D0D0D"/>
<path fill-rule="evenodd" clip-rule="evenodd" d="M26.7041 42.7449L27.501 43.2462C29.6676 44.6161 31.8063 46.0401 32.5268 47.1631L32.54 47.1866L32.555 47.2133C32.6821 47.4582 33.0054 48.5273 32.6279 49.0072C32.6041 48.2571 32.469 47.5427 32.271 47.5298C32.3895 48.3469 32.4675 49.6556 31.952 49.892C32.2928 48.7036 31.8922 47.5113 31.6962 47.6351C31.4497 47.6477 31.5111 47.9868 31.3862 48.0073C31.2859 47.8948 31.3812 47.665 31.2667 46.8994C30.4057 45.9205 28.8116 44.8297 27.1346 43.7829L26.7041 43.5199V42.7449Z" fill="#E64A6B"/>
<path fill-rule="evenodd" clip-rule="evenodd" d="M55.9529 22.7976H68.6439V26.4715H58.2034C57.6824 26.4715 57.2657 26.8866 57.2657 27.4055C57.2657 27.9038 57.6824 28.3189 58.2034 28.3189H62.0796V28.3398H65.1429C67.6854 28.3398 69.7692 30.3948 69.7692 32.9268C69.7692 35.4387 67.6436 37.4936 65.1429 37.5351H52.4518V33.8611H62.9132C63.4343 33.8611 63.8509 33.446 63.8509 32.9268C63.8509 32.4288 63.4343 32.0137 62.9132 32.0137H58.6412V31.9929H55.9529C53.4103 31.9929 51.3474 29.9379 51.3474 27.4055C51.3474 24.8526 53.4103 22.7976 55.9529 22.7976Z" fill="#009999"/>
<path fill-rule="evenodd" clip-rule="evenodd" d="M55.9529 22.7976H68.6439V26.4715H58.2034C57.6824 26.4715 57.2657 26.8866 57.2657 27.4055C57.2657 27.9038 57.6824 28.3189 58.2034 28.3189H62.0796V28.3398H65.1429C67.6854 28.3398 69.7692 30.3948 69.7692 32.9268C69.7692 35.4387 67.6436 37.4936 65.1429 37.5351H52.4518V33.8611H62.9132C63.4343 33.8611 63.8509 33.446 63.8509 32.9268C63.8509 32.4288 63.4343 32.0137 62.9132 32.0137H58.6412V31.9929H55.9529C53.4103 31.9929 51.3474 29.9379 51.3474 27.4055C51.3474 24.8526 53.4103 22.7976 55.9529 22.7976Z" fill="#009999"/>
<path fill-rule="evenodd" clip-rule="evenodd" d="M72.5323 22.7976H90.9541V26.4715H84.7024V37.535H78.7841V26.4715H72.5323V22.7976Z" fill="#009999"/>
<path fill-rule="evenodd" clip-rule="evenodd" d="M95.2526 22.7976H101.086V24.5406L95.2526 27.403V22.7976Z" fill="#E64A6B"/>
<path fill-rule="evenodd" clip-rule="evenodd" d="M105.385 22.7976H111.303V31.8685C111.303 32.9686 112.199 33.8611 113.304 33.8611H123.806V37.535H111.074C107.927 37.535 105.385 35.0026 105.385 31.8685V22.7976Z" fill="#009999"/>
<path fill-rule="evenodd" clip-rule="evenodd" d="M122.578 22.7976H141V26.4715H134.748V37.535H128.83V26.4715H122.578V22.7976Z" fill="#009999"/>
<path fill-rule="evenodd" clip-rule="evenodd" d="M101.086 26.789V37.535H95.2526V29.7312L101.086 26.789Z" fill="#009999"/>
</g>
<defs>
<clipPath id="clip0_2108_457">
<rect width="141" height="61" fill="white"/>
</clipPath>
</defs>
</svg>
