<svg width="179" height="53" viewBox="0 0 179 53" fill="none" xmlns="http://www.w3.org/2000/svg">
<path fill-rule="evenodd" clip-rule="evenodd" d="M25.9007 24.3765C16.867 25.8612 14.0647 38.685 23.209 40.4277C29.9628 40.5994 30.9644 33.6291 30.141 29.5304C29.3175 26.8184 27.2772 24.4747 25.9007 24.3765ZM22.9314 8.97185C25.2707 9.10377 28.1253 10.0985 31.2286 11.7214C32.6268 12.6848 31.9508 15.2219 30.2516 15.5777C26.5981 16.1145 22.6313 8.01842 19.4204 12.2367C17.5738 16.3631 22.5945 17.4062 28.1867 22.2781C35.8284 28.5703 33.8282 36.8504 29.5141 40.9062C27.1789 42.8574 21.9399 44.5324 17.4201 40.9062C13.2444 37.5746 11.1518 28.0395 21.6235 23.2351C22.5207 22.9591 23.1967 22.7935 23.9833 22.5726C21.095 19.6397 15.6902 16.0257 17.7242 11.3993C18.7675 9.57082 20.5919 8.83993 22.9314 8.97185Z" fill="url(#paint0_linear_2108_414)"/>
<path fill-rule="evenodd" clip-rule="evenodd" d="M37.2422 29.3664L37.261 29.3677L37.2589 29.3682L37.2422 29.3664ZM29.8381 24.0199L29.8393 24.0258L29.8381 24.0424L29.8302 24.1127L29.8273 24.1066L29.8381 24.0199ZM28.31 18.2515L28.2996 18.3033L28.2964 18.3167L28.2951 18.31L28.2995 18.2849C28.3016 18.271 28.3029 18.2626 28.3057 18.2561L28.31 18.2515ZM28.7018 15.9775C28.699 15.9808 28.6908 15.9889 28.6749 16.0039L28.6566 16.0211L28.6462 16.028C28.6402 16.0288 28.7131 15.9646 28.7018 15.9775ZM36.7599 12.8901L36.7666 12.9003L36.7773 12.9072L36.7588 12.9198L36.7599 12.8901ZM31.1604 10.7665L31.1591 10.7706L31.1578 10.7679L31.1604 10.7665ZM31.5647 10.5582L31.6171 10.5688L31.6132 10.5687L31.579 10.5623L31.5647 10.5582ZM31.5475 10.5534L31.5647 10.5582L31.5613 10.5575L31.5408 10.5557L31.5475 10.5534ZM33.2349 10.3614L33.248 10.3669L33.289 10.4058L33.2349 10.3614ZM33.1009 10.2822L33.1289 10.2832L33.1584 10.304C33.1805 10.3199 33.201 10.3346 33.2144 10.3446L33.2349 10.3614L33.1749 10.3355C33.144 10.322 33.14 10.3188 33.1125 10.2927L33.1009 10.2822ZM32.7135 10.2678L32.8189 10.2717L32.9513 10.3074C33.0173 10.3215 33.0835 10.3348 33.1474 10.3558C33.2028 10.374 33.2459 10.4277 33.3039 10.4343C33.3183 10.4359 33.309 10.4246 33.2938 10.4102L33.289 10.4058L33.3374 10.4454C33.4301 10.5216 33.5348 10.5824 33.6277 10.6585C33.6767 10.6985 33.7157 10.7496 33.7618 10.793C33.7754 10.8058 33.7934 10.8397 33.8065 10.8266C33.8196 10.8133 33.7842 10.7966 33.7731 10.7817C33.7261 10.7189 33.7021 10.6414 33.6725 10.5688C33.6497 10.5128 33.6328 10.4705 33.6195 10.4354L33.5899 10.3505L33.8047 10.3989L33.8401 10.4343L33.9893 10.6126L34.0299 10.6696C34.0428 10.6863 34.0879 10.7309 34.0746 10.7145L33.9893 10.6126L33.9183 10.5128C33.8937 10.4766 33.877 10.453 33.8652 10.4356L33.8501 10.409L33.9478 10.431L33.9807 10.4448L34.0076 10.4679L34.0204 10.4615L34.1636 10.5213L34.3316 10.7592C34.3526 10.7833 34.3072 10.7003 34.298 10.6696L34.2724 10.5669L34.3024 10.5795L34.3116 10.6019C34.3157 10.6134 34.3208 10.6231 34.3316 10.6249C34.3583 10.6293 34.378 10.6296 34.3926 10.6268L34.4021 10.6213L34.5086 10.6658L34.5102 10.6696C34.5382 10.7211 34.5609 10.7219 34.5997 10.7706C34.6131 10.7876 34.6203 10.8089 34.6331 10.8266C34.6502 10.8502 34.6703 10.8713 34.689 10.8938C34.7467 10.9633 34.8024 11.0344 34.8565 11.1068C34.8807 11.1391 34.8914 11.1835 34.9235 11.2078C34.9424 11.2219 34.9097 11.1625 34.9012 11.1404C34.8924 11.1175 34.8621 11.0459 34.8453 11.0172C34.8276 10.9867 34.8026 10.9602 34.7895 10.9274L34.7608 10.8122L34.9822 10.951L34.9905 10.9611C35.0277 11.0057 35.0802 11.0369 35.1134 11.0844C35.1241 11.0998 35.1796 11.3258 35.2139 11.3086C35.2644 11.2833 35.2278 11.1963 35.2363 11.1404L35.2385 11.129L35.3704 11.2427L35.3747 11.2986C35.3747 11.3179 35.3751 11.3313 35.3815 11.3199L35.3984 11.2668L35.5279 11.3782L35.5287 11.3903C35.5336 11.4367 35.5487 11.53 35.5938 11.5327C35.6175 11.5342 35.6364 11.5252 35.6514 11.5096L35.661 11.4929L35.7375 11.5588L35.8551 11.693L35.8632 11.7586C35.8673 11.7977 35.8709 11.8362 35.873 11.8579C35.8997 11.9247 35.9014 11.9216 35.9177 12.0036C35.9228 12.0295 35.9235 12.0562 35.9289 12.0821C35.9422 12.146 35.9631 12.2082 35.9736 12.2726C35.9818 12.3244 35.9749 12.4811 35.9848 12.4295C36.013 12.282 36.012 12.1304 36.0293 11.9811L36.0429 11.9067L36.0947 11.9659L36.0964 11.97C36.1047 11.9921 36.1118 12.0145 36.1188 12.0372C36.1747 12.2194 36.0954 12.0067 36.2304 12.3287L36.2352 12.1256L36.2747 12.1705L36.4297 12.4005L36.4315 12.407C36.4384 12.4478 36.4367 12.4896 36.4426 12.5304C36.4649 12.6807 36.4597 12.6599 36.4874 12.7435C36.5326 12.6074 36.4946 12.7277 36.4938 12.5584L36.4956 12.4981L36.6234 12.6879L36.6662 12.7882C36.6727 12.8036 36.6825 12.8174 36.6884 12.8331C36.6939 12.8475 36.6942 12.8634 36.6996 12.8778C36.7055 12.8936 36.7166 12.9068 36.722 12.9227L36.7258 12.9419L36.4502 13.1281C35.9464 13.5407 35.6347 14.1107 35.6347 14.7401C35.6347 15.3697 35.9464 15.9397 36.4502 16.3523L36.7914 16.5827L36.8535 16.6788C37.4647 17.4488 38.9201 18.4336 39.7379 20.2088C40.6724 22.2378 40.9554 26.2681 42.255 28.5336L46.7752 34.2953C46.5946 34.4298 46.4736 34.517 46.3171 34.5214L46.2695 34.5147L45.9412 34.1158V34.4149L45.9279 34.4095C45.7634 34.3284 45.5548 34.2001 45.2737 34.0139L45.0913 33.8905L44.4517 32.6811L44.8442 33.7237L44.7942 33.6899L42.3377 31.3235L42.3369 31.3211L42.3286 31.3147L42.242 31.2313L42.2333 31.2114C42.2319 31.2005 42.235 31.1913 42.2178 31.1565C42.1935 31.108 42.1409 31.0356 42.1134 30.9922C42.098 30.9678 42.0841 30.942 42.0688 30.9175C42.0102 30.8234 42.0295 30.8727 41.9049 30.7382C41.8833 30.7147 41.8653 30.6884 41.8453 30.6634C41.8255 30.6535 41.803 30.6475 41.7858 30.6335C41.7003 30.5632 41.6332 30.4543 41.7262 30.6036C41.7357 30.6189 41.748 30.6323 41.756 30.6485C41.7886 30.7139 41.7868 30.7278 41.8007 30.798C41.8156 30.8178 41.8335 30.8358 41.8453 30.8576L41.8807 30.9394L41.513 30.7452L41.1139 30.4838L41.1006 30.4691C41.0197 30.3786 40.9594 30.2715 40.8922 30.1702C40.8699 30.1367 40.866 30.0879 40.8325 30.0656C40.8116 30.0515 40.8425 30.1154 40.8475 30.1404C40.8575 30.1602 40.8691 30.1794 40.8773 30.2L40.9122 30.3468L40.3783 29.9758L40.3471 29.9137C40.3254 29.8547 40.3063 29.7941 40.2816 29.7367C40.2667 29.7218 40.258 29.692 40.2369 29.692C40.2211 29.692 40.249 29.7213 40.2518 29.7367C40.259 29.7762 40.2606 29.8167 40.2667 29.8564L40.2764 29.905L40.1843 29.841L40.1625 29.8115C40.1257 29.7641 40.0805 29.7238 40.0433 29.6769C40.0024 29.6256 39.9556 29.5383 39.924 29.4827C39.9109 29.4594 39.9437 29.5325 39.9538 29.5574C40.0074 29.6877 40.0212 29.7099 40.0258 29.7239L40.0279 29.738L39.5976 29.4894L39.5612 29.445C39.5291 29.4098 39.4963 29.3773 39.4773 29.3631C39.4376 29.3333 39.3932 29.3087 39.3582 29.2735C39.3175 29.2326 39.3049 29.2158 39.2539 29.1838C39.2118 29.1574 39.1931 29.1535 39.1497 29.1389C39.1794 29.1738 39.2079 29.2099 39.239 29.2436C39.2675 29.2746 39.3008 29.3013 39.3283 29.3333L39.3786 29.3982L39.0746 29.2743L38.957 29.2523L38.9411 29.2285C38.915 29.1999 38.8757 29.1845 38.8518 29.1538C38.8202 29.1135 38.8283 29.0193 38.7772 29.0193C38.7302 29.0193 38.7998 29.1122 38.822 29.1538L38.8941 29.2407L38.8708 29.2364L38.8288 29.2246C38.7856 29.2127 38.7987 29.2163 38.7177 29.1838C38.5558 29.1187 38.3701 29.1538 38.1964 29.1389C38.0127 29.1438 37.8287 29.1424 37.6453 29.1538C37.6201 29.1555 37.6946 29.1673 37.7199 29.1687L38.2548 29.1932L38.2153 29.1959L37.5113 29.1838C37.3354 29.1795 37.2224 29.1751 37.1545 29.1715L37.1368 29.1704L37.0945 29.1661C37.0665 29.1641 37.0573 29.1648 37.0844 29.1671L37.1368 29.1704L37.1484 29.1715C37.1909 29.1768 37.2432 29.1854 37.2879 29.1987C37.3246 29.2097 37.3966 29.239 37.4716 29.2679L37.5601 29.3L37.5465 29.3029L37.2691 29.3659L37.0198 29.3033C36.9892 29.2967 37.0791 29.3239 37.1091 29.3333C37.1437 29.3439 37.1788 29.3531 37.2135 29.3631L37.2422 29.3664L37.1986 29.3631C37.0332 29.351 36.8722 29.3021 36.7071 29.2884C36.6601 29.2844 36.7953 29.3223 36.8412 29.3333C36.8998 29.3472 36.9602 29.3536 37.0198 29.3631C37.0546 29.3687 37.0908 29.3669 37.124 29.378L37.1512 29.3918L36.9428 29.4286L36.7597 29.4231L36.722 29.408C36.6924 29.3972 36.6627 29.3867 36.6326 29.378C36.5932 29.3667 36.5534 29.3574 36.5134 29.3482C36.4888 29.3424 36.4633 29.3405 36.439 29.3333C36.4133 29.3256 36.3405 29.2913 36.3645 29.3033C36.4908 29.3667 36.6052 29.4082 36.7517 29.4229L36.7597 29.4231L36.7964 29.4378L36.8356 29.4477L36.4949 29.5083L36.4667 29.4794C36.4362 29.4513 36.4038 29.4244 36.3794 29.408C36.3609 29.3955 36.3397 29.388 36.3199 29.378C36.3099 29.3582 36.3058 29.3341 36.2901 29.3184C36.2696 29.2977 36.197 29.2512 36.2155 29.2735C36.2573 29.3236 36.3101 29.3831 36.3687 29.4377L36.4733 29.5121L36.4659 29.5134C36.3491 29.5263 36.2311 29.5342 36.1093 29.5357L35.9956 29.5309L35.8879 29.4229C35.7904 29.311 35.7029 29.1905 35.6049 29.0791C35.5813 29.0522 35.6478 29.1371 35.6646 29.1687C35.6926 29.222 35.7157 29.2777 35.739 29.3333C35.7555 29.3724 35.7662 29.4141 35.7837 29.4527C35.7955 29.4788 35.8091 29.4914 35.8204 29.5063L35.8265 29.5237L35.7304 29.5198L35.3963 29.4691L35.3896 29.4588C35.3735 29.4421 35.3425 29.4159 35.2624 29.3184C35.2422 29.2936 35.217 29.2721 35.2028 29.2436C35.1929 29.2236 35.1864 29.2015 35.1731 29.1838C35.1562 29.1612 35.1333 29.1438 35.1134 29.124C35.1433 29.2036 35.1469 29.299 35.2028 29.3631L35.2758 29.4468L34.883 29.3472L34.8752 29.3033C34.8673 29.2797 34.8553 29.2436 34.8304 29.2436C34.8099 29.2436 34.8353 29.2854 34.8453 29.3033L34.8784 29.346L34.8486 29.3383L34.7519 29.3046L34.7411 29.2884C34.7228 29.2671 34.7 29.2499 34.6815 29.2285C34.6652 29.2099 34.6369 29.1438 34.6369 29.1687C34.6369 29.1979 34.6667 29.2187 34.6815 29.2436L34.6615 29.2705L34.649 29.249C34.6351 29.2338 34.6182 29.2235 34.5966 29.2212L34.5625 29.2384L34.4291 29.1918L34.3855 29.1315C34.3586 29.1019 34.3255 29.0722 34.2837 29.0417C34.2656 29.0285 34.2618 29.0509 34.2616 29.0822V29.1333L34.2347 29.124L33.7618 28.7725L33.7477 28.5262C33.7179 28.4962 33.6987 28.4249 33.6582 28.4365C33.6102 28.4503 33.6302 28.6024 33.5912 28.5709C33.5319 28.5234 33.5615 28.4215 33.5466 28.3467C33.5242 28.3692 33.4979 28.3882 33.4796 28.4141L33.4209 28.5193L33.2861 28.419L32.799 28.0003L32.7423 27.9433L32.7417 27.9508L32.5991 27.8282L32.5752 27.7288C32.565 27.6983 32.5537 27.6773 32.5412 27.6742C32.5121 27.667 32.5085 27.6968 32.5111 27.736L32.5122 27.7535L32.4947 27.7384L32.4906 27.6837C32.4893 27.6568 32.486 27.6306 32.4742 27.607C32.4575 27.5736 32.4147 27.5621 32.3849 27.5396L32.3457 27.6001L32.3412 27.5955L32.3408 27.5944C32.3441 27.5696 32.351 27.5118 32.3179 27.45C32.2879 27.3943 32.2284 27.3604 32.1838 27.3155L32.1847 27.4357L31.8346 27.0783L31.833 27.0715C31.8297 27.0577 31.8272 27.048 31.8264 27.0465C31.7889 26.982 31.7369 26.9269 31.6924 26.8671L31.6984 26.9394L31.6153 26.8545L31.5806 26.7327C31.5359 26.6803 31.5108 26.5515 31.4465 26.5757L31.4266 26.6211L31.3666 26.5467L31.3461 26.4654C31.3327 26.4135 31.3192 26.3648 31.3125 26.3515C31.2984 26.3232 31.2678 26.3066 31.2455 26.2844L31.2111 26.3533L31.1127 26.2311L31.1057 26.2134C31.0682 26.1193 31.0102 25.9768 30.9998 25.9704C30.9803 25.9587 30.9766 25.9812 30.9769 26.0122L30.9772 26.0626L30.9623 26.0443L30.9551 26.0153C30.9464 25.9463 30.9387 25.4324 30.7987 25.4324C30.746 25.4324 30.7386 25.4846 30.7424 25.55L30.7537 25.7423L30.7527 25.7406L30.7324 25.6503C30.6921 25.4735 30.7163 25.5915 30.687 25.2531C30.6804 25.1782 30.7394 25.0289 30.6647 25.0289C30.5644 25.0289 30.5307 25.1784 30.4636 25.2531C30.3971 25.1197 30.4164 25.1746 30.3742 24.984C30.3578 24.9096 30.3555 24.8314 30.3296 24.7598C30.2953 24.6656 30.2355 24.5827 30.1955 24.4907C30.1832 24.4625 30.1806 24.4309 30.1731 24.4011C30.1508 24.4309 30.1385 24.5092 30.106 24.4907C30.0184 24.4404 30.0064 24.2382 29.9945 24.1545C29.9758 24.1658 29.9586 24.1843 29.9407 24.1992L29.8843 24.2212L29.8624 24.1769L29.8604 24.132L29.8393 24.0258L29.8604 23.7285C29.8668 23.6283 29.9568 23.1765 29.8381 23.4147C29.8275 23.4359 29.8232 23.4595 29.8157 23.4819C29.7711 23.5268 29.7398 23.5915 29.6816 23.6165C29.66 23.6258 29.6624 23.5725 29.6593 23.5493C29.6475 23.46 29.6444 23.3698 29.637 23.2802C29.6444 23.1979 29.6636 23.116 29.6593 23.0336C29.6561 22.9721 29.6752 22.8644 29.6146 22.8543C29.5554 22.8443 29.5551 22.9588 29.5253 23.0111C29.5253 23.0111 29.4986 22.4859 29.4582 22.2265C29.4541 22.1999 29.4284 22.2714 29.4135 22.2938C29.3912 22.1891 29.4096 22.0662 29.3465 21.9798C29.3111 21.9313 29.2193 21.9885 29.1679 21.9575C29.1334 21.9367 29.138 21.8828 29.1231 21.8455C29.1307 21.8155 29.1285 21.7814 29.1454 21.7556C29.1603 21.7334 29.1936 21.7299 29.2124 21.7109C29.2314 21.6917 29.2423 21.666 29.2572 21.6436C29.2572 21.6436 29.1371 21.7337 29.1231 21.6885C29.09 21.5803 29.1529 21.4643 29.1679 21.3522C29.1603 21.3148 29.177 21.2612 29.1454 21.2401C29.1231 21.2252 29.1128 21.2832 29.1008 21.3073C29.0828 21.3433 29.071 21.382 29.0561 21.4194L28.9234 21.3227L28.875 21.0575L28.8804 21.0606L28.8696 21.0275L28.8663 21.0097L28.8847 20.9569C28.9043 20.9173 28.9319 20.8748 28.9363 20.8365C28.9381 20.8207 28.9135 20.8584 28.9029 20.8702L28.8516 20.9281L28.8188 20.7483L28.8245 20.7021C28.8291 20.6824 28.8411 20.6652 28.847 20.646C28.856 20.6165 28.8619 20.5862 28.8693 20.5562C28.8693 20.5562 28.9296 20.4446 28.9586 20.3881C28.9604 20.3848 29.0851 20.142 29.1039 20.0854C29.108 20.0726 29.0871 20.1069 29.0815 20.1192C29.0684 20.1482 29.0615 20.18 29.0481 20.2088C29.0317 20.2436 29.0118 20.2767 28.9922 20.3096C28.9784 20.3327 28.9614 20.3539 28.9474 20.377C28.9278 20.4099 28.9137 20.4464 28.8916 20.4779C28.8688 20.5104 28.836 20.5348 28.8134 20.5675L28.7944 20.6139L28.7791 20.5302L28.7457 20.2752L28.7585 20.2514C28.7885 20.2039 28.82 20.157 28.847 20.1079C28.9733 19.8778 28.9891 19.8422 29.0815 19.6035C29.0876 19.5879 29.0681 19.6343 29.0592 19.6484C29.0207 19.7092 28.9996 19.7233 28.9699 19.7829C28.9533 19.8157 28.9384 19.8494 28.9252 19.8837C28.9124 19.9168 28.9101 19.9543 28.8916 19.9846C28.8683 20.023 28.8301 20.0502 28.8023 20.0854L28.7338 20.1838L28.6644 19.6557L28.6631 19.6515L28.6571 19.2225C28.6571 19.2225 28.6403 19.3463 28.6012 19.3906C28.5846 19.4093 28.5789 19.3457 28.5678 19.3232C28.5714 19.2972 28.5741 19.2708 28.5789 19.2447C28.5817 19.2297 28.5877 19.2152 28.59 19.2C28.5951 19.1666 28.5974 19.1327 28.6012 19.0991C28.6797 19.0204 28.6159 19.0956 28.6793 18.8973C28.7642 18.6323 28.7156 18.87 28.7575 18.6171C28.7428 18.6395 28.7293 18.663 28.7129 18.6843C28.6433 18.7751 28.6487 18.7461 28.59 18.8413C28.5584 18.8926 28.5432 18.9557 28.5007 18.9983C28.494 19.005 28.4847 19.003 28.4747 18.9991L28.4535 18.9906L28.4483 18.9716L28.4645 18.8996C28.4732 18.8618 28.4558 18.9324 28.4783 18.7516C28.484 18.7064 28.4922 18.6617 28.5007 18.6171C28.5071 18.5832 28.5215 18.5506 28.523 18.5161C28.5251 18.4675 28.5156 18.419 28.5119 18.3705C28.5119 18.3705 28.4126 18.493 28.3442 18.5275C28.3208 18.5393 28.3511 18.475 28.3555 18.449C28.3839 18.2774 28.3865 18.3739 28.3555 18.2023L28.31 18.2515L28.3108 18.2472C28.3141 18.2322 28.3177 18.2171 28.3219 18.2023C28.3252 18.191 28.3309 18.1804 28.3331 18.1687C28.3385 18.1391 28.3398 18.1088 28.3442 18.0791C28.3472 18.0602 28.3518 18.0417 28.3555 18.023C28.3667 18.0044 28.3806 17.987 28.389 17.967C28.4114 17.9128 28.4144 17.8672 28.4225 17.81C28.3963 17.8212 28.3686 17.829 28.3442 17.8436C28.3264 17.8544 28.2718 17.9249 28.2661 17.9332L28.2587 17.9482L28.2572 17.9331L28.2772 17.8325C28.2772 17.8325 28.3318 17.7233 28.3442 17.6643C28.3954 17.4229 28.4035 17.4303 28.3219 17.4849C28.3108 17.4868 28.298 17.4936 28.286 17.498L28.2631 17.4967L28.2672 17.4555L28.2772 17.4401C28.2978 17.3885 28.3146 17.3354 28.3331 17.2831C28.3527 17.2281 28.4285 17.1822 28.4112 17.1262C28.4053 17.1065 28.3835 17.1144 28.3588 17.1245L28.2993 17.1355L28.301 17.1178L28.3083 17.0744L28.3108 17.0701C28.37 17.0108 28.3226 17.0655 28.3667 16.9918C28.4237 16.8964 28.4026 16.9593 28.4225 16.8797C28.4225 16.8797 28.3555 16.8808 28.3555 16.8572C28.3555 16.8084 28.4853 16.7392 28.5119 16.7227C28.4699 16.7122 28.4049 16.6993 28.3778 16.6666C28.3691 16.6563 28.4017 16.6537 28.4112 16.6442C28.4208 16.6347 28.4262 16.6217 28.4337 16.6106C28.4486 16.5995 28.4652 16.5901 28.4783 16.577C28.6331 16.4217 28.4525 16.5908 28.5453 16.4874C28.57 16.4598 28.5992 16.4366 28.6235 16.4089C28.6551 16.373 28.6916 16.3395 28.7129 16.2968C28.7203 16.2819 28.6823 16.3104 28.6682 16.3192C28.6525 16.3291 28.6384 16.3415 28.6235 16.3528C28.535 16.3705 28.5846 16.3554 28.4783 16.4089L28.4293 16.4177L28.4712 16.2204L28.4896 16.1958C28.5052 16.1739 28.5161 16.1485 28.5342 16.1286C28.5538 16.107 28.5797 16.0923 28.6012 16.0726L28.6566 16.0211L28.6684 16.0131C28.6823 16.0026 28.7038 15.9857 28.7352 15.9605L28.7732 15.9223L28.798 15.9274C28.8106 15.9294 28.8068 15.9264 28.7965 15.9215L28.7809 15.9148L28.8358 15.8709C28.7603 15.8961 28.8532 15.8669 28.7352 15.8932C28.7324 15.8938 28.7426 15.8986 28.756 15.9041L28.7809 15.9148L28.78 15.9156L28.7732 15.9223L28.7657 15.9207C28.7501 15.9169 28.7292 15.9117 28.7018 15.9045L28.6012 15.8764L28.7018 15.7924C28.7239 15.7673 28.7241 15.7273 28.7464 15.7026C28.7996 15.6439 28.8691 15.6019 28.9252 15.5457C28.9663 15.5044 28.9996 15.4561 29.0368 15.4112C28.9847 15.4261 28.8021 15.4761 28.7464 15.5008C28.722 15.5118 28.7021 15.5315 28.6793 15.5457L28.6171 15.5833L28.643 15.4746L28.7241 15.4112C28.7562 15.3838 28.7929 15.3584 28.8134 15.3216C28.8319 15.2883 28.8283 15.2468 28.8358 15.2095C28.8358 15.2095 28.7454 15.2367 28.7018 15.2542L28.6902 15.2599L28.7031 15.1859L28.7688 15.1198C28.8078 15.0766 28.8393 15.0266 28.8804 14.9853C28.9216 14.944 28.9833 14.9224 29.0145 14.8732C29.0389 14.8348 29.0294 14.7835 29.0368 14.7386C28.9847 14.7611 28.9276 14.7744 28.8804 14.8058C28.8504 14.826 28.8037 14.882 28.7544 14.933L28.746 14.9405L28.788 14.701L28.7911 14.6937C28.8042 14.6631 28.8209 14.6341 28.8358 14.6041L28.9699 14.3352C28.9922 14.3201 29.0307 14.3165 29.0368 14.2903C29.0625 14.181 29.0468 14.0656 29.0592 13.954C29.0618 13.9306 29.0795 13.9103 29.0815 13.8867L29.0982 13.5532L29.1762 13.3334L29.2488 13.3113C29.3635 13.2942 29.4363 13.3254 29.3049 13.2815C29.3198 13.2515 29.333 13.2208 29.3496 13.1918C29.3629 13.1684 29.3883 13.1507 29.3943 13.1245C29.426 12.9844 29.4614 12.8423 29.4614 12.6986L29.4568 12.692L29.5058 12.587L29.5082 12.5829L29.6988 12.5543C29.8783 12.5358 29.9253 12.5501 29.6177 12.5191C29.6326 12.4595 29.6495 12.4001 29.6624 12.3398L29.6633 12.3225L29.7426 12.1894L29.7965 12.1828C29.8766 12.1399 29.9453 12.0783 30.0198 12.026C29.9751 12.0222 29.9164 12.0375 29.8648 12.0434L29.834 12.0424L29.9007 11.9541L29.9294 11.9506C29.9535 11.9444 29.9712 11.9336 29.9751 11.9139C29.9784 11.8974 29.9717 11.888 29.9587 11.8834L29.9543 11.8833L30.0965 11.6948L30.1092 11.6897C30.1911 11.6748 30.4382 11.6448 30.355 11.6448C30.2948 11.6448 30.2353 11.6601 30.1759 11.6732L30.108 11.6796L30.1585 11.6127L30.3529 11.41L30.3996 11.3982C30.4223 11.392 30.4436 11.381 30.4666 11.3759C30.5108 11.3659 30.6209 11.3941 30.6006 11.3535C30.5772 11.3061 30.4943 11.3477 30.4443 11.331L30.4336 11.3256L30.5311 11.224L30.5767 11.187L30.6839 11.1716C30.9964 11.1281 30.7309 11.1793 30.9805 11.1293C30.958 11.1217 30.9367 11.1101 30.9135 11.1068C30.8727 11.1009 30.8302 11.1036 30.7884 11.1034L30.6975 11.0891L30.7586 11.0395L30.7829 11.038C30.8304 11.0346 30.9317 11.0241 30.9805 10.9947C31.0131 10.9751 30.9048 10.9844 30.8687 10.9723L30.8518 10.9638L30.9267 10.9031L30.9926 10.9015C31.1286 10.9194 31.2289 10.9751 31.2486 10.8377C31.2519 10.815 31.2511 10.782 31.247 10.742L31.2433 10.7181L31.3173 10.6752L31.3268 10.6809C31.3422 10.6912 31.354 10.7081 31.3713 10.7145C31.3961 10.7235 31.4236 10.7214 31.4497 10.7257L31.4025 10.6255L31.4933 10.5726L31.5074 10.5677L31.6132 10.5687L31.673 10.58C31.7476 10.5824 31.8325 10.6073 31.8964 10.5688C31.9321 10.5472 31.822 10.5315 31.7848 10.5128C32.0137 10.5243 32.0573 10.5515 31.9603 10.4782L31.8972 10.4287L31.9518 10.4094L31.9705 10.4141C31.9883 10.419 32.0114 10.4254 32.0416 10.4343C32.1389 10.4625 32.2312 10.5147 32.332 10.5239C32.3588 10.5264 32.3053 10.4767 32.2874 10.4567C32.2715 10.4389 32.2491 10.4281 32.2315 10.4118C32.2068 10.3891 32.1899 10.3735 32.1776 10.3614L32.1671 10.3489L32.3633 10.3189L32.4103 10.3446C32.5267 10.4141 32.6363 10.4951 32.7566 10.5575C32.7777 10.5685 32.7287 10.5184 32.7118 10.5015C32.6987 10.4884 32.682 10.479 32.6671 10.4679C32.5857 10.4066 32.5213 10.3622 32.4727 10.3296L32.4401 10.3071L32.6827 10.2698L32.7445 10.2855L32.7476 10.2866C32.7562 10.2889 32.7623 10.2899 32.7566 10.2886L32.7445 10.2855L32.723 10.2773L32.7135 10.2678Z" fill="#FFCC00"/>
<path fill-rule="evenodd" clip-rule="evenodd" d="M37.2221 29.2739L37.2413 29.2754L37.2392 29.2759L37.2221 29.2739ZM31.8624 21.7391H38.5813V29.0717L38.4619 29.053C38.3721 29.0519 38.2808 29.0568 38.1925 29.0494C38.0056 29.0544 37.8185 29.0529 37.6322 29.0642C37.6064 29.0658 37.6821 29.0775 37.7079 29.0789L38.2518 29.103L38.2115 29.1058L37.4958 29.0937C37.317 29.0896 37.202 29.0852 37.133 29.0817L37.115 29.0806L37.072 29.0763C37.0435 29.0743 37.0342 29.075 37.0617 29.0773L37.115 29.0806L37.1268 29.0817C37.1699 29.0868 37.2231 29.0953 37.2687 29.1086C37.3061 29.1193 37.379 29.1484 37.4555 29.1768L37.5453 29.2086L37.5315 29.2113L37.2495 29.2736L36.996 29.2118C36.9649 29.2053 37.0565 29.2322 37.0869 29.2413C37.122 29.2518 37.1576 29.261 37.193 29.2708L37.2221 29.2739L37.1777 29.2708C37.0098 29.2589 36.8459 29.2107 36.6781 29.1971C36.6304 29.1932 36.7677 29.2305 36.8143 29.2413C36.8741 29.2553 36.9354 29.2615 36.996 29.2708C37.0314 29.2762 37.0683 29.2746 37.102 29.2856L37.1297 29.299L36.9177 29.3356L36.7317 29.3302L36.6932 29.3151C36.6632 29.3044 36.633 29.2941 36.6024 29.2856C36.5624 29.2744 36.5217 29.2653 36.4813 29.2561C36.456 29.2505 36.4301 29.2485 36.4054 29.2413C36.3795 29.2338 36.3054 29.2 36.3297 29.2118C36.4582 29.2744 36.5745 29.3154 36.7235 29.3298L36.7317 29.3302L36.7689 29.3446L36.8089 29.3544L36.4624 29.4141L36.4337 29.3857C36.4026 29.358 36.3697 29.3313 36.3449 29.3151C36.3261 29.303 36.3044 29.2954 36.2843 29.2856C36.2743 29.2659 36.27 29.2422 36.254 29.2266C36.2332 29.2063 36.1594 29.1602 36.1783 29.1823C36.2207 29.2318 36.2743 29.2907 36.3341 29.3446L36.4405 29.418L36.4328 29.4193C36.3141 29.4319 36.194 29.4398 36.0703 29.4413L35.9546 29.4365L35.8451 29.3298C35.746 29.2194 35.6571 29.1006 35.5575 28.9904C35.5334 28.9639 35.6009 29.0476 35.618 29.0789C35.6465 29.1315 35.6701 29.1866 35.6937 29.2413C35.7104 29.28 35.7214 29.3211 35.7391 29.3595C35.751 29.3851 35.765 29.3977 35.7766 29.4123L35.7827 29.4295L35.685 29.4255L35.3453 29.3756L35.3384 29.3654C35.3222 29.3488 35.2905 29.3229 35.2091 29.2266C35.1886 29.2023 35.163 29.181 35.1486 29.1528C35.1385 29.1332 35.1317 29.1114 35.1183 29.0937C35.1011 29.0716 35.0778 29.0544 35.0577 29.0347C35.088 29.1135 35.0918 29.2076 35.1486 29.2708L35.2229 29.3536L34.8235 29.2551L34.8155 29.2118C34.8074 29.1886 34.7951 29.1528 34.7699 29.1528C34.7491 29.1528 34.775 29.1941 34.7852 29.2118L34.8187 29.254L34.7884 29.2464L34.6901 29.2132L34.6791 29.1971C34.6606 29.176 34.6373 29.1589 34.6185 29.1381C34.6019 29.1196 34.5731 29.0544 34.5731 29.0789C34.5731 29.1076 34.6034 29.1283 34.6185 29.1528L34.5982 29.1794L34.5854 29.1583C34.5713 29.1432 34.5541 29.133 34.5321 29.1307L34.4976 29.1478L34.3619 29.1017L34.3176 29.0422C34.2902 29.0129 34.2565 28.9836 34.2142 28.9536C34.1955 28.9403 34.1918 28.9626 34.1916 28.9936V29.044L34.1642 29.0347L33.6834 28.6878L33.669 28.4444C33.6387 28.4149 33.6193 28.3444 33.578 28.3559C33.5292 28.3695 33.5497 28.5196 33.51 28.4887C33.4497 28.4416 33.4797 28.3412 33.4645 28.2673C33.4419 28.2894 33.415 28.3082 33.3963 28.3338L33.3366 28.4375L33.1996 28.3387L32.7044 27.9251L32.6467 27.8689L32.6462 27.8764L32.5012 27.7553L32.4768 27.657C32.4665 27.627 32.455 27.6063 32.4424 27.6032C32.4127 27.596 32.409 27.6255 32.4116 27.6642L32.4129 27.6814L32.395 27.6667L32.3909 27.6126C32.3894 27.586 32.3862 27.5601 32.3742 27.5369C32.3573 27.5038 32.3136 27.4925 32.2833 27.4703L32.2436 27.53L32.239 27.5254L32.2385 27.5244C32.242 27.5 32.2488 27.4428 32.2153 27.3818C32.1848 27.3268 32.1243 27.2933 32.0789 27.2489L32.0799 27.3677L31.8624 27.1521V21.7391Z" fill="#F2F2F2"/>
<path fill-rule="evenodd" clip-rule="evenodd" d="M35.8116 21.9082C35.8222 21.901 35.8386 21.901 35.8621 21.91C36.142 22.0177 36.4255 22.1147 36.7019 22.233C37.0084 22.3643 36.9659 22.4061 37.2498 22.5562C37.4417 22.6576 37.6252 22.7953 37.8341 22.8389C38.4723 22.9718 39.7698 23.0812 39.7698 23.0812C39.8429 23.135 39.9127 23.1945 39.9889 23.2427C40.0835 23.3025 40.1917 23.3357 40.2811 23.4042C40.3519 23.4585 40.3986 23.5439 40.4637 23.6061L40.8037 23.907L40.863 24.1746C41.2129 25.7354 41.6084 27.3258 42.2576 28.4706L46.7752 34.2928C46.5948 34.4288 46.4738 34.5168 46.3173 34.5214L46.2696 34.5145L45.9417 34.1116V34.4137L45.9285 34.4083C45.7641 34.3264 45.5555 34.1966 45.2746 34.0085L45.0924 33.8839L44.4532 32.6618L44.8454 33.7153L44.7956 33.6812L42.3404 31.2899L42.3396 31.2873L42.3312 31.2809L42.2447 31.1967L42.2362 31.1765C42.2345 31.1656 42.2378 31.1562 42.2204 31.1212C42.1962 31.072 42.1437 30.9989 42.1162 30.955C42.1006 30.9302 42.0869 30.9044 42.0716 30.8796C42.0131 30.7846 42.0323 30.8342 41.9079 30.6984C41.8863 30.6746 41.8681 30.6479 41.8483 30.6228C41.8284 30.6126 41.806 30.6067 41.7888 30.5925C41.7032 30.5215 41.6362 30.4114 41.7293 30.5623C41.7386 30.5777 41.7509 30.5915 41.759 30.6077C41.7916 30.6739 41.7898 30.688 41.8037 30.7587C41.8186 30.7788 41.8365 30.797 41.8483 30.8191L41.8837 30.9017L41.5161 30.7054L41.1172 30.4412L41.1041 30.4265C41.023 30.335 40.9629 30.2266 40.8957 30.1243C40.8735 30.0905 40.8694 30.0412 40.8362 30.0186C40.815 30.0043 40.846 30.0689 40.8511 30.0941C40.8609 30.1143 40.8726 30.1336 40.8808 30.1546L40.9157 30.3029L40.3821 29.928L40.3509 29.8652C40.3291 29.8056 40.3101 29.7443 40.2854 29.6864C40.2705 29.6713 40.2618 29.641 40.2408 29.641C40.2251 29.641 40.2528 29.6707 40.2556 29.6864C40.2628 29.7262 40.2644 29.7671 40.2705 29.8072L40.2801 29.8565L40.1882 29.7918L40.1663 29.7618C40.1297 29.714 40.0846 29.6733 40.0473 29.626C40.0063 29.5742 39.9598 29.4857 39.9281 29.4296C39.9149 29.406 39.9478 29.4801 39.958 29.5052C40.0114 29.6368 40.0252 29.6592 40.0297 29.6733L40.0319 29.6876L39.6019 29.4363L39.5653 29.3914C39.5334 29.3561 39.5006 29.3233 39.4816 29.3089C39.4419 29.2785 39.3977 29.2538 39.3626 29.2182C39.322 29.1769 39.3092 29.1599 39.2584 29.1276C39.2163 29.1009 39.1976 29.097 39.1542 29.0822C39.184 29.1174 39.2125 29.1538 39.2435 29.1879C39.272 29.2194 39.3053 29.2463 39.3328 29.2785L39.3831 29.3441L39.1899 29.2646L39.1124 29.1796C39.0665 29.1409 39.0113 29.122 38.9541 29.1071L38.8492 29.0771L38.8266 29.014C38.8182 28.9852 38.8076 28.9614 38.782 28.9614C38.7586 28.9614 38.7641 28.9849 38.7784 29.0136L38.8082 29.0653L38.7838 29.0583C38.7328 29.0368 38.6855 29.0063 38.6376 28.9777C38.5514 28.9255 38.4746 28.8521 38.382 28.8161C38.0141 28.6725 37.8461 28.8113 37.469 28.5334C37.4325 28.5064 37.3931 28.4836 37.3594 28.4526C37.1783 28.2858 37.2866 28.2912 36.9941 28.1294C36.9387 28.0988 36.8723 28.1026 36.8116 28.0891C36.9212 28.0757 37.0398 28.0991 37.1403 28.0487C37.1898 28.0237 37.2376 27.941 37.2134 27.8872C37.184 27.8223 37.0916 27.8333 37.0306 27.8064C36.7663 27.1047 36.7847 27.4821 37.1037 26.6755C37.1159 26.5544 37.091 26.4212 37.1403 26.3121C37.1721 26.2419 37.3102 26.2681 37.3228 26.1909C37.3643 25.9389 37.326 25.6759 37.2863 25.4235C37.276 25.3573 37.2081 25.3198 37.1768 25.2621C37.1347 25.1846 37.1124 25.0948 37.0672 25.0197C37.0385 24.9722 36.9907 24.9424 36.9576 24.8986C36.8174 24.7125 36.9166 24.6856 36.629 24.4947L36.2637 24.2525C36.1208 23.6991 36.237 24.204 36.1177 23.3235C36.0969 23.1704 36.0312 23.0319 36.0081 22.8792C35.992 22.7722 35.9877 22.6632 35.9715 22.5562C35.943 22.3671 35.7372 21.959 35.8116 21.9082Z" fill="#D9D9D9"/>
<path fill-rule="evenodd" clip-rule="evenodd" d="M36.1096 28.6219L33.6159 30.4003C32.9473 30.4153 33.0826 30.1096 32.2556 29.7925C31.7077 29.7925 31.2051 29.3569 30.578 29.8267C30.9067 29.8688 31.4732 29.8882 31.6322 30.2282C30.8349 30.3621 29.9471 29.8655 29.2404 30.6297C30.2904 30.3126 30.7517 30.6143 31.5073 30.6066L31.1787 31.1461C31.2546 31.3142 31.9078 30.8747 32.0176 30.9969L32.857 31.3642C33.2872 31.4486 33.3552 31.8881 33.1626 32.1786C33.2374 32.4159 34.0592 31.7477 34.3035 30.942L34.5334 30.6533L36.7787 28.6909L36.1096 28.6219Z" fill="url(#paint1_linear_2108_414)"/>
<path fill-rule="evenodd" clip-rule="evenodd" d="M32.0127 19.9365L29.519 21.6341C28.8504 21.6485 28.9858 21.3566 28.1587 21.0538C27.6109 21.0538 27.1083 20.638 26.4811 21.0866C26.8098 21.1269 27.3764 21.1451 27.5353 21.4697C26.7381 21.5975 25.8502 21.1236 25.1436 21.853C26.1935 21.5503 26.6548 21.8382 27.4105 21.831L27.0819 22.3459C27.1578 22.5064 27.811 22.087 27.9208 22.2035L28.7601 22.5542C29.1903 22.6347 29.2583 23.0542 29.0658 23.3316C29.1405 23.558 29.9623 22.9202 30.2067 22.1511L30.4366 21.8754L32.6818 20.0023L32.0127 19.9365Z" fill="url(#paint2_linear_2108_414)"/>
<path fill-rule="evenodd" clip-rule="evenodd" d="M33.71 28.4631L33.8209 28.4944C33.9162 28.5427 33.9914 28.624 34.0766 28.6889C34.0553 28.7753 34.0405 28.8636 34.0127 28.9482L34.0122 28.9496L33.7531 28.7551L33.739 28.5065L33.71 28.4631ZM33.5432 28.4313L33.5992 28.4318L33.6302 28.4405L33.6246 28.4475C33.6081 28.495 33.612 28.5755 33.5828 28.5517C33.5533 28.5278 33.5458 28.4901 33.544 28.449L33.5432 28.4313ZM33.3931 28.4298L33.4509 28.4303L33.4127 28.4996L33.4014 28.4911L33.3931 28.4298ZM33.6604 27.9641L33.6715 27.9829C33.6799 27.9985 33.6817 28.0032 33.6744 27.9905L33.6604 27.9641ZM29.8355 23.9599L29.8368 23.966L29.8355 23.9826L29.8278 24.0535L29.8248 24.0474L29.8355 23.9599ZM28.3098 18.1397L28.2995 18.192L28.2964 18.2056L28.2951 18.1987L28.2993 18.1735C28.3016 18.1594 28.3029 18.151 28.3055 18.1443L28.3098 18.1397ZM28.7011 15.8455C28.6984 15.8487 28.6902 15.8569 28.6743 15.872L28.6559 15.8894L28.6457 15.8964C28.6395 15.8972 28.7124 15.8323 28.7011 15.8455ZM28.8121 15.1841L28.8991 15.2062C29.0474 15.2335 29.1977 15.2478 29.3465 15.2709C29.4746 15.2909 29.602 15.3158 29.7301 15.3358C29.8789 15.3591 30.0384 15.3419 30.1775 15.4005C30.3035 15.4538 30.3905 15.5734 30.4971 15.66C30.617 15.7573 30.7463 15.8435 30.8807 15.9192C30.9395 15.9523 31.0121 15.9535 31.0724 15.9839C31.4521 16.1765 31.4423 16.2294 31.7755 16.5673C31.7755 16.5673 32.291 16.6332 32.5426 16.697C32.635 16.7204 32.713 16.7835 32.7982 16.8266C32.7982 16.8266 34.5853 17.0363 35.4828 17.086C35.7603 17.1012 36.0369 17.0427 36.3138 17.0211C36.399 17.0427 36.4831 17.0699 36.5695 17.086C36.7178 17.1132 36.8792 17.0888 37.017 17.1507C37.0872 17.1824 37.1298 17.2689 37.1448 17.3453C37.1952 17.6004 37.1875 17.8638 37.2088 18.123C37.2727 18.1663 37.3749 18.1792 37.4005 18.2526C37.7009 19.1161 37.6052 19.1526 37.4644 19.9381C37.3579 20.0245 37.1845 20.0649 37.1448 20.1973C37.0262 20.5923 37.0332 21.0164 37.017 21.4289C37.0118 21.5603 37.0611 21.688 37.0809 21.8179C37.1037 21.9688 37.1235 22.1204 37.1448 22.2715C36.7365 22.4097 37.144 22.2081 36.889 22.7253C36.8146 22.8762 36.6567 22.9706 36.5695 23.1143C36.4844 23.2545 36.4417 23.4167 36.3777 23.5679C36.3351 23.4816 36.3261 23.2507 36.2499 23.3087C35.9962 23.5017 36.2178 24.0535 36.0582 23.5679C35.8878 23.4383 35.7521 23.2369 35.5467 23.1791C35.3404 23.1209 35.1218 23.244 34.9076 23.244C34.8403 23.244 34.7798 23.2007 34.7159 23.1791C34.247 23.2007 33.7636 23.1238 33.3097 23.244C33.2044 23.2717 33.2983 23.4718 33.2457 23.5679C33.1871 23.6748 33.0752 23.7408 32.9899 23.8274C33.4254 24.1805 33.5692 24.2041 33.6292 24.994C33.6359 25.0828 33.3998 24.8442 33.3736 24.9293C33.2652 25.2804 33.331 25.6639 33.3097 26.0312C33.331 26.3337 33.3437 26.6368 33.3736 26.9387C33.3898 27.1046 33.4668 27.4767 33.5014 27.6517C33.5551 27.7609 33.5948 27.8392 33.6228 27.8934L33.6604 27.9641L33.6292 27.911C33.5535 27.7899 33.4139 27.604 33.3736 27.7814C33.3375 27.9397 33.3482 28.1017 33.3705 28.2646L33.3931 28.4298L33.3736 28.4295L33.3506 28.4529L33.2782 28.3985L32.792 27.9759L32.7353 27.9184L32.7346 27.9261L32.5922 27.8023L32.5683 27.7019C32.5583 27.6712 32.5468 27.6501 32.5345 27.647C32.5054 27.6396 32.5017 27.6698 32.5044 27.7093L32.5055 27.727L32.488 27.7117L32.4841 27.6565C32.4826 27.6294 32.4793 27.6031 32.4677 27.5791C32.4509 27.5454 32.4082 27.5339 32.3784 27.5113L32.3393 27.5723L32.3348 27.5675L32.3344 27.5664C32.3377 27.5414 32.3444 27.4829 32.3115 27.4208C32.2815 27.3645 32.2222 27.3304 32.1776 27.2851L32.1786 27.4064L31.829 27.0457L31.8274 27.0388C31.824 27.0249 31.8217 27.0151 31.8207 27.0136C31.7833 26.9485 31.7315 26.893 31.687 26.8327L31.693 26.9054L31.6099 26.8199L31.5754 26.697C31.5308 26.6442 31.5057 26.5143 31.4415 26.5387L31.4215 26.5844L31.3617 26.5094L31.3413 26.4273C31.3279 26.375 31.3143 26.3258 31.3077 26.3124C31.2937 26.2839 31.2632 26.2671 31.2407 26.2445L31.2065 26.3143L31.1081 26.1909L31.1011 26.1731C31.0637 26.0782 31.0059 25.9341 30.9954 25.9279C30.9761 25.9161 30.9723 25.9387 30.9725 25.9699L30.9728 26.021L30.958 26.0023L30.9508 25.9732C30.9423 25.9035 30.9344 25.385 30.7947 25.385C30.7421 25.385 30.7347 25.4378 30.7386 25.5038L30.7499 25.6977L30.7488 25.696L30.7286 25.6049C30.6883 25.4265 30.7124 25.5456 30.6832 25.2041C30.6767 25.1285 30.7357 24.9779 30.6609 24.9779C30.5608 24.9779 30.527 25.1287 30.4602 25.2041C30.3938 25.0695 30.413 25.1249 30.3709 24.9327C30.3545 24.8575 30.3522 24.7787 30.3263 24.7064C30.2922 24.6113 30.2324 24.5276 30.1924 24.435C30.1801 24.4065 30.1777 24.3747 30.1701 24.3446C30.1478 24.3747 30.1355 24.4537 30.1033 24.435C30.0156 24.3842 30.0036 24.1802 29.9917 24.0956C29.9731 24.1069 29.9559 24.1258 29.9381 24.1409L29.8817 24.163L29.8597 24.1184L29.8579 24.073L29.8368 23.966L29.8579 23.6659C29.8643 23.5647 29.9541 23.1088 29.8355 23.3492C29.825 23.3706 29.8207 23.3946 29.8132 23.4172C29.7686 23.4624 29.7373 23.5276 29.6795 23.5529C29.6579 23.5622 29.6601 23.5086 29.6572 23.485C29.6452 23.3949 29.6423 23.3039 29.6347 23.2135C29.6423 23.1306 29.6615 23.0478 29.6572 22.9647C29.6539 22.9026 29.6729 22.794 29.6125 22.7838C29.5533 22.7738 29.553 22.8893 29.5233 22.9421C29.5233 22.9421 29.4968 22.4121 29.4564 22.1504C29.4522 22.1235 29.4266 22.1956 29.4117 22.2183C29.3894 22.1127 29.4078 21.9887 29.3449 21.9017C29.3095 21.8525 29.2178 21.9102 29.1664 21.879C29.1321 21.8581 29.1367 21.8035 29.1218 21.7658C29.1292 21.7356 29.1271 21.7012 29.1441 21.6753C29.159 21.6527 29.1921 21.6493 29.211 21.6301C29.23 21.6109 29.2408 21.5849 29.2557 21.5623C29.2557 21.5623 29.1356 21.6531 29.1218 21.6075C29.0887 21.4985 29.1515 21.3814 29.1664 21.2683C29.159 21.2306 29.1756 21.1765 29.1441 21.1552C29.1218 21.1401 29.1115 21.1986 29.0995 21.223C29.0815 21.2593 29.0697 21.2984 29.0548 21.3361L28.9222 21.2385L28.8742 20.971L28.8794 20.9741L28.8686 20.9407L28.8653 20.9227L28.8837 20.8694C28.9032 20.8294 28.9307 20.7866 28.9353 20.748C28.9371 20.7321 28.9124 20.7701 28.9017 20.7819L28.8506 20.8402L28.818 20.6588L28.8237 20.6123C28.8281 20.5925 28.8401 20.5751 28.846 20.5557C28.855 20.5259 28.8609 20.4954 28.8683 20.4653C28.8683 20.4653 28.9286 20.3525 28.9576 20.2955C28.9592 20.2922 29.0838 20.0471 29.1025 19.9902C29.1067 19.9773 29.0858 20.0118 29.0802 20.0241C29.0671 20.0535 29.0604 20.0854 29.0468 20.1146C29.0305 20.1497 29.0107 20.1831 28.991 20.2164C28.9773 20.2398 28.9602 20.2609 28.9465 20.2842C28.9266 20.3175 28.9127 20.3543 28.8906 20.3861C28.8678 20.4187 28.835 20.4437 28.8126 20.4766L28.7936 20.5235L28.7783 20.4389L28.7451 20.1816L28.7577 20.1577C28.7877 20.1097 28.8191 20.0623 28.846 20.0128C28.9722 19.7808 28.9879 19.7447 29.0802 19.5038C29.0862 19.4881 29.0669 19.535 29.0579 19.5491C29.0194 19.6105 28.9984 19.6248 28.9687 19.6849C28.9524 19.718 28.9373 19.7521 28.924 19.7867C28.9114 19.8199 28.9091 19.858 28.8906 19.8884C28.8673 19.9271 28.8291 19.9546 28.8014 19.9902L28.7329 20.0894L28.6638 19.5566L28.6625 19.5523L28.6564 19.1194C28.6564 19.1194 28.6397 19.2444 28.6007 19.289C28.5841 19.3078 28.5784 19.2438 28.5673 19.2211C28.5709 19.1948 28.5737 19.1682 28.5784 19.142C28.581 19.1267 28.5873 19.1122 28.5895 19.0968C28.5946 19.063 28.5969 19.0289 28.6007 18.995C28.679 18.9155 28.6153 18.9914 28.6787 18.7913C28.7634 18.524 28.7149 18.7638 28.7569 18.5086C28.7419 18.5312 28.7285 18.555 28.7121 18.5765C28.6428 18.6681 28.6482 18.6387 28.5895 18.7348C28.5579 18.7865 28.5427 18.8501 28.5002 18.8932C28.4935 18.8999 28.4843 18.8981 28.4743 18.894L28.4532 18.8854L28.448 18.8663L28.4642 18.7937C28.4729 18.7556 28.4555 18.8269 28.4779 18.6443C28.4835 18.5989 28.4919 18.5537 28.5002 18.5086C28.5066 18.4745 28.521 18.4416 28.5227 18.4068C28.5248 18.3577 28.5151 18.3088 28.5114 18.2598C28.5114 18.2598 28.4124 18.3836 28.3442 18.4181C28.3206 18.4301 28.3509 18.3652 28.3554 18.339C28.3837 18.1659 28.3863 18.2633 28.3554 18.0902L28.3098 18.1397L28.3106 18.1355C28.3141 18.1202 28.3177 18.1051 28.3218 18.0902C28.325 18.0788 28.3309 18.0679 28.3331 18.0561C28.3383 18.0263 28.3396 17.9958 28.3442 17.9657C28.347 17.9467 28.3516 17.928 28.3554 17.9091C28.3665 17.8903 28.3804 17.8729 28.3888 17.8526C28.4112 17.798 28.414 17.752 28.4222 17.6943C28.3962 17.7056 28.3685 17.7135 28.3442 17.7282C28.3262 17.7392 28.2716 17.8102 28.2661 17.8187L28.2587 17.8336L28.2572 17.8185L28.2772 17.7169C28.2772 17.7169 28.3318 17.6068 28.3442 17.5473C28.395 17.3038 28.4032 17.3113 28.3218 17.3664C28.3106 17.3682 28.298 17.3751 28.286 17.3795L28.2631 17.3782L28.2672 17.3367L28.2772 17.321C28.2977 17.269 28.3144 17.2155 28.3331 17.1627C28.3526 17.1071 28.4281 17.0608 28.4111 17.0044C28.405 16.9846 28.3834 16.9924 28.3586 17.0028L28.2992 17.0137L28.301 16.9959L28.3083 16.9521L28.3106 16.9479C28.3698 16.8879 28.3224 16.9431 28.3665 16.8687C28.4234 16.7725 28.4024 16.8359 28.4222 16.7556C28.4222 16.7556 28.3554 16.7568 28.3554 16.733C28.3554 16.6837 28.485 16.614 28.5114 16.5973C28.4696 16.5867 28.4047 16.5737 28.3776 16.5406C28.369 16.5303 28.4016 16.5277 28.4111 16.518C28.4206 16.5085 28.426 16.4954 28.4334 16.4841C28.4483 16.4728 28.4648 16.4636 28.4779 16.4502C28.6325 16.2935 28.4522 16.4641 28.545 16.3597C28.5695 16.332 28.5986 16.3086 28.623 16.2805C28.6544 16.2443 28.6908 16.2106 28.7121 16.1675C28.7197 16.1524 28.6816 16.1811 28.6676 16.1901C28.6518 16.2001 28.6379 16.2127 28.623 16.224C28.5346 16.2419 28.5841 16.2268 28.4779 16.2805L28.4289 16.2896L28.4709 16.0905L28.4891 16.0657C28.5047 16.0436 28.5158 16.018 28.5338 15.9979C28.5533 15.9761 28.5792 15.9612 28.6007 15.9413L28.6559 15.8894L28.6677 15.8813C28.6816 15.8707 28.7031 15.8537 28.7346 15.8283L28.7724 15.7896L28.7972 15.7948C28.8096 15.7968 28.806 15.7938 28.7957 15.7889L28.7801 15.782L28.8349 15.7376C28.7595 15.7632 28.8524 15.7337 28.7346 15.7602C28.7316 15.7609 28.7418 15.7657 28.7552 15.7714L28.7801 15.782L28.7791 15.7829L28.7724 15.7896L28.7651 15.7881C28.7493 15.7843 28.7285 15.7789 28.701 15.7716L28.6007 15.7434L28.701 15.6585C28.7231 15.6334 28.7233 15.5929 28.7457 15.568C28.7988 15.5087 28.8681 15.4664 28.924 15.4097C28.9651 15.3681 28.9984 15.3193 29.0356 15.274C28.9835 15.2891 28.8013 15.3394 28.7457 15.3645C28.7211 15.3755 28.7015 15.3953 28.6787 15.4097L28.6164 15.4476L28.6423 15.3379L28.7233 15.274L28.8121 15.1841Z" fill="#FAD603"/>
<path fill-rule="evenodd" clip-rule="evenodd" d="M36.4874 16.1683L36.5527 16.2093V16.2214C36.9449 17.0509 38.7288 18.055 39.6721 20.0994C40.6154 22.1437 40.901 26.205 42.2127 28.4878L46.7752 34.2935C46.5929 34.429 46.4708 34.517 46.3127 34.5214L46.2647 34.5145L45.9333 34.1127V34.4141L45.9199 34.4087C45.7539 34.3269 45.5433 34.1976 45.2596 34.01L45.0756 33.8857L44.4301 32.667L44.8262 33.7176L44.7757 33.6835L44.0394 32.9754L40.9725 28.5406C40.4481 28.7159 37.9091 24.7949 36.4226 22.7713C35.9516 22.1589 36.2112 20.2134 36.222 19.113C35.842 18.0124 35.8286 16.1165 36.4874 16.1683Z" fill="#181717"/>
<path fill-rule="evenodd" clip-rule="evenodd" d="M36.451 22.5585L37.2097 22.8582L40.4478 27.0821L37.2394 22.7676L38.0712 23.009L39.9723 25.5435L38.19 23.009L38.992 23.2504L41.4874 27.1727L39.1109 23.2504L39.9723 23.703L41.0715 25.5736L40.1803 23.703L40.9505 24.5065L41.1491 25.3539C41.4377 26.512 41.7812 27.6201 42.2673 28.4775L46.7752 34.2931C46.5951 34.4288 46.4745 34.517 46.3183 34.5214L46.2708 34.5145L45.9433 34.112V34.4139L45.9302 34.4085C45.7662 34.3266 45.5581 34.1969 45.2778 34.0091L45.0959 33.8846L44.4581 32.6639L44.8495 33.7161L44.7996 33.6822L44.072 32.9728L41.0418 28.5304C40.5236 28.7059 38.0152 24.7783 36.5464 22.7514L36.451 22.5585Z" fill="#BFBFBF"/>
<path fill-rule="evenodd" clip-rule="evenodd" d="M42.2592 28.6219L46.7751 34.2944C46.5913 34.4295 46.4682 34.517 46.3088 34.5214L46.2602 34.5147L45.9261 34.1147V34.4146L45.9127 34.4092C45.7453 34.3279 45.533 34.1991 45.2468 34.0123L45.0612 33.8885L44.4101 32.6754L44.8096 33.7212L44.7588 33.6873L44.0161 32.9823L41.0395 28.7332L41.9996 29.2269L43.9099 31.9931L42.0678 29.182L42.4544 29.2494L45.6836 33.6798L42.4999 29.182L42.2592 28.6219Z" fill="#3B3838"/>
<path fill-rule="evenodd" clip-rule="evenodd" d="M38.3246 21.2689L38.3338 21.3837L38.3521 21.5493L38.3246 21.2689ZM38.2566 20.3078L38.2589 20.4409L38.2739 20.6315L38.2566 20.3078ZM38.2733 19.6285C38.2605 19.7488 38.2536 19.8776 38.2515 20.0137L38.2541 20.1634L38.2682 19.771L38.2651 19.7719L38.2733 19.6285ZM38.1286 19.0724L38.2022 19.1492C38.184 19.1223 38.1592 19.0969 38.1286 19.0724ZM36.1232 18.1338L36.1653 18.1817C36.2627 18.2725 36.3715 18.3508 36.4821 18.4242L36.6573 18.5386L36.6098 18.5076L36.9488 18.6319C37.3503 18.7589 37.7726 18.8659 38.0203 19.0019L38.0925 19.0489L38.048 19.0199L38.4455 19.1505C38.6586 19.2205 38.8673 19.3029 39.0597 19.4347C39.1176 19.5555 39.2062 19.5959 39.2562 19.7367L39.2752 19.8365L39.3008 19.8668C39.1982 20.8283 39.4766 22.3459 39.5646 23.5853C39.5255 23.7415 39.3106 23.722 39.0515 23.6586L38.772 23.5816L38.527 23.2418L38.488 22.8333L38.5371 23.3472C38.498 23.5034 38.2831 23.4839 38.024 23.4205L37.7445 23.3433L37.6009 23.1442L37.5447 23.2248C37.4555 23.2822 37.2861 23.2594 37.0917 23.2117L36.8122 23.1347L36.6627 22.9274L36.7291 22.9592C36.7458 22.9667 36.6979 22.9392 36.685 22.9262C36.6444 22.8857 36.6421 22.8735 36.6191 22.8274C36.5968 22.783 36.5605 22.7469 36.5311 22.7066C36.5021 22.667 36.4882 22.6183 36.4651 22.5749C36.4551 22.556 36.4431 22.5383 36.4321 22.52L36.4015 22.4818L36.399 22.477C36.362 22.3663 36.3343 22.2393 36.314 22.1005L36.2912 21.8504L36.3002 21.7075C36.3186 21.6819 36.3507 21.6618 36.3551 21.6306C36.3592 21.6031 36.33 21.5805 36.3222 21.5538C36.3117 21.518 36.3076 21.4805 36.3002 21.444L36.2689 21.3628L36.2658 21.1565L36.2855 20.6501L36.3112 20.5985C36.3225 20.5812 36.3405 20.5692 36.3551 20.5546C36.311 20.4884 36.3399 20.5385 36.3002 20.4119L36.2951 20.3971L36.3058 20.1238L36.3123 19.9653L36.3199 19.9696C36.3374 19.9794 36.354 19.985 36.3663 19.9727C36.3908 19.9481 36.3379 19.9083 36.3332 19.8739L36.3223 19.7251L36.3273 19.6081L36.3332 19.5335C36.3441 19.4786 36.354 19.4234 36.3663 19.3688C36.3687 19.3575 36.379 19.3472 36.3772 19.3359C36.3715 19.3016 36.3351 19.2705 36.3441 19.237C36.3504 19.2146 36.3882 19.2223 36.4102 19.2151C36.4028 19.1967 36.3951 19.1785 36.3882 19.1602C36.3841 19.1494 36.3815 19.1379 36.3772 19.1272C36.3466 19.0509 36.3387 19.0394 36.3002 18.9626C36.3148 18.9662 36.3317 18.9819 36.3441 18.9735C36.3538 18.9671 36.3364 18.9517 36.3332 18.9406C36.3291 18.926 36.3259 18.9113 36.3222 18.8967C36.2923 18.8669 36.2622 18.8421 36.2394 18.8124L36.2202 18.7556L36.2094 18.6948L36.2427 18.6777C36.2638 18.6715 36.2858 18.6669 36.2892 18.6661L36.2232 18.6112C36.1981 18.5902 36.1939 18.5525 36.1793 18.5234L36.1783 18.5209L36.138 18.2948L36.1232 18.1338Z" fill="#262626"/>
<path fill-rule="evenodd" clip-rule="evenodd" d="M39.073 19.6087L39.5935 20.2629L39.4435 19.6264L39.7103 20.141C40.0435 20.8937 40.2896 21.9248 40.5323 23.038L40.7118 23.8695L40.4432 23.5455L39.8272 21.0724L40.2308 23.3015L39.9547 23.0021L39.5935 20.9617L39.8165 23.4124L39.2642 22.5806L39.073 19.6087Z" fill="#F2F2F2"/>
<path fill-rule="evenodd" clip-rule="evenodd" d="M36.158 16.4951L38.8054 19.0569L39.073 19.6087L37.8244 18.359L38.4375 19.2146L36.4644 17.0416L37.9916 19.1246L36.665 18.0775L36.9103 18.8431L36.0039 18.2148L35.9652 17.7864C35.9421 17.2963 35.9861 16.8387 36.1127 16.5582L36.158 16.4951Z" fill="#F2F2F2"/>
<path fill-rule="evenodd" clip-rule="evenodd" d="M28.9083 15.0461L28.9491 15.0779L28.9343 15.0938L28.9078 15.102C28.8808 15.1103 28.8788 15.1102 28.8857 15.0985L28.9083 15.0461ZM29.4263 14.9368C29.503 14.9533 29.5564 15.0308 29.6215 15.0779C29.6793 15.0464 29.7382 15.0174 29.795 14.9838C29.8178 14.9702 29.8391 14.9197 29.8601 14.9368C29.8896 14.9607 29.8734 15.0154 29.8817 15.0543C29.8952 15.1174 29.9105 15.1798 29.9251 15.2424C29.9974 15.2032 30.0762 15.1759 30.1419 15.1249C30.1796 15.0957 30.1837 14.9951 30.2288 15.0072C30.2853 15.0226 30.2742 15.1272 30.3155 15.1719C30.3365 15.1947 30.3728 15.1903 30.4022 15.1954C30.5103 15.2139 30.6191 15.2268 30.7275 15.2424C30.7571 15.2639 30.8625 15.3381 30.8794 15.3601C30.894 15.3791 30.882 15.4168 30.901 15.4305C30.9317 15.4528 30.9733 15.4463 31.0095 15.4541C31.0239 15.4933 31.0354 15.5339 31.0529 15.5716C31.0859 15.6432 31.1296 15.6785 31.183 15.7363C31.3359 16.1345 31.1976 16.0121 31.6385 16.042C31.6817 16.0498 31.7333 16.0369 31.7686 16.0656C31.7997 16.0908 31.8405 16.1544 31.8118 16.1831C31.766 16.2291 31.4954 16.344 31.3782 16.3948C31.4215 16.4497 31.4585 16.5113 31.5083 16.5593C31.5254 16.5759 31.5555 16.5673 31.5734 16.5829C31.6136 16.6177 31.6778 16.8077 31.6817 16.8181C31.6963 16.9592 31.7074 17.1006 31.7251 17.2414C31.7292 17.2733 31.7351 17.3056 31.7468 17.3354C31.7571 17.3613 31.7758 17.3825 31.7902 17.4059C31.8422 17.575 31.7792 17.3639 31.8336 17.5706C31.8399 17.5944 31.878 17.6397 31.8553 17.6411C31.7174 17.6494 31.5806 17.6098 31.4433 17.594C30.9723 17.4139 31.1976 17.545 30.9877 17.3825C30.9666 17.3659 30.9444 17.351 30.9227 17.3354C30.8864 17.2371 30.854 17.1607 30.836 17.0532C30.7463 16.5182 30.8473 16.8859 30.7275 16.4182C30.7153 16.3705 30.7008 16.3233 30.6842 16.2771C30.6501 16.1822 30.5985 16.0937 30.5757 15.9949L30.5107 15.7127C30.4104 16.4013 30.5167 16.2037 30.3371 15.9009C30.3176 15.8679 30.2793 15.8538 30.2504 15.8304C30.4035 16.3284 30.3032 15.8356 30.0985 15.9245C30.0176 15.9595 30.0263 16.0969 29.9902 16.1831C30.0263 16.2693 30.0695 16.3525 30.0985 16.4418C30.1649 16.6452 30.0852 16.5179 30.1419 16.6534C30.1687 16.7173 30.2745 16.8912 30.2288 16.8415C30.176 16.7845 30.159 16.6988 30.1203 16.6299C30.0577 16.5185 29.9966 16.4056 29.9251 16.3007C29.9238 16.2989 29.7452 16.0731 29.6865 16.0185C29.5036 15.8484 29.6716 16.0274 29.5733 15.9195L29.5179 15.8592L29.5184 15.8542L29.6089 15.8586C29.641 15.8602 29.6698 15.8563 29.6865 15.8304C29.7765 15.6909 29.6195 15.5695 29.5564 15.5012C29.5492 15.5638 29.5412 15.6264 29.5348 15.6893L29.5184 15.8542L29.513 15.8538L29.5179 15.8592L29.4697 16.3477C29.4594 16.4346 29.4407 16.5201 29.4263 16.6063C29.3612 16.5672 29.2862 16.5431 29.2311 16.4888C28.808 16.0716 29.1054 16.1926 28.884 16.1126C28.8237 16.0144 28.7995 15.9871 28.7954 15.8781L28.7969 15.7721L28.7973 15.7716L28.7969 15.7717L28.7973 15.7363C28.8005 15.6619 28.8408 15.5952 28.8624 15.5246C28.8912 15.5482 28.9235 15.6229 28.9491 15.5952C28.9766 15.5654 28.944 15.4854 28.9058 15.4776L28.8278 15.484L28.884 15.4305C28.924 15.3873 28.9563 15.3365 28.9925 15.2894C28.9419 15.3052 28.7646 15.3574 28.7107 15.3835C28.6867 15.395 28.6676 15.4156 28.6456 15.4305L28.585 15.47L28.6102 15.356L28.6698 15.3055L28.7107 15.2894C28.8642 15.1228 28.6685 15.3237 28.884 15.1483L28.9343 15.0938L28.9689 15.0833C28.9968 15.0753 29.0328 15.0654 29.0792 15.0543C29.1874 14.984 29.28 14.905 29.4263 14.9368ZM28.8699 14.865C28.8868 14.8557 28.9011 14.8509 28.9058 14.8661C28.9273 14.9361 28.9257 14.9884 28.917 15.0261L28.9083 15.0461L28.8572 15.0061C28.7215 14.8993 28.848 14.9923 28.7692 14.9482L28.7626 14.9443L28.8034 14.8911L28.819 14.8897C28.8339 14.8878 28.8532 14.8742 28.8699 14.865Z" fill="#F2F2F2"/>
<path fill-rule="evenodd" clip-rule="evenodd" d="M37.4669 21.0567L37.4674 21.0826C37.4672 21.0834 37.4667 21.0731 37.4667 21.0598L37.4669 21.0567ZM38.2041 20.2754L38.2064 20.4133L38.221 20.611L38.2041 20.2754ZM38.2204 19.5712C38.2079 19.6959 38.2012 19.8295 38.1992 19.9704L38.2018 20.1257L38.2154 19.7188L38.2125 19.7198L38.2204 19.5712ZM37.1483 19.1771L37.1883 19.2618C37.2015 19.2903 37.2102 19.3095 37.2014 19.2905L37.1483 19.1771ZM37.127 19.1361L37.1373 19.1538L37.1483 19.1771L37.148 19.1766L37.127 19.1361ZM37.9529 18.9109L37.9747 18.9214L38.0448 18.9703L38.0016 18.9401L38.3875 19.0756C38.5943 19.1482 38.7972 19.2336 38.984 19.3701C39.0401 19.4953 39.1261 19.5374 39.1746 19.6834L39.1931 19.7868L39.2157 19.8155L39.2172 19.8314L39.2151 19.8721L39.2082 19.9166C39.2057 19.9283 39.1997 19.9389 39.1975 19.9507C39.1784 20.0528 39.1489 20.1539 39.1441 20.2582C39.1417 20.3124 39.1672 20.364 39.1761 20.4174C39.1849 20.4702 39.1903 20.5236 39.1975 20.5769L39.2028 20.5921L39.2039 20.6605L39.2369 21.1028L39.1869 21.0094C39.1707 20.9763 39.1589 20.9409 39.1441 20.9069C39.134 20.8838 39.1228 20.8614 39.1122 20.8386C39.0764 20.8007 39.0338 20.7691 39.0053 20.7249C38.9863 20.695 38.9822 20.657 38.9734 20.6223C38.9226 20.4237 38.9524 20.4835 38.9221 20.3634L38.9139 20.3345L38.9093 20.2239C38.9073 20.1985 38.8896 20.1774 38.8773 20.1556L38.8429 20.0969L38.7279 19.7572C38.6979 19.6728 38.6646 19.5899 38.6317 19.5068C38.6274 19.4956 38.6404 19.5291 38.6425 19.5409C38.6476 19.571 38.6484 19.6018 38.6532 19.632C38.6623 19.6911 38.6833 19.7885 38.6958 19.8483C38.6958 19.8483 38.7264 19.8993 38.7644 19.9632L38.8429 20.0969L38.8665 20.167L38.9139 20.3345L38.9412 20.9866C38.9439 21.0436 38.9457 21.1008 38.9521 21.1573C38.9902 21.5049 39.0615 21.9323 39.1122 22.2615C39.105 22.3376 39.1443 22.4387 39.0907 22.4893C39.0374 22.5398 39.0101 22.314 39.0053 22.2843C38.9876 22.2615 38.9652 22.2422 38.9521 22.2161C38.8786 22.07 38.802 21.8669 38.7705 21.7039C38.759 21.6442 38.7618 21.5824 38.7598 21.5216C38.7546 21.3548 38.7616 21.1873 38.7492 21.0208C38.7403 20.902 38.7136 20.7855 38.6958 20.6678C38.6528 20.7594 38.6899 20.6706 38.6532 20.8273C38.624 20.9515 38.6273 20.8442 38.6104 21.0208C38.5966 21.1647 38.5965 21.3101 38.5784 21.4533C38.5715 21.5082 38.5499 21.5597 38.5357 21.6127L38.5678 21.7152C38.6069 21.8407 38.6936 21.9446 38.7385 22.068C38.7865 22.2002 38.8159 22.3395 38.8452 22.4778C38.8836 22.6586 38.9178 22.8407 38.9412 23.0244C39.0168 23.6112 38.9527 23.3116 38.9306 23.2177C38.8593 23.0657 38.9072 23.1889 38.8665 23.0016C38.7824 22.6127 38.8619 23.0608 38.7918 22.6373C38.7094 22.4172 38.8895 22.8884 38.5891 22.2615C38.5599 22.2007 38.5483 22.1317 38.525 22.068C38.3795 21.6704 38.4526 21.932 38.3755 21.6241C38.4003 20.94 38.3249 21.7106 38.5463 21.0664C38.5925 20.9322 38.5961 20.7855 38.621 20.6451C38.621 20.6451 38.5788 20.5159 38.5571 20.4515C38.5289 20.3679 38.504 20.2831 38.4716 20.2011L38.4678 20.1934L38.5357 20.0874C38.5322 20.0153 38.5414 19.9411 38.525 19.8711C38.5075 19.7965 38.3832 19.6187 38.3139 19.5228L38.292 19.4929L38.2689 19.2221C38.251 19.2071 38.2341 19.1907 38.2154 19.1766C38.1735 19.1451 38.1274 19.1197 38.0873 19.0856C38.0735 19.0737 38.0666 19.0546 38.0553 19.0401L37.9529 18.9109ZM36.451 18.2977L36.4815 18.3226L36.6054 18.409L36.9346 18.5379C37.2269 18.6366 37.5306 18.7238 37.7656 18.8206L37.7854 18.8301L37.7946 18.8524C37.8141 18.8877 37.8407 18.9268 37.8418 18.9604C37.8425 18.9773 37.8354 18.9925 37.8264 19.0073L37.8107 19.0327L37.8058 19.0292C37.7845 19.0112 37.8225 19.0291 37.7671 18.983C37.7469 18.9663 37.725 18.9519 37.7032 18.9376C37.6825 18.924 37.6163 18.8832 37.5857 18.8693C37.5753 18.8646 37.5644 18.8616 37.5537 18.8578C37.5322 18.839 37.4711 18.7788 37.4896 18.801C37.5363 18.8572 37.587 18.9096 37.6391 18.9604C37.7317 19.0506 37.7061 19.0348 37.7992 19.0514L37.8107 19.0327L37.8525 19.0628C37.8726 19.0764 37.8952 19.0856 37.9165 19.0969C37.9739 19.1276 38.0234 19.1728 38.0766 19.2108C38.1378 19.2542 38.1691 19.3324 38.2154 19.3929C38.2331 19.4158 38.252 19.4376 38.2689 19.4612L38.292 19.4929L38.3003 19.5902C38.3136 19.7197 38.3306 19.846 38.3542 19.9394C38.366 19.9861 38.3865 20.0292 38.4085 20.0718L38.4678 20.1934L38.4503 20.221C38.4218 20.2655 38.3951 20.3109 38.3755 20.3606C38.2525 20.6744 38.2807 20.9663 38.2689 21.3053C38.2651 21.4154 38.2617 21.5254 38.2582 21.6355C38.2404 21.6962 38.2168 21.8799 38.2048 21.8176C38.1689 21.6316 38.1912 21.4382 38.1835 21.2485C38.1805 21.1763 38.1763 21.1042 38.1728 21.0321C38.155 20.9943 38.124 20.9605 38.1194 20.9184C38.0386 20.181 38.0547 20.2932 38.1514 19.6888C38.1348 19.6271 38.0984 19.4729 38.0553 19.4499C38.0203 19.4311 38.0624 19.5333 38.066 19.5751C38.0589 19.6358 38.0593 19.698 38.0447 19.7572C37.9493 20.1454 37.9324 19.9327 37.9593 20.1328C37.9557 20.1595 37.9642 20.1915 37.9486 20.2126C37.9218 20.249 37.8508 20.2468 37.8418 20.2922C37.8087 20.4594 37.8348 20.6338 37.8312 20.8045C37.8497 20.9032 37.8536 20.9158 37.8633 21.0549C37.88 21.2976 37.8908 21.5406 37.9059 21.7835C37.9578 22.6147 37.9049 21.6732 37.938 22.273C37.9308 22.235 37.9218 22.1975 37.9165 22.1591C37.8828 21.9063 37.9175 22.0257 37.8846 21.92C37.8454 21.8594 37.7972 21.8043 37.7671 21.7379C37.7464 21.6924 37.7451 21.6395 37.7351 21.59C37.714 21.4844 37.6997 21.4163 37.6899 21.3661L37.6783 21.2993L37.6817 21.2825C37.6747 21.0967 37.6719 20.9105 37.6604 20.7249C37.6573 20.6734 37.6568 20.621 37.6535 20.5692L37.6497 20.5469L37.6509 20.5084C37.655 20.3793 37.6566 20.2503 37.6497 20.1215C37.6225 19.6184 37.6425 19.6038 37.5537 19.7459C37.5608 19.7837 37.5739 19.8209 37.575 19.8596C37.5922 20.4845 37.5436 19.9109 37.575 20.2467L37.6284 20.4174L37.6497 20.5469L37.6391 20.8956C37.6586 21.1187 37.6615 21.1868 37.6701 21.2519L37.6783 21.2993L37.6645 21.3635C37.6552 21.4084 37.6445 21.4625 37.6391 21.4989C37.6322 21.5441 37.6319 21.59 37.6284 21.6355C37.6391 21.6886 37.6553 21.7407 37.6604 21.7948C37.6925 22.1365 37.6858 22.1308 37.671 22.3982C37.6625 22.4434 37.6519 22.5049 37.6391 22.5462C37.6163 22.6191 37.5893 22.6904 37.5644 22.7625C37.568 22.7815 37.5676 22.8017 37.575 22.8194C37.5822 22.8367 37.6037 22.8462 37.607 22.8649C37.6184 22.9283 37.6142 22.9939 37.6178 23.0585C37.5945 23.0154 37.5334 22.9044 37.5216 22.8649C37.4993 22.7894 37.5185 22.6255 37.5216 22.569C37.5621 22.4541 37.5598 22.4726 37.5857 22.3299C37.598 22.2619 37.6134 22.194 37.6178 22.125C37.6206 22.0795 37.6106 22.0339 37.607 21.9884C37.5999 21.9656 37.5909 21.9435 37.5857 21.92C37.5437 21.7299 37.5414 21.4653 37.5216 21.3053C37.4847 21.0079 37.4723 20.9889 37.4683 21.0202L37.4669 21.0567L37.4665 21.0377C37.4647 20.9741 37.4598 20.8316 37.4469 20.5426C37.4398 20.5009 37.4303 20.4596 37.4256 20.4174C37.4208 20.3745 37.4067 20.109 37.4043 20.0759C37.4016 20.0417 37.3962 20.0077 37.3936 19.9735C37.382 19.8255 37.3721 19.6775 37.3615 19.5296C37.3615 19.5296 37.3202 19.4602 37.2974 19.4271C37.281 19.4032 37.252 19.3872 37.2442 19.3588C37.2297 19.3078 37.2384 19.2524 37.2335 19.1993C37.2312 19.1764 37.2263 19.1538 37.2227 19.131C37.0087 18.6743 37.3013 19.2887 37.0519 18.801C36.9815 18.663 37.0681 18.7744 36.9559 18.6189C36.9518 18.6132 36.8841 18.5391 36.8705 18.5391C36.8577 18.5391 36.8871 18.5606 36.8918 18.5733C36.9015 18.5989 36.9057 18.6264 36.9131 18.653C36.9164 18.6645 36.9197 18.6759 36.9239 18.6871C36.9339 18.714 36.9479 18.7392 36.9559 18.7669C36.9623 18.7888 36.9629 18.8123 36.9665 18.8351C36.9665 18.8351 37.0072 18.9273 37.0306 18.9717C37.0393 18.9883 37.0519 19.002 37.0626 19.0173C37.075 19.035 37.0844 19.055 37.0947 19.0741L37.127 19.1361L37.1004 19.0912C37.0868 19.0714 37.0732 19.0591 37.0626 19.0741C37.0377 19.1097 37.0911 19.1577 37.1053 19.1993C37.0911 19.1843 37.0752 19.1707 37.0626 19.1538C37.0324 19.1136 37.0221 19.0478 36.9772 19.0286C36.9459 19.0153 37.0006 19.0963 37.0093 19.131C37.0737 19.3921 36.9952 19.1315 37.0519 19.3132C37.0626 19.3285 37.078 19.3409 37.084 19.3588C37.0926 19.384 37.0903 19.4121 37.0947 19.4384C37.108 19.5183 37.1242 19.5976 37.1373 19.6775C37.1399 19.6929 37.1312 19.6469 37.1266 19.632C37.1206 19.6126 37.1135 19.5935 37.1053 19.5751C37.0814 19.5214 37.0611 19.4655 37.0306 19.4157C37.0072 19.3775 36.9551 19.2688 36.9452 19.3132C36.9067 19.4868 36.938 19.67 36.9346 19.8483C36.9523 19.9617 36.9679 20.0497 36.9772 20.167C36.9937 20.3717 37.0057 20.5769 37.02 20.7817C37.0164 20.9184 37.0064 21.0549 37.0093 21.1916C37.01 21.2229 37.0267 21.2516 37.0306 21.2825C37.0373 21.3353 37.0377 21.3889 37.0413 21.442C37.0413 21.442 37.0581 21.5326 37.0626 21.5787C37.0913 21.8754 37.1065 21.7902 37.0732 21.9315C37.0645 21.9416 36.9387 22.0667 36.9346 22.125C36.9326 22.1526 36.9488 22.1781 36.9559 22.2047C36.9665 22.2237 36.9793 22.2414 36.9878 22.2615C37.0128 22.32 37.0501 22.4977 37.02 22.5234C36.9801 22.5573 36.9701 22.4275 36.9559 22.3754C36.9379 22.3089 36.9346 22.2388 36.9239 22.1706C36.9167 22.1516 36.909 22.1329 36.9025 22.1136C36.8948 22.0911 36.8892 22.0677 36.8812 22.0454C36.8456 21.9467 36.8053 21.9038 36.8386 21.772C36.8495 21.728 36.9071 21.7117 36.9239 21.6696C36.9408 21.6277 36.931 21.5787 36.9346 21.5331C36.9274 21.4761 36.9218 21.419 36.9131 21.3623C36.8969 21.2558 36.8717 21.1508 36.8599 21.0436C36.8572 21.0207 36.8687 20.9982 36.8705 20.9753C36.8794 20.8578 36.8848 20.7399 36.8918 20.6223C36.8848 20.5616 36.8771 20.501 36.8705 20.4402C36.8118 19.9029 36.8574 20.2944 36.8277 20.0418C36.8207 20.0266 36.813 20.0117 36.8064 19.9963C36.7256 19.8067 36.7737 19.8889 36.7638 19.5181C36.753 19.503 36.7391 19.4899 36.7317 19.4725C36.688 19.3699 36.7043 19.1857 36.6998 19.1084C36.6983 19.0853 36.6911 19.063 36.6891 19.0401C36.6839 18.9794 36.6819 18.9186 36.6783 18.8578C36.6712 18.8123 36.6714 18.7648 36.657 18.7213C36.6324 18.6476 36.5809 18.542 36.5278 18.4408L36.451 18.2977Z" fill="#A6A6A6"/>
<path fill-rule="evenodd" clip-rule="evenodd" d="M36.5242 29.0968C36.5242 29.1156 36.4952 29.1194 36.4808 29.1307L36.4841 29.117L36.5082 29.0994C36.517 29.0924 36.5242 29.0883 36.5242 29.0968ZM36.8059 27.9664C36.8322 27.9664 36.7551 27.9808 36.7301 27.989C36.6552 28.0134 36.5552 28.048 36.4916 28.0908C36.4821 28.0972 36.4831 28.1129 36.4808 28.1247C36.4731 28.165 36.4629 28.2702 36.4592 28.3054C36.4628 28.3394 36.4389 28.3969 36.47 28.4072C36.6204 28.4572 36.781 28.3194 36.6542 28.4185C36.7156 28.4374 36.7751 28.4649 36.8384 28.4751C36.8707 28.4803 36.9187 28.4347 36.9359 28.4638C36.9624 28.5088 36.9287 28.5693 36.9251 28.6221C36.99 28.6258 37.0552 28.6283 37.1201 28.6334C37.2133 28.6406 37.192 28.6357 37.25 28.656C37.2861 28.6597 37.3231 28.6586 37.3584 28.6673C37.5786 28.7214 37.2563 28.7407 37.185 28.7464C37.1273 28.751 37.0695 28.7389 37.0118 28.7351C36.8767 28.8054 37.0657 28.7035 36.9251 28.7915C36.9043 28.8046 36.8772 28.8076 36.86 28.8254C36.8462 28.8398 36.8456 28.8631 36.8384 28.882C36.824 28.897 36.8109 28.9138 36.795 28.9272C36.6586 29.0437 36.7052 28.9331 36.7097 29.1663L36.7084 29.2774L36.7055 29.2769L36.6975 29.2438C36.6855 29.1748 36.6938 29.1474 36.6542 29.0855C36.647 29.0742 36.6326 29.0704 36.6217 29.0629C36.6108 29.0667 36.6004 29.0722 36.5891 29.0742C36.5569 29.0798 36.521 29.0703 36.4916 29.0855L36.4841 29.117L36.4808 29.1194C36.4597 29.1283 36.4356 29.1301 36.4157 29.142C36.3664 29.1719 36.3219 29.2099 36.275 29.2438C36.2714 29.2325 36.2632 29.2217 36.2642 29.2099C36.2674 29.164 36.3097 28.9972 36.3182 28.9611C36.3038 28.9724 36.2907 28.9859 36.275 28.995C36.2579 29.0049 36.237 29.0063 36.2207 29.0177C36.2039 29.0295 36.1945 29.0511 36.1775 29.0629C36.1398 29.0891 36.0913 29.0983 36.0583 29.1307C36.0241 29.1645 36.0282 29.2669 35.9825 29.2551C35.9367 29.2431 35.9753 29.1571 35.9716 29.1081C35.9862 29.0624 35.9956 29.028 36.0257 28.9837C36.0436 28.9577 36.0747 28.9431 36.0908 28.9159C36.1411 28.8307 36.1196 28.8167 36.0583 28.8593C36.0413 28.8711 36.0293 28.8895 36.0149 28.9046C35.9969 28.9121 35.9782 28.9182 35.9608 28.9272C35.9131 28.9521 35.8732 29.0018 35.8199 29.0063C35.7981 29.0083 35.8255 28.9608 35.8307 28.9385C35.8579 28.8249 35.863 28.9149 35.8307 28.7802L35.744 28.8254C35.6832 28.8572 35.6364 28.919 35.5708 28.9385C35.5489 28.9451 35.5852 28.8933 35.5924 28.8707C35.6213 28.8556 35.6534 28.8459 35.6791 28.8254C36.0403 28.5385 35.6616 28.7931 35.9066 28.6334C35.9066 28.6258 35.9417 28.5973 35.9066 28.5881C35.8813 28.5816 35.8673 28.5477 35.8415 28.5429C35.6219 28.5019 35.5313 28.588 35.6465 28.4977L35.365 28.4864C35.2493 28.4823 35.1331 28.4882 35.0182 28.4751C34.9659 28.4692 34.8912 28.4783 34.8665 28.4298C34.8452 28.3882 34.9099 28.3469 34.9315 28.3054C34.9135 28.2979 34.8961 28.2882 34.8775 28.2828C34.8083 28.2632 34.789 28.2879 34.8448 28.2489C34.9609 28.2974 34.8751 28.2686 35.0941 28.2828L35.2457 28.2941C35.4169 28.2545 35.3648 28.2643 35.6249 28.2265C35.8551 28.1929 35.7419 28.2271 35.8741 28.1812C35.9392 28.1737 36.0052 28.1732 36.0692 28.1586C36.1216 28.1467 36.1703 28.1209 36.2207 28.1021C36.2728 28.0826 36.3712 28.0221 36.4267 27.989C36.5531 27.9815 36.6793 27.9664 36.8059 27.9664Z" fill="#D9D9D9"/>
<path fill-rule="evenodd" clip-rule="evenodd" d="M36.3261 17.9062L36.2602 17.925L36.2211 17.9316L36.1899 17.9327L36.3224 17.9067L36.3261 17.9062ZM37.2935 17.1755C37.3184 17.1779 37.3677 17.1863 37.4044 17.194L37.4342 17.2014L37.4411 17.2079L37.4401 17.2087L37.3164 17.1914L37.3015 17.1829C37.2927 17.1783 37.2868 17.1748 37.2935 17.1755ZM36.9085 16.7415L36.9774 16.771L37.0193 16.7891L37.0278 16.7984L37.0324 16.8033L36.9887 16.7987L36.912 16.7674L36.9095 16.7655L36.8987 16.7538L36.9085 16.7415ZM35.3048 12.3982C35.8732 12.4203 36.0479 12.6818 36.4195 12.8238C36.4882 12.846 36.5529 12.858 36.614 12.8616L36.6753 12.857L36.6801 12.8808L36.6837 12.8985C36.6884 12.9109 36.7047 12.945 36.7063 12.9318L36.7075 12.9011L36.7091 12.8546L36.7646 12.8505L37.2505 13.1554L38.0026 13.6794L38.1094 13.7583L38.7115 14.2667L38.8649 14.4134L38.9932 14.5453L39.1733 14.7498L39.2813 14.8801L39.4476 15.1126L39.5265 15.2275L39.7283 15.5908L39.7285 15.591L39.728 15.5908L39.3214 15.4822L39.2906 15.4776L39.2657 15.4712L39.1525 15.4572L38.944 15.4264L38.9055 15.4268L38.841 15.4187C38.7046 15.4109 38.5732 15.4115 38.445 15.4184L38.2989 15.4323L38.2554 15.4328L38.1817 15.4436L38.0698 15.4543L37.733 15.5095L37.6158 15.5267L37.2509 15.5828L36.6768 15.6419L36.6724 15.6354C36.6596 15.6269 36.6424 15.628 36.6273 15.6242L36.6213 15.6477L36.5972 15.6501V15.6903L36.5924 15.6957C36.5791 15.7052 36.5734 15.7014 36.5916 15.7099L36.5972 15.7129V15.7501L36.5896 15.7447C36.5732 15.7332 36.5564 15.724 36.537 15.724C36.5151 15.724 36.558 15.7619 36.5708 15.7794L36.5972 15.8127V16.1049L36.5482 16.0785C36.5326 16.0726 36.561 16.1095 36.5708 16.1229L36.5972 16.1531V16.2411L36.6242 16.2819L36.616 16.2779C36.5988 16.2706 36.6375 16.3084 36.6499 16.3223L36.6529 16.3253L36.7402 16.4572L36.7176 16.4552C36.7042 16.4569 36.7396 16.471 36.7515 16.4774L36.7545 16.4788L36.7763 16.5118L36.7776 16.519L36.7935 16.538L36.8055 16.5559L36.9356 16.6978L36.9282 16.717L36.9085 16.7415L36.8869 16.7322C36.8805 16.7304 36.8836 16.7365 36.8897 16.7442L36.8987 16.7538L36.8982 16.7545L36.7853 16.6768C36.7592 16.6589 36.8258 16.727 36.8531 16.7433L36.912 16.7674L37.0224 16.8541C37.058 16.8779 37.0881 16.8941 37.1111 16.9054L37.1432 16.9208L37.1447 16.9223L37.1522 16.9297L37.1453 16.9344C37.1312 16.9361 37.106 16.938 37.0677 16.9428C37.0677 16.9428 37.0031 16.8985 36.9661 16.8985C36.942 16.8985 37.0036 16.928 37.0224 16.9428C37.0714 16.9539 37.1201 16.966 37.1693 16.976L37.2074 16.9829L37.2822 17.0549L37.2256 17.0647C37.1357 17.0776 37.0327 17.0519 36.9547 17.098C36.9085 17.1252 37.0614 17.1152 37.1127 17.1312C37.1448 17.1412 37.173 17.1607 37.2032 17.1755L37.3164 17.1914L37.3272 17.1976C37.361 17.226 37.3882 17.2723 37.4401 17.2751L37.4519 17.2741L37.4051 17.4275L37.3951 17.4303L37.4034 17.4326L37.4029 17.4344L37.2451 17.5204L37.1419 17.5331C37.0208 17.5498 36.8769 17.5747 36.7853 17.6076C36.7107 17.6345 36.9433 17.624 37.0224 17.6297L37.0429 17.6309L36.9779 17.6663L36.7968 17.7371L36.7923 17.7377C36.7491 17.7446 36.6984 17.7528 36.6386 17.7626C36.4562 17.793 36.3133 17.7817 36.5554 17.7907L36.6496 17.7946L36.6424 17.7974L36.353 17.8072C36.2435 17.8157 36.135 17.8331 36.0288 17.8736C36.0067 17.8819 36.0138 17.9178 36.0062 17.94L36.1899 17.9327L35.8707 17.9954C35.4802 18.0771 35.7865 18.0388 35.3514 18.073C35.3529 18.073 35.4278 18.0766 35.5072 18.0812L35.6103 18.0878L35.2465 18.1615C35.0276 18.1981 34.8027 18.2279 34.5748 18.2505L34.2616 18.2716L34.2049 18.2592C34.1498 18.2489 34.0874 18.2394 34.0868 18.2392L34.1988 18.2757L34.004 18.2889L33.7143 18.2946L33.727 18.297L33.367 18.2975L33.3601 18.2908C33.3434 18.2754 33.3264 18.2613 33.319 18.2613C33.3031 18.2613 33.3388 18.2872 33.3529 18.2946L33.3598 18.2975L33.199 18.2977L33.1158 18.2834C33.0783 18.2789 33.0401 18.2792 33.0029 18.2725C32.9794 18.268 32.9583 18.2556 32.9352 18.2502C32.8452 18.2297 32.7551 18.2105 32.6642 18.1948C32.6373 18.1902 32.7182 18.2059 32.7433 18.2171C32.7603 18.2246 32.7733 18.2392 32.7884 18.2502L32.8226 18.2716L32.5522 18.2526L32.5512 18.2502C32.5453 18.2362 32.5437 18.2207 32.5399 18.2059C32.5399 18.2059 32.5065 18.1614 32.4644 18.1058L32.43 18.0611L32.4157 18.0286L32.3941 18.0144L32.3367 17.94C32.32 17.919 32.3669 17.9844 32.382 18.0065L32.3941 18.0144L32.43 18.0611L32.4496 18.1061C32.4609 18.1246 32.4719 18.1433 32.4836 18.1617C32.5008 18.1887 32.5172 18.2094 32.5324 18.2325L32.5419 18.2518L32.5183 18.2502L32.4657 18.2205L32.4685 18.2213C32.4659 18.2161 32.4467 18.1999 32.3933 18.1617C32.3728 18.1471 32.3467 18.1417 32.3254 18.1284C32.3051 18.1156 32.2908 18.094 32.269 18.084L32.204 18.0648L32.0239 17.9452L31.9238 17.8647L31.919 17.8513C31.9002 17.8366 31.8672 17.7838 31.8625 17.8071L31.8654 17.8177L31.755 17.7287L31.7496 17.7184C31.7368 17.7017 31.7163 17.6915 31.7045 17.6742C31.6932 17.6576 31.6909 17.6365 31.6819 17.6188C31.6758 17.6068 31.6653 17.5973 31.6593 17.5855C31.6465 17.5603 31.6366 17.5337 31.6253 17.5078C31.6142 17.5116 31.5981 17.5093 31.5916 17.519C31.5809 17.5347 31.5863 17.5565 31.5803 17.5744L31.5757 17.5847L31.4821 17.5093L31.4516 17.479L31.4488 17.4701C31.4451 17.4488 31.4398 17.4292 31.4221 17.4192L31.4066 17.4344L31.2624 17.2915L31.2302 17.242C31.2209 17.2292 31.2068 17.2205 31.1963 17.2087C31.1563 17.1629 31.1458 17.1365 31.1173 17.0757C31.0916 17.0213 31.0881 16.9857 31.0496 16.9316C31.0418 16.9208 31.0278 16.9036 31.0157 16.9095C31.0018 16.9164 31.0082 16.9392 31.0044 16.9539L30.9818 16.9197L30.971 16.901L30.9602 16.8707C30.9561 16.844 30.9592 16.8043 30.9592 16.7101C30.9592 16.6935 30.9956 16.6753 30.9818 16.6658C30.9662 16.6689 30.9369 16.6663 30.8976 16.6596L30.8876 16.6575L30.8792 16.6188L30.883 16.6132L30.8956 16.6103C30.9182 16.6062 30.8786 16.6183 30.9367 16.5993C30.9671 16.5895 30.9818 16.555 31.0044 16.5328C31.0195 16.5254 31.0364 16.521 31.0496 16.5106C31.0745 16.4911 31.0891 16.4589 31.1173 16.4441C31.148 16.4282 31.185 16.4294 31.2189 16.422C31.2084 16.4228 31.1257 16.4287 31.0447 16.4343L31.0172 16.4361L31.1326 16.3495C31.1862 16.3197 31.2435 16.2961 31.3018 16.2765L31.3454 16.2643L31.5013 16.2558C31.5131 16.2547 31.5259 16.252 31.535 16.2447C31.5457 16.2365 31.5472 16.2201 31.5577 16.2116L31.5686 16.204L31.6609 16.1803L31.6932 16.2225C31.7024 16.2301 31.7158 16.2299 31.7271 16.2337C31.772 16.2042 31.7645 16.2183 31.7835 16.1562L31.7856 16.1457L31.8693 16.0967L31.872 16.0898L31.9077 16.0896C31.9039 16.0711 31.9024 16.0521 31.8964 16.0342L31.8943 16.03L31.8995 16.0157L31.8875 15.9539L31.9529 15.8791C31.9647 15.8558 31.9611 15.8274 31.9641 15.8015C31.9685 15.7647 31.9716 15.7276 31.9754 15.6908C31.9605 15.6981 31.9433 15.7022 31.9303 15.7129C31.91 15.7294 31.8925 15.7834 31.8851 15.8015L31.8631 15.8292L31.8575 15.8006L31.8738 15.7794C31.9311 15.6783 31.9039 15.5336 31.9077 15.4359C31.8964 15.4617 31.8882 15.4892 31.8738 15.5135C31.8669 15.5251 31.851 15.5415 31.8363 15.5593L31.8171 15.5934L31.8036 15.5248L31.8079 15.4096C31.8113 15.3194 31.8148 15.2363 31.8174 15.1811C31.8181 15.1659 31.8264 15.1518 31.8287 15.1367C31.834 15.1 31.8362 15.0628 31.84 15.0259C31.8915 14.95 31.8892 14.9643 31.919 14.8707C31.9282 14.8417 31.9285 14.8098 31.9416 14.7821C31.9516 14.7606 31.9796 14.7493 31.9867 14.7267C32.0067 14.6623 32.0093 14.5938 32.0206 14.5272C31.998 14.542 31.9731 14.554 31.9529 14.5717C31.9056 14.613 31.9251 14.6302 31.8851 14.6824L31.8612 14.7123L31.9785 14.304L32.0054 14.2365L32.0319 14.217L32.0576 14.2064L32.1335 14.1949C32.1742 14.1682 32.2181 14.142 32.1465 14.1695L32.0576 14.2064L32.0149 14.2128L32.0796 14.05L32.0894 14.0459C32.1048 14.0396 32.1217 14.0292 32.1674 13.9843C32.1792 13.9727 32.1366 13.9981 32.1222 14.0064L32.088 14.0289L32.1042 13.9884L32.172 13.8326L32.2012 13.8182L32.2867 13.7436L32.3141 13.7295L32.3416 13.7133L32.3516 13.7116C32.3697 13.7052 32.4054 13.6912 32.4722 13.6631C32.4865 13.6571 32.4418 13.6694 32.427 13.6741C32.3983 13.6836 32.3833 13.6895 32.3688 13.6972L32.3416 13.7133L32.3372 13.7139C32.3449 13.7084 32.3695 13.6969 32.3028 13.7295L32.2867 13.7436L32.2289 13.7734L32.1912 13.7885L32.2207 13.7208L32.2238 13.7185C32.2363 13.7085 32.2458 13.6956 32.2577 13.6853C32.2759 13.6697 32.2971 13.6576 32.3141 13.6408C32.3238 13.6315 32.3279 13.6177 32.3367 13.6076C32.3706 13.5687 32.3974 13.5512 32.4383 13.5191C32.4798 13.5079 32.5322 13.5155 32.5625 13.4858C32.5897 13.4591 32.4868 13.4988 32.4496 13.5079C32.3493 13.5325 32.4065 13.517 32.3367 13.5855C32.273 13.6481 32.3287 13.5569 32.2803 13.652L32.2456 13.6635L32.2561 13.6395C32.3326 13.4843 32.4958 13.3741 32.7069 13.2906L32.8721 13.2395L33.0029 13.231C33.0689 13.2213 33.1309 13.194 33.1948 13.1756L33.1205 13.1694L33.4009 13.1114L33.5561 13.1091L33.4452 13.1022L33.711 13.0565L33.8611 13.0537C33.8422 13.0499 33.8236 13.0445 33.8046 13.0425L33.796 13.0417L34.2306 12.9668L34.3177 12.9458L34.4255 12.9429L34.3234 12.9444L34.5699 12.8847L34.5856 12.8782L34.6025 12.8785C34.6351 12.8793 34.667 12.8777 34.6965 12.8652C34.7142 12.8578 34.6954 12.8542 34.6674 12.8515L34.6533 12.85L34.8335 12.7751L34.8621 12.7421L34.9337 12.7323C34.9723 12.7205 35.0089 12.7028 35.0466 12.6881L34.8956 12.7036L34.9191 12.6764L34.9292 12.6576L34.9676 12.6325C34.982 12.6242 34.9984 12.6192 35.0127 12.6104C35.0287 12.6007 35.0743 12.5863 35.0579 12.5771C35.0399 12.5671 35.019 12.5652 34.9977 12.5655L34.9787 12.5657L34.9863 12.5517C35.0382 12.4695 35.1177 12.399 35.3048 12.3982Z" fill="#342217"/>
<path fill-rule="evenodd" clip-rule="evenodd" d="M36.9059 16.7617L36.9745 16.7918L37.0167 16.8102L37.0252 16.8195L37.0298 16.8246L36.9858 16.82L36.9093 16.7881L36.9069 16.7861L36.8959 16.7743L36.9059 16.7617ZM32.1879 13.7377L32.1884 13.7454L32.1838 13.7472L32.1879 13.7377ZM35.6935 12.3982L35.9323 12.4993C36.0935 12.587 36.2302 12.69 36.4162 12.7625C36.485 12.7852 36.5498 12.7974 36.6109 12.801L36.6723 12.7964L36.6771 12.8206L36.6807 12.8387C36.6855 12.8515 36.7017 12.8862 36.7033 12.8726L36.7045 12.8415L36.7061 12.7939L36.7618 12.7897L37.248 13.1009L38.0009 13.6358L38.1079 13.7164L38.7105 14.2354L38.864 14.3852L38.9925 14.5197L39.1728 14.7285L39.2808 14.8616L39.4474 15.0988L39.5261 15.2162L39.7283 15.5869L39.7285 15.5872L39.728 15.587L39.3209 15.4761L39.2901 15.4713L39.2654 15.4648L39.152 15.4505L38.9432 15.4192L38.9047 15.4195L38.8399 15.4114C38.7036 15.4033 38.572 15.404 38.4438 15.411L38.2973 15.4253L38.2539 15.4256L38.1802 15.4368L38.0681 15.4477L37.731 15.5039L37.6136 15.5215L37.2484 15.5787L36.6738 15.6391L36.6694 15.6324C36.6565 15.6237 36.6392 15.6249 36.6242 15.6211L36.6183 15.6449L36.5942 15.6475V15.6885L36.5894 15.694C36.5761 15.7037 36.5704 15.6999 36.5884 15.7086L36.5942 15.7117V15.7496L36.5865 15.7442C36.5703 15.7324 36.5532 15.7229 36.5339 15.7229C36.5119 15.7229 36.555 15.7616 36.5678 15.7794L36.5942 15.8133V16.1118L36.5452 16.0849C36.5294 16.0787 36.5578 16.1165 36.5678 16.1301L36.5942 16.1609V16.2507L36.6211 16.2924L36.613 16.2884C36.5957 16.2807 36.6345 16.3196 36.6468 16.3336L36.6499 16.3368L36.7372 16.4715L36.7146 16.4693C36.7012 16.4711 36.7367 16.4854 36.7485 16.492L36.7515 16.4936L36.7735 16.5272L36.7748 16.5346L36.7907 16.5537L36.8025 16.5721L36.9327 16.717L36.9255 16.7366L36.9059 16.7617L36.8842 16.7522C36.8777 16.7504 36.8808 16.7565 36.8869 16.7643L36.8959 16.7743L36.8955 16.7748L36.7825 16.6957C36.7563 16.6773 36.823 16.7468 36.8503 16.7635L36.9093 16.7881L37.0198 16.8766L37.073 16.908L37.0763 16.9444L37.0419 16.9529L37.0281 16.9444C37.0073 16.9331 36.9819 16.9218 36.9632 16.9218C36.9513 16.9218 36.9606 16.9293 36.9755 16.9388L37.0099 16.9608L36.9604 16.9729C36.8415 16.9875 36.7146 16.967 36.5942 16.9746C36.5439 16.9546 36.4947 16.8972 36.4434 16.9143C36.4041 16.9274 36.4201 16.9941 36.4133 17.0349C36.39 17.1752 36.3731 17.3164 36.3529 17.4572C36.1329 17.5306 36.2338 17.5021 36.0516 17.5476C35.969 17.5685 35.9311 17.6683 35.8708 17.7287C35.256 17.8166 35.7297 17.7466 34.4543 17.97C34.4241 17.96 34.3561 17.9706 34.3638 17.9398C34.3761 17.891 34.5293 17.8718 34.4844 17.8493C34.4276 17.8208 34.3638 17.8895 34.3037 17.9096C34.1228 17.9298 33.943 17.97 33.7611 17.97C33.6975 17.97 33.883 17.9332 33.942 17.9096C33.9836 17.8929 34.0215 17.8675 34.0625 17.8493C34.1119 17.8274 34.1649 17.8131 34.2132 17.789C34.6788 17.556 34.1886 17.7702 34.6051 17.5778C34.8641 17.4582 34.7955 17.5367 34.9967 17.3064C35.0814 17.2096 35.2016 17.1283 35.2379 17.0047C35.2594 16.9313 35.1776 16.864 35.1475 16.7937C35.0857 16.8143 35.0116 16.8302 34.9667 16.8841C34.9379 16.9187 34.9264 16.9646 34.9064 17.0047C34.8663 17.0349 34.8289 17.0695 34.7858 17.0952C34.728 17.1299 34.6652 17.1557 34.6051 17.1858C34.3796 17.2986 34.1429 17.3869 33.9119 17.4873C33.4697 17.4975 33.0245 17.5724 32.5858 17.5175C32.0951 17.4562 32.2017 17.3325 32.2844 17.1255C32.3096 17.1237 32.6982 17.1203 32.8268 17.065C32.8601 17.0508 32.8871 17.0249 32.9173 17.0047C32.9512 16.998 33.58 16.8839 33.3994 16.8238C33.123 16.7315 32.8168 16.8036 32.5255 16.7937C33.0387 16.4511 32.5153 16.7542 33.8214 16.6429C33.9259 16.6339 34.0223 16.5826 34.1228 16.5524L34.3337 16.5221C34.376 16.5162 34.394 16.4618 34.4241 16.4316C34.5146 16.3412 34.5955 16.2402 34.6953 16.1603C34.7481 16.1182 34.816 16.1 34.8763 16.0698C35.2512 15.882 35.0801 15.7824 35.1776 15.5872C35.285 15.3724 35.1824 15.6328 35.3584 15.4063C35.4805 15.2491 35.5046 14.9653 35.5393 14.8029C35.5593 14.7627 35.5726 14.7183 35.5996 14.6823C35.6337 14.6369 35.6899 14.6098 35.7201 14.5617C35.742 14.5266 35.7402 14.4812 35.7502 14.441C35.7804 14.4109 35.8171 14.386 35.8407 14.3506C35.9588 14.1731 35.7487 14.3529 35.901 14.1092C36.0416 13.8839 36.0526 14.1743 35.9913 13.868C35.9913 13.868 35.8292 13.9455 35.7502 13.9886C35.7184 14.006 35.6899 14.0289 35.6598 14.0489C35.4729 14.1736 35.2579 14.25 35.057 14.3506C34.9767 14.3606 34.8958 14.3673 34.816 14.3807C34.7752 14.3875 34.6953 14.3694 34.6953 14.4109C34.6953 14.4612 34.7758 14.4712 34.816 14.5014C35.0169 14.4812 35.2229 14.392 35.4187 14.441C35.5106 14.464 35.2599 14.5448 35.1776 14.5918C35.0488 14.6656 34.9236 14.7478 34.7858 14.8029C34.7199 14.8294 34.6408 14.8596 34.5749 14.8332C34.5411 14.8196 34.615 14.7727 34.6352 14.7426C34.5146 14.7727 34.3927 14.798 34.2735 14.8332C34.2216 14.8484 34.1644 14.8588 34.1228 14.8935C34.0407 14.9618 33.9822 15.0543 33.9119 15.1347C33.8615 15.0946 33.8066 15.0597 33.7611 15.0141C33.7355 14.9884 33.7345 14.9371 33.7008 14.9237C33.6243 14.893 33.5731 15.0097 33.5502 15.0443C33.377 15.1598 33.4853 15.079 33.2488 15.3157C32.937 15.4197 33.3103 15.2803 32.7062 15.7983C32.6821 15.8189 32.7342 15.7396 32.7364 15.7078C32.7544 15.4469 32.8221 15.1793 32.7665 14.9237C32.7523 14.8578 32.6358 14.9691 32.5858 15.0141C32.5319 15.0626 32.5053 15.1347 32.4652 15.195C32.425 15.2052 32.3801 15.2465 32.3447 15.2252C32.3092 15.2039 32.3437 15.0752 32.3146 15.1046C32.2713 15.1478 32.2944 15.2252 32.2844 15.2855C32.2451 15.3642 32.1858 15.4907 32.1336 15.557L31.9617 15.7506L31.968 15.689C31.9529 15.6965 31.9357 15.7008 31.9227 15.7116C31.9126 15.7201 31.9031 15.7381 31.8952 15.7563L31.879 15.7983L31.8737 15.7865C31.8686 15.7648 31.8749 15.7271 31.9227 15.6475L31.9018 15.5216L31.9001 15.4289L31.8888 15.4553L31.8624 15.3761C31.8624 15.3248 31.8826 15.2755 31.8926 15.2252C31.9127 15.195 31.9286 15.1618 31.9529 15.1347C32.0194 15.0608 32.1323 15.0181 32.1638 14.9237C32.1823 14.8679 32.0976 14.8262 32.0733 14.7727C32.0471 14.7149 32.0332 14.6521 32.0132 14.5918L31.9991 14.5853L32.0132 14.5014C31.9906 14.5164 31.9657 14.5286 31.9453 14.5466L31.9427 14.5504L31.9227 14.5315L31.9145 14.4738L31.9709 14.2734L31.9978 14.2046L32.0245 14.1846L32.0502 14.1738L32.1261 14.162C32.1669 14.1349 32.2108 14.1081 32.139 14.1361L32.0502 14.1738L32.0073 14.1803L32.0722 14.0143L32.082 14.0101C32.0974 14.0035 32.1143 13.9928 32.16 13.9471C32.172 13.9352 32.1292 13.9611 32.1148 13.9697L32.0805 13.9927L32.0968 13.9512L32.1646 13.7921L32.1898 13.7795L32.1939 13.868C32.2039 13.9886 32.2061 14.1102 32.2241 14.23C32.2364 14.3119 32.2688 14.3898 32.2844 14.4712C32.3092 14.6012 32.3246 14.7326 32.3447 14.8634C32.3747 14.8432 32.4094 14.8286 32.435 14.8029C32.593 14.6449 32.5219 14.6723 32.6461 14.5014C33.0633 13.9271 32.6408 14.5544 32.857 14.23C32.9704 14.0597 33.0936 14.0068 33.2488 13.8981C33.2829 13.8742 33.4107 13.7718 33.4597 13.7474C33.5282 13.7131 33.6003 13.6871 33.6706 13.6569C33.5753 13.633 33.2488 13.5571 33.2488 13.506C33.2488 13.4011 33.4497 13.4457 33.5502 13.4155C33.6305 13.4055 33.7239 13.4303 33.7912 13.3854C33.8339 13.357 33.8034 13.2826 33.8214 13.2346C33.8652 13.1176 33.9174 13.1297 34.0323 13.0838L34.3638 13.0234C34.5346 12.9929 34.7152 12.9975 34.8763 12.9329C34.9099 12.9195 34.7814 12.8533 34.816 12.8424C34.9897 12.7882 35.1776 12.8023 35.3584 12.7821C35.4087 12.7872 35.4597 12.7882 35.5103 12.7911L35.618 12.8064L35.6598 12.8726C35.7692 12.9878 35.901 13.0938 36.0516 13.1441C36.0817 13.1541 36.1645 13.1967 36.142 13.1743C36.0907 13.123 36.0173 13.0996 35.9613 13.0535C35.8608 12.9714 35.7958 12.8485 35.6598 12.8123L35.618 12.8064L35.5595 12.714C35.5326 12.6563 35.5092 12.5961 35.479 12.5409C35.5291 12.5057 35.584 12.4757 35.6367 12.4431L35.6935 12.3982Z" fill="#BFBFBF" fill-opacity="0.180392"/>
<path fill-rule="evenodd" clip-rule="evenodd" d="M36.7794 12.8898L37.2628 13.1941L38.0112 13.717L38.1176 13.7959L38.7166 14.3032L38.8691 14.4497L38.9969 14.5812L39.1761 14.7854L39.2836 14.9155L39.4491 15.1475L39.5274 15.2621L39.7283 15.6247L39.7285 15.6249L39.728 15.6247L39.3234 15.5162L39.2927 15.5117L39.268 15.5053L39.1554 15.4913L38.9479 15.4607L38.9096 15.461L38.8454 15.453C38.7097 15.4451 38.5789 15.4459 38.4514 15.4527L38.3059 15.4666L38.2628 15.4671L38.1894 15.4779L38.0779 15.4885L37.7428 15.5436L37.6263 15.5607L37.2631 15.6167L36.692 15.6757L36.6876 15.6691L36.6819 15.6677L36.6815 15.6668C36.6709 15.6257 36.6602 15.5834 36.654 15.5585C36.5745 15.4805 36.6802 15.5787 36.5416 15.4812C36.5136 15.4613 36.4892 15.4369 36.4629 15.4148C36.4256 15.4038 36.3861 15.3978 36.3507 15.3817C36.3363 15.3751 36.3299 15.3576 36.3169 15.3484C36.3033 15.3389 36.2869 15.3337 36.272 15.3263C36.2383 15.3189 36.2043 15.3125 36.1709 15.3042C36.0703 15.2794 36.1173 15.2873 36.0247 15.2599C36.01 15.2557 35.9936 15.2557 35.9798 15.249C35.8079 15.1644 35.9164 15.219 35.8114 15.1052C35.7951 15.0877 35.7738 15.0757 35.7552 15.061C35.7211 15.0341 35.7073 14.9889 35.6878 14.9504C35.6691 14.9138 35.6347 14.7637 35.6316 14.7513C35.6537 14.6642 35.637 14.739 35.654 14.5966C35.6572 14.5707 35.6616 14.5449 35.6653 14.5191C35.6957 14.4991 35.7083 14.4889 35.744 14.4748C35.766 14.4661 35.7902 14.4632 35.8114 14.4527C35.8531 14.4322 35.8559 14.4201 35.8787 14.3863C35.8938 14.3827 35.9099 14.3821 35.9236 14.3753C35.9949 14.3403 36.0246 14.3008 36.0698 14.2316C36.0806 14.2149 36.0852 14.1949 36.0922 14.1762C36.1044 14.1446 36.1058 14.1338 36.1147 14.0989C36.1765 14.0228 36.1396 14.0566 36.227 13.9994C36.256 13.9922 36.3169 13.9784 36.3394 13.9661C36.3533 13.9586 36.3618 13.944 36.3731 13.933C36.449 13.9081 36.3569 13.9409 36.4629 13.8888C36.4885 13.8762 36.515 13.866 36.5416 13.8555C36.579 13.8409 36.6049 13.8441 36.6314 13.8003C36.6558 13.7605 36.6411 13.7275 36.6314 13.6897C36.5842 13.6618 36.5744 13.662 36.5416 13.6233C36.5329 13.6132 36.5287 13.5995 36.5191 13.5902C36.4985 13.5699 36.4734 13.5542 36.4518 13.5348C36.4361 13.5209 36.4105 13.5112 36.4067 13.4906C36.3753 13.317 36.3856 13.2836 36.4067 13.1589C36.4416 13.1246 36.4554 13.1069 36.4967 13.0815C36.5108 13.0727 36.5298 13.0711 36.5416 13.0594C36.557 13.0442 36.5622 13.0212 36.5753 13.004C36.5849 12.9916 36.5988 12.9829 36.6089 12.9709C36.6291 12.9472 36.6365 12.9301 36.6407 12.9096L36.6424 12.9L36.6906 12.8964L36.6953 12.9201L36.6989 12.9377C36.7037 12.9501 36.7197 12.984 36.7214 12.9709L36.7225 12.9404L36.7242 12.8939L36.7794 12.8898Z" fill="#0D0D0D"/>
<path fill-rule="evenodd" clip-rule="evenodd" d="M38.7435 15.0156L38.7576 15.0213L38.751 15.019C38.7389 15.0141 38.7307 15.0104 38.7435 15.0156ZM36.8679 14.5294C37.0383 14.5246 37.2104 14.5407 37.3807 14.5543C37.4029 14.5586 37.4262 14.5582 37.4475 14.5667C37.5037 14.5897 37.5047 14.6128 37.5478 14.6541C37.5727 14.678 37.5968 14.6862 37.6258 14.7039C37.652 14.72 37.6778 14.737 37.7038 14.7537C37.8156 14.7447 37.8954 14.7254 38.0047 14.7662C38.0175 14.7709 38.015 14.7968 38.027 14.8035C38.0471 14.8149 38.0717 14.8111 38.0939 14.816C38.1089 14.8193 38.1235 14.825 38.1384 14.8285C38.3457 14.8748 38.2758 14.8625 38.4729 14.8783C38.636 14.9043 38.5044 14.8776 38.7738 14.9779C38.8216 14.9958 38.8742 15.0007 38.9186 15.0277C38.9514 15.0477 39.0442 15.1115 39.0969 15.1275C39.1187 15.1341 39.1415 15.1357 39.1638 15.14C39.2084 15.169 39.2611 15.1864 39.2975 15.2272C39.3087 15.2396 39.3185 15.2537 39.3309 15.2645C39.3521 15.2829 39.3773 15.2952 39.3978 15.3143C39.4221 15.337 39.4399 15.3673 39.4647 15.3891C39.4924 15.4133 39.5273 15.4259 39.554 15.4515C39.5799 15.4764 39.5966 15.5117 39.6208 15.5387C39.634 15.5533 39.6502 15.5639 39.6654 15.5761L39.6882 15.5929L39.7284 15.6754L39.7285 15.6757L39.728 15.6755L39.6769 15.66L39.6543 15.6383C39.6282 15.6134 39.6069 15.5806 39.5763 15.5636C39.4763 15.5077 39.3575 15.4455 39.2641 15.3766C39.1728 15.3096 39.0863 15.2347 38.9966 15.1649C38.9637 15.1392 38.9298 15.1151 38.8964 15.0902C38.8852 15.0818 38.8754 15.0705 38.8629 15.0653C38.8265 15.05 38.8 15.0389 38.7808 15.0308L38.7576 15.0213L38.781 15.0299C38.7831 15.0297 38.7716 15.0233 38.7292 15.0028C38.6704 14.9748 38.5132 14.9545 38.5063 14.953C38.4308 14.9379 38.3249 14.9151 38.2499 14.9032C38.224 14.8991 38.1977 14.8958 38.1719 14.8907C37.8575 14.8288 38.2505 14.9017 37.9601 14.8409C37.9344 14.8355 37.9082 14.8326 37.8821 14.8285C37.8487 14.8119 37.8162 14.7924 37.7818 14.7786C37.7682 14.7732 37.6681 14.7554 37.6593 14.7537C37.5159 14.7003 37.6625 14.7516 37.5367 14.7164C37.5252 14.7131 37.5147 14.7067 37.5032 14.7039C37.4811 14.6983 37.4585 14.6964 37.4364 14.6915C37.4213 14.688 37.4061 14.6849 37.3918 14.679C37.3762 14.6724 37.3635 14.6577 37.3472 14.6541C37.3069 14.6451 37.2655 14.6457 37.2245 14.6415C37.1948 14.6333 37.1655 14.6233 37.1353 14.6166C37.1096 14.6108 37.0834 14.6087 37.0573 14.6041L36.9236 14.5792C36.7617 14.5522 36.898 14.581 36.7787 14.5543C36.8084 14.5461 36.8373 14.5302 36.8679 14.5294Z" fill="white"/>
<path fill-rule="evenodd" clip-rule="evenodd" d="M33.8385 13.709C33.6526 13.8078 33.8104 13.7292 33.6839 13.7829C33.669 13.7893 33.6559 13.8006 33.6398 13.8041C33.5597 13.8218 33.4781 13.8322 33.3971 13.8463C33.3678 13.857 33.3378 13.866 33.309 13.8781C33.2788 13.8908 33.2528 13.9132 33.2207 13.9204L33.0332 13.9625C33.0148 13.9766 32.9947 13.9889 32.9781 14.0048C32.965 14.0173 32.929 14.0386 32.945 14.0471C32.9837 14.0677 33.0332 14.0541 33.0773 14.0577C33.0443 14.0753 33.0073 14.0876 32.9781 14.1105C32.9653 14.1205 32.9647 14.1393 32.956 14.1528C32.955 14.1543 32.8686 14.2749 32.8567 14.3008C32.8506 14.314 32.8493 14.329 32.8457 14.343L33.298 14.2162C33.2906 14.2549 33.2511 14.3009 33.2759 14.3324C33.2932 14.3547 33.3731 14.2927 33.3971 14.2796C33.4833 14.2324 33.4781 14.2564 33.6289 14.2478C33.8719 14.2013 33.6503 14.2641 33.7832 14.1846C33.7962 14.1769 33.8126 14.1772 33.8273 14.1739L34.0259 14.1316C34.0553 14.1493 34.0843 14.1677 34.1141 14.1846C34.1284 14.1924 34.1439 14.1979 34.1584 14.2057C34.1698 14.2119 34.1806 14.2193 34.1914 14.2269C34.2064 14.237 34.2185 14.2518 34.2355 14.2585C34.2636 14.2696 34.295 14.2704 34.3237 14.2796C34.3348 14.2831 34.3453 14.2885 34.3568 14.2901C34.3933 14.2955 34.4305 14.296 34.4671 14.3008C34.4858 14.3031 34.5038 14.3086 34.5223 14.3113C34.5517 14.3157 34.5811 14.3183 34.6105 14.3219C34.6303 14.3503 34.6319 14.3681 34.6767 14.3642C34.7435 14.3583 34.8096 14.3455 34.8753 14.3324C34.9133 14.3249 34.9466 14.3049 34.9856 14.3008C35.0369 14.2954 35.0885 14.2937 35.14 14.2901C35.057 14.2637 34.9835 14.2578 34.9304 14.1846C34.9151 14.1634 34.9179 14.1344 34.9084 14.1105C34.8996 14.0885 34.8856 14.0686 34.8753 14.0471C34.8496 13.994 34.8371 13.9643 34.8201 13.9098C34.8157 13.8958 34.8127 13.8816 34.8091 13.8675C34.8127 13.8499 34.8112 13.8304 34.8201 13.8147C34.8614 13.7413 34.9 13.7187 34.9635 13.6667C34.9599 13.6245 34.9822 13.5714 34.9525 13.5399C34.9028 13.4873 34.8207 13.4753 34.7539 13.4448C34.7434 13.4401 34.7324 13.4357 34.7208 13.4342C34.6732 13.4286 34.6252 13.4271 34.5774 13.4237C34.5336 13.4132 34.5158 13.4078 34.4671 13.4026C34.3901 13.3944 34.2355 13.3814 34.2355 13.3814C34.1105 13.3849 33.9846 13.3773 33.8604 13.3919C33.3282 13.4547 33.7467 13.4255 33.5517 13.4765C33.5074 13.4881 33.3952 13.495 33.364 13.4976C33.3018 13.5125 33.1987 13.5274 33.1435 13.5717C33.1231 13.5879 33.1163 13.6154 33.0994 13.6351C33.083 13.6543 33.0183 13.6867 33.0443 13.6879C33.2941 13.6993 33.5443 13.6738 33.7942 13.6667C33.8714 13.679 33.8311 13.702 33.8385 13.709Z" fill="#A6A6A6" fill-opacity="0.588235"/>
<path fill-rule="evenodd" clip-rule="evenodd" d="M34.1292 13.6839C34.084 13.7149 33.9865 13.7213 33.9932 13.7765C33.997 13.8073 33.9942 13.8398 34.0045 13.869C34.0101 13.8844 34.0283 13.8911 34.0386 13.9037C34.0473 13.9144 34.0515 13.9284 34.0612 13.9383C34.0874 13.9652 34.1195 13.9681 34.152 13.9845C34.1641 13.9907 34.1738 14.0015 34.1859 14.0078C34.2023 14.016 34.2508 14.0271 34.2654 14.0309C34.4753 14.0215 34.4717 14.0718 34.5715 13.9845C34.5836 13.974 34.5941 13.9614 34.6056 13.9499C34.6131 13.9306 34.621 13.9116 34.6282 13.8921C34.6543 13.8213 34.6559 13.78 34.6282 13.6839C34.6235 13.6676 34.5967 13.6708 34.5828 13.6608C34.5577 13.643 34.5146 13.5973 34.4807 13.58C34.4701 13.5745 34.4583 13.5717 34.4468 13.5684C34.4094 13.5576 34.3837 13.5532 34.3447 13.5453C34.3031 13.5492 34.2613 13.5509 34.22 13.5569C34.2082 13.5586 34.1959 13.5617 34.1859 13.5684C34.1726 13.5774 34.1633 13.5915 34.152 13.6032C34.1382 13.6451 34.133 13.6705 34.1292 13.6839Z" fill="#404040"/>
<path fill-rule="evenodd" clip-rule="evenodd" d="M102.19 20.9337L99.7283 27.8159H104.665L102.19 20.9337ZM155.648 19.1525V25.6066H156.192C157.372 25.6066 158.255 25.3001 158.842 24.6872C159.428 24.0741 159.721 23.1546 159.721 21.9284C159.721 21.0031 159.468 20.3091 158.962 19.8465C158.456 19.3838 157.697 19.1525 156.684 19.1525H155.648ZM150.997 17.4407H157.679C159.348 17.4407 160.633 17.8128 161.534 18.5566C162.434 19.3008 162.884 20.3593 162.884 21.7319C162.884 22.8963 162.634 23.8832 162.134 24.6928C161.634 25.5024 160.88 26.1312 159.872 26.5782L163.963 32.8473H165V34.5591H161.02L156.841 27.249H155.648V32.8473H156.946V34.5591H150.997V32.8473H152.547V19.1525H150.997V17.4407ZM134.017 17.4407H145.265V20.8643H143.589V19.1525H138.803V24.8547H142.039V23.7098H143.589V27.7117H142.039V26.5668H138.803V32.7085H144.082V30.8462H145.757V34.5591H134.017V32.8473H135.567V19.1525H134.017V17.4407ZM115.008 17.4407H120.957V19.1525H119.401L123.235 29.516L127.007 19.1525H125.46V17.4407H129.639V19.1525H128.723L123.203 34.779H121.653L115.924 19.1525H115.008V17.4407ZM78.6063 17.4407H89.8546V20.8643H88.1789V19.1525H83.3926V24.8547H86.6289V23.7098H88.1789V27.7117H86.6289V26.5668H83.3926V32.7085H88.6712V30.8462H90.3469V34.5591H78.6063V32.8473H80.1563V19.1525H78.6063V17.4407ZM55.3592 17.4407H60.889V19.1525H59.3403L61.5332 28.9377L64.5289 17.5792H66.3361L69.1996 29.2153L71.8168 19.1525H70.2627V17.4407H74.41V19.1525H73.4936L69.4459 34.779H67.5981L64.6647 22.9465L61.5438 34.779H59.7448L56.26 19.1525H55.3592V17.4407ZM101.79 17.2208H104.212L109.797 32.8473H110.71V34.5591H104.918V32.8473H106.474L105.306 29.5971H99.0906L97.9277 32.8473H99.4831V34.5591H95.2832V32.8473H96.1996L101.79 17.2208Z" fill="#382C24"/>
<defs>
<linearGradient id="paint0_linear_2108_414" x1="23.6687" y1="8.95677" x2="23.6687" y2="43.0429" gradientUnits="userSpaceOnUse">
<stop stop-color="#342217"/>
<stop offset="0.3" stop-color="#342217"/>
<stop offset="1" stop-color="#404040"/>
</linearGradient>
<linearGradient id="paint1_linear_2108_414" x1="33.0096" y1="28.6219" x2="33.0096" y2="32.2272" gradientUnits="userSpaceOnUse">
<stop stop-color="#FFC000"/>
<stop offset="0.18" stop-color="#FFC000"/>
<stop offset="0.75" stop-color="#FF9900"/>
<stop offset="1" stop-color="#FF9900"/>
</linearGradient>
<linearGradient id="paint2_linear_2108_414" x1="28.9127" y1="19.9365" x2="28.9127" y2="23.3779" gradientUnits="userSpaceOnUse">
<stop stop-color="#FFC000"/>
<stop offset="0.18" stop-color="#FFC000"/>
<stop offset="0.75" stop-color="#FF9900"/>
<stop offset="1" stop-color="#FF9900"/>
</linearGradient>
</defs>
</svg>
